Poppins-BlackItalic.ufo
<glyph name="exclam" format="2">
  <advance width="455"/>
  <unicode hex="0021"/>
  <outline>
    <contour>
      <point x="190" y="755" type="line"/>
      <point x="133" y="281" type="line"/>
      <point x="323" y="281" type="line"/>
      <point x="432" y="755" type="line"/>
    </contour>
    <component base="period" xOffset="68"/>
  </outline>
</glyph>
<glyph name="numbersign" format="2">
  <advance width="933"/>
  <unicode hex="0023"/>
  <outline>
    <contour>
      <point x="364" y="740" type="line"/>
      <point x="75" y="0" type="line"/>
      <point x="280" y="0" type="line"/>
      <point x="569" y="740" type="line"/>
    </contour>
    <contour>
      <point x="708" y="740" type="line"/>
      <point x="419" y="0" type="line"/>
      <point x="625" y="0" type="line"/>
      <point x="914" y="740" type="line"/>
    </contour>
    <contour>
      <point x="18" y="326" type="line"/>
      <point x="-18" y="124" type="line"/>
      <point x="827" y="124" type="line"/>
      <point x="863" y="326" type="line"/>
    </contour>
    <contour>
      <point x="138" y="623" type="line"/>
      <point x="103" y="421" type="line"/>
      <point x="948" y="421" type="line"/>
      <point x="983" y="623" type="line"/>
    </contour>
  </outline>
</glyph>
<glyph name="dollar" format="2">
  <advance width="665"/>
  <unicode hex="0024"/>
  <outline>
    <contour>
      <point x="390" y="800" type="line"/>
      <point x="234" y="-87" type="line"/>
      <point x="296" y="-87" type="line"/>
      <point x="452" y="800" type="line"/>
    </contour>
    <contour>
      <point x="290" y="409"/>
      <point x="309" y="514" type="curve"/>
      <point x="313" y="540"/>
      <point x="334" y="552"/>
      <point x="368" y="552" type="curve" smooth="yes"/>
      <point x="398" y="552"/>
      <point x="427" y="544"/>
      <point x="423" y="491" type="curve"/>
      <point x="662" y="491" type="line"/>
      <point x="678" y="641"/>
      <point x="578" y="720"/>
      <point x="398" y="720" type="curve" smooth="yes"/>
      <point x="243" y="720"/>
      <point x="94" y="646"/>
      <point x="69" y="504" type="curve"/>
      <point x="23" y="243"/>
      <point x="404" y="302"/>
      <point x="386" y="204" type="curve"/>
      <point x="381" y="175"/>
      <point x="355" y="161"/>
      <point x="324" y="161" type="curve"/>
      <point x="284" y="161"/>
      <point x="253" y="175"/>
      <point x="258" y="227" type="curve"/>
      <point x="22" y="227" type="line"/>
      <point x="4" y="68"/>
      <point x="127" y="-7"/>
      <point x="300" y="-7" type="curve" smooth="yes"/>
      <point x="484" y="-7"/>
      <point x="603" y="89"/>
      <point x="624" y="209" type="curve" smooth="yes"/>
      <point x="668" y="459"/>
    </contour>
  </outline>
</glyph>
<glyph name="percent" format="2">
  <advance width="896"/>
  <unicode hex="0025"/>
  <outline>
    <contour>
      <point x="87" y="662"/>
      <point x="65" y="540" type="curve" smooth="yes"/>
      <point x="44" y="419"/>
      <point x="112" y="360"/>
      <point x="215" y="360" type="curve" smooth="yes"/>
      <point x="317" y="360"/>
      <point x="404" y="419"/>
      <point x="425" y="540" type="curve" smooth="yes"/>
      <point x="447" y="662"/>
      <point x="380" y="721"/>
      <point x="278" y="721" type="curve" smooth="yes"/>
      <point x="175" y="721"/>
    </contour>
    <contour>
      <point x="232" y="592"/>
      <point x="254" y="592" type="curve" smooth="yes"/>
      <point x="277" y="592"/>
      <point x="288" y="575"/>
      <point x="281" y="540" type="curve" smooth="yes"/>
      <point x="275" y="506"/>
      <point x="258" y="489"/>
      <point x="235" y="489" type="curve" smooth="yes"/>
      <point x="213" y="489"/>
      <point x="204" y="506"/>
      <point x="210" y="540" type="curve" smooth="yes"/>
      <point x="217" y="575"/>
    </contour>
    <contour>
      <point x="605" y="711" type="line"/>
      <point x="106" y="0" type="line"/>
      <point x="318" y="0" type="line"/>
      <point x="817" y="711" type="line"/>
    </contour>
    <contour>
      <point x="519" y="293"/>
      <point x="497" y="171" type="curve" smooth="yes"/>
      <point x="476" y="49"/>
      <point x="544" y="-10"/>
      <point x="646" y="-10" type="curve" smooth="yes"/>
      <point x="749" y="-10"/>
      <point x="835" y="49"/>
      <point x="856" y="171" type="curve" smooth="yes"/>
      <point x="878" y="293"/>
      <point x="812" y="352"/>
      <point x="709" y="352" type="curve" smooth="yes"/>
      <point x="607" y="352"/>
    </contour>
    <contour>
      <point x="663" y="223"/>
      <point x="686" y="223" type="curve" smooth="yes"/>
      <point x="708" y="223"/>
      <point x="718" y="205"/>
      <point x="712" y="171" type="curve" smooth="yes"/>
      <point x="706" y="136"/>
      <point x="689" y="119"/>
      <point x="667" y="119" type="curve" smooth="yes"/>
      <point x="644" y="119"/>
      <point x="635" y="136"/>
      <point x="641" y="171" type="curve" smooth="yes"/>
      <point x="647" y="205"/>
    </contour>
  </outline>
</glyph>
<glyph name="ampersand" format="2">
  <advance width="837"/>
  <unicode hex="0026"/>
  <outline>
    <contour>
      <point x="436" y="524" type="curve"/>
      <point x="638" y="524" type="line"/>
      <point x="640" y="535"/>
      <point x="641" y="545"/>
      <point x="641" y="555" type="curve" smooth="yes"/>
      <point x="641" y="641"/>
      <point x="572" y="711"/>
      <point x="428" y="711" type="curve" smooth="yes"/>
      <point x="272" y="711"/>
      <point x="153" y="626"/>
      <point x="153" y="493" type="curve" smooth="yes"/>
      <point x="153" y="452"/>
      <point x="169" y="413"/>
      <point x="208" y="367" type="curve" smooth="yes"/>
      <point x="535" y="0" type="line"/>
      <point x="779" y="0" type="line"/>
      <point x="391" y="452" type="line" smooth="yes"/>
      <point x="370" y="476"/>
      <point x="360" y="499"/>
      <point x="360" y="519" type="curve" smooth="yes"/>
      <point x="360" y="548"/>
      <point x="382" y="562"/>
      <point x="404" y="562" type="curve" smooth="yes"/>
      <point x="420" y="562"/>
      <point x="437" y="553"/>
      <point x="437" y="533" type="curve" smooth="yes"/>
      <point x="437" y="530"/>
      <point x="437" y="527"/>
    </contour>
    <contour>
      <point x="404" y="329" type="line"/>
      <point x="345" y="456" type="line"/>
      <point x="251" y="428" type="line" smooth="yes"/>
      <point x="117" y="388"/>
      <point x="7" y="297"/>
      <point x="7" y="172" type="curve" smooth="yes"/>
      <point x="7" y="62"/>
      <point x="105" y="-10"/>
      <point x="263" y="-10" type="curve" smooth="yes"/>
      <point x="482" y="-10"/>
      <point x="640" y="116"/>
      <point x="766" y="340" type="curve" smooth="yes"/>
      <point x="780" y="366" type="line"/>
      <point x="565" y="366" type="line"/>
      <point x="561" y="357" type="line" smooth="yes"/>
      <point x="502" y="242"/>
      <point x="422" y="165"/>
      <point x="312" y="165" type="curve" smooth="yes"/>
      <point x="260" y="165"/>
      <point x="235" y="189"/>
      <point x="235" y="217" type="curve" smooth="yes"/>
      <point x="235" y="251"/>
      <point x="271" y="294"/>
      <point x="338" y="312" type="curve" smooth="yes"/>
    </contour>
  </outline>
</glyph>
<glyph name="parenright" format="2">
  <advance width="463"/>
  <unicode hex="0029"/>
  <outline>
    <contour>
      <point x="112" y="-229" type="line"/>
      <point x="312" y="-66"/>
      <point x="433" y="235"/>
      <point x="433" y="502" type="curve" smooth="yes"/>
      <point x="433" y="665"/>
      <point x="389" y="805"/>
      <point x="310" y="895" type="curve"/>
      <point x="96" y="895" type="line"/>
      <point x="92" y="874" type="line"/>
      <point x="173" y="770"/>
      <point x="218" y="627"/>
      <point x="218" y="472" type="curve" smooth="yes"/>
      <point x="218" y="221"/>
      <point x="92" y="-40"/>
      <point x="-99" y="-209" type="curve"/>
      <point x="-102" y="-229" type="line"/>
    </contour>
  </outline>
</glyph>
<glyph name="plus" format="2">
  <advance width="551"/>
  <unicode hex="002B"/>
  <outline>
    <contour>
      <point x="437" y="595" type="line"/>
      <point x="224" y="595" type="line"/>
      <point x="134" y="85" type="line"/>
      <point x="347" y="85" type="line"/>
    </contour>
    <contour>
      <point x="48" y="441" type="line"/>
      <point x="12" y="238" type="line"/>
      <point x="523" y="238" type="line"/>
      <point x="559" y="441" type="line"/>
    </contour>
  </outline>
</glyph>
<glyph name="comma" format="2">
  <advance width="348"/>
  <unicode hex="002C"/>
  <outline>
    <contour>
      <point x="70" y="185" type="line"/>
      <point x="-13" y="-118" type="line"/>
      <point x="133" y="-118" type="line"/>
      <point x="290" y="185" type="line"/>
    </contour>
  </outline>
</glyph>
<glyph name="period" format="2">
  <advance width="319"/>
  <unicode hex="002E"/>
  <outline>
    <contour>
      <point x="109" y="-8" type="curve" smooth="yes"/>
      <point x="187" y="-8"/>
      <point x="244" y="40"/>
      <point x="255" y="101" type="curve" smooth="yes"/>
      <point x="266" y="163"/>
      <point x="226" y="212"/>
      <point x="148" y="212" type="curve" smooth="yes"/>
      <point x="69" y="212"/>
      <point x="11" y="163"/>
      <point x="0" y="101" type="curve" smooth="yes"/>
      <point x="-11" y="40"/>
      <point x="30" y="-8"/>
    </contour>
  </outline>
</glyph>
<glyph name="zero" format="2">
  <advance width="662"/>
  <unicode hex="0030"/>
  <outline>
    <contour>
      <point x="197" y="721"/>
      <point x="83" y="569"/>
      <point x="46" y="363" type="curve"/>
      <point x="10" y="156"/>
      <point x="71" y="4"/>
      <point x="283" y="4" type="curve" smooth="yes"/>
      <point x="494" y="4"/>
      <point x="610" y="156"/>
      <point x="646" y="363" type="curve"/>
      <point x="683" y="569"/>
      <point x="620" y="721"/>
      <point x="409" y="721" type="curve" smooth="yes"/>
    </contour>
    <contour>
      <point x="444" y="511"/>
      <point x="441" y="441"/>
      <point x="427" y="363" type="curve"/>
      <point x="413" y="284"/>
      <point x="392" y="214"/>
      <point x="320" y="214" type="curve" smooth="yes"/>
      <point x="247" y="214"/>
      <point x="250" y="284"/>
      <point x="264" y="363" type="curve" smooth="yes"/>
      <point x="278" y="441"/>
      <point x="299" y="511"/>
      <point x="372" y="511" type="curve"/>
    </contour>
  </outline>
</glyph>
<glyph name="one" format="2">
  <advance width="399"/>
  <unicode hex="0031"/>
  <outline>
    <contour>
      <point x="154" y="500" type="line"/>
      <point x="66" y="0" type="line"/>
      <point x="299" y="0" type="line"/>
      <point x="424" y="708" type="line"/>
      <point x="85" y="708" type="line"/>
      <point x="48" y="500" type="line"/>
    </contour>
  </outline>
</glyph>
<glyph name="two" format="2">
  <advance width="566"/>
  <unicode hex="0032"/>
  <outline>
    <contour>
      <point x="9" y="177" type="curve"/>
      <point x="-20" y="10" type="line"/>
      <point x="497" y="10" type="line"/>
      <point x="529" y="189" type="line"/>
      <point x="300" y="189" type="line"/>
      <point x="428" y="262"/>
      <point x="555" y="378"/>
      <point x="579" y="513" type="curve" smooth="yes"/>
      <point x="597" y="619"/>
      <point x="555" y="727"/>
      <point x="373" y="727" type="curve" smooth="yes"/>
      <point x="236" y="727"/>
      <point x="97" y="652"/>
      <point x="56" y="458" type="curve"/>
      <point x="271" y="458" type="line"/>
      <point x="283" y="524"/>
      <point x="297" y="541"/>
      <point x="323" y="541" type="curve" smooth="yes"/>
      <point x="342" y="541"/>
      <point x="356" y="530"/>
      <point x="349" y="491" type="curve" smooth="yes"/>
      <point x="333" y="401"/>
      <point x="169" y="283"/>
    </contour>
  </outline>
</glyph>
<glyph name="three" format="2">
  <advance width="615"/>
  <unicode hex="0033"/>
  <outline>
    <contour>
      <point x="116" y="661"/>
      <point x="84" y="502" type="curve"/>
      <point x="300" y="502" type="line"/>
      <point x="305" y="531"/>
      <point x="315" y="564"/>
      <point x="348" y="564" type="curve"/>
      <point x="367" y="564"/>
      <point x="382" y="551"/>
      <point x="376" y="515" type="curve" smooth="yes"/>
      <point x="366" y="459"/>
      <point x="316" y="460"/>
      <point x="299" y="461" type="curve" smooth="yes"/>
      <point x="263" y="461" type="line"/>
      <point x="231" y="282" type="line"/>
      <point x="268" y="282" type="line" smooth="yes"/>
      <point x="329" y="282"/>
      <point x="345" y="261"/>
      <point x="339" y="225" type="curve" smooth="yes"/>
      <point x="334" y="195"/>
      <point x="312" y="176"/>
      <point x="288" y="176" type="curve" smooth="yes"/>
      <point x="246" y="176"/>
      <point x="236" y="202"/>
      <point x="247" y="249" type="curve"/>
      <point x="31" y="249" type="line"/>
      <point x="2" y="65"/>
      <point x="102" y="-7"/>
      <point x="266" y="-7" type="curve" smooth="yes"/>
      <point x="420" y="-7"/>
      <point x="528" y="80"/>
      <point x="551" y="209" type="curve" smooth="yes"/>
      <point x="567" y="301"/>
      <point x="525" y="350"/>
      <point x="461" y="376" type="curve"/>
      <point x="461" y="380" type="line"/>
      <point x="507" y="394"/>
      <point x="579" y="439"/>
      <point x="597" y="543" type="curve" smooth="yes"/>
      <point x="617" y="657"/>
      <point x="547" y="747"/>
      <point x="385" y="747" type="curve" smooth="yes"/>
      <point x="222" y="747"/>
    </contour>
  </outline>
</glyph>
<glyph name="five" format="2">
  <advance width="660"/>
  <unicode hex="0035"/>
  <outline>
    <contour>
      <point x="663" y="731" type="line"/>
      <point x="173" y="731" type="line"/>
      <point x="94" y="283" type="line"/>
      <point x="310" y="283" type="line"/>
      <point x="313" y="299"/>
      <point x="329" y="316"/>
      <point x="359" y="316" type="curve"/>
      <point x="391" y="316"/>
      <point x="408" y="297"/>
      <point x="401" y="257" type="curve" smooth="yes"/>
      <point x="394" y="218"/>
      <point x="375" y="190"/>
      <point x="340" y="190" type="curve" smooth="yes"/>
      <point x="302" y="190"/>
      <point x="298" y="218"/>
      <point x="301" y="234" type="curve"/>
      <point x="85" y="234" type="line"/>
      <point x="58" y="98"/>
      <point x="141" y="0"/>
      <point x="317" y="0" type="curve" smooth="yes"/>
      <point x="474" y="0"/>
      <point x="586" y="92"/>
      <point x="615" y="253" type="curve" smooth="yes"/>
      <point x="637" y="378"/>
      <point x="590" y="489"/>
      <point x="448" y="489" type="curve" smooth="yes"/>
      <point x="397" y="489"/>
      <point x="354" y="475"/>
      <point x="324" y="452" type="curve"/>
      <point x="339" y="536" type="line"/>
      <point x="629" y="536" type="line"/>
    </contour>
  </outline>
</glyph>
<glyph name="six" format="2">
  <advance width="633"/>
  <unicode hex="0036"/>
  <outline>
    <contour>
      <point x="405" y="509" type="curve"/>
      <point x="612" y="509" type="line"/>
      <point x="626" y="627"/>
      <point x="578" y="744"/>
      <point x="407" y="744" type="curve"/>
      <point x="213" y="744"/>
      <point x="113" y="629"/>
      <point x="66" y="360" type="curve"/>
      <point x="29" y="154"/>
      <point x="54" y="-7"/>
      <point x="280" y="-7" type="curve" smooth="yes"/>
      <point x="439" y="-7"/>
      <point x="555" y="88"/>
      <point x="581" y="239" type="curve" smooth="yes"/>
      <point x="608" y="392"/>
      <point x="535" y="469"/>
      <point x="411" y="469" type="curve" smooth="yes"/>
      <point x="353" y="469"/>
      <point x="302" y="445"/>
      <point x="271" y="409" type="curve"/>
      <point x="288" y="506"/>
      <point x="308" y="567"/>
      <point x="362" y="567" type="curve" smooth="yes"/>
      <point x="395" y="567"/>
      <point x="405" y="547"/>
    </contour>
    <contour>
      <point x="291" y="299"/>
      <point x="326" y="299" type="curve"/>
      <point x="361" y="299"/>
      <point x="381" y="279"/>
      <point x="375" y="242" type="curve"/>
      <point x="368" y="201"/>
      <point x="342" y="183"/>
      <point x="306" y="183" type="curve"/>
      <point x="270" y="183"/>
      <point x="250" y="201"/>
      <point x="257" y="242" type="curve"/>
      <point x="263" y="279"/>
    </contour>
  </outline>
</glyph>
<glyph name="nine" format="2">
  <advance width="597"/>
  <unicode hex="0039"/>
  <outline>
    <contour>
      <point x="244" y="228" type="curve"/>
      <point x="37" y="228" type="line"/>
      <point x="24" y="110"/>
      <point x="88" y="-7"/>
      <point x="259" y="-7" type="curve"/>
      <point x="453" y="-7"/>
      <point x="542" y="138"/>
      <point x="586" y="387" type="curve"/>
      <point x="622" y="593"/>
      <point x="595" y="744"/>
      <point x="369" y="744" type="curve" smooth="yes"/>
      <point x="210" y="744"/>
      <point x="95" y="649"/>
      <point x="68" y="498" type="curve" smooth="yes"/>
      <point x="41" y="345"/>
      <point x="115" y="268"/>
      <point x="239" y="268" type="curve" smooth="yes"/>
      <point x="297" y="268"/>
      <point x="348" y="292"/>
      <point x="378" y="328" type="curve"/>
      <point x="361" y="231"/>
      <point x="344" y="170"/>
      <point x="290" y="170" type="curve" smooth="yes"/>
      <point x="257" y="170"/>
      <point x="245" y="190"/>
    </contour>
    <contour>
      <point x="359" y="438"/>
      <point x="324" y="438" type="curve"/>
      <point x="289" y="438"/>
      <point x="268" y="458"/>
      <point x="275" y="495" type="curve"/>
      <point x="282" y="536"/>
      <point x="308" y="554"/>
      <point x="344" y="554" type="curve"/>
      <point x="380" y="554"/>
      <point x="400" y="536"/>
      <point x="393" y="495" type="curve"/>
      <point x="386" y="458"/>
    </contour>
  </outline>
</glyph>
<glyph name="less" format="2">
  <advance width="497"/>
  <unicode hex="003C"/>
  <outline>
    <contour>
      <point x="449" y="125" type="line"/>
      <point x="307" y="340" type="line"/>
      <point x="525" y="556" type="line"/>
      <point x="248" y="556" type="line"/>
      <point x="30" y="340" type="line"/>
      <point x="172" y="125" type="line"/>
    </contour>
  </outline>
</glyph>
<glyph name="equal" format="2">
  <advance width="626"/>
  <unicode hex="003D"/>
  <outline>
    <contour>
      <point x="23" y="300" type="line"/>
      <point x="-12" y="99" type="line"/>
      <point x="574" y="99" type="line"/>
      <point x="609" y="300" type="line"/>
    </contour>
    <contour>
      <point x="73" y="580" type="line"/>
      <point x="37" y="379" type="line"/>
      <point x="623" y="379" type="line"/>
      <point x="659" y="580" type="line"/>
    </contour>
  </outline>
</glyph>
<glyph name="question" format="2">
  <advance width="538"/>
  <unicode hex="003F"/>
  <outline>
    <contour>
      <point x="359" y="773" type="curve" smooth="yes"/>
      <point x="180" y="773"/>
      <point x="81" y="667"/>
      <point x="65" y="548" type="curve"/>
      <point x="274" y="548" type="line"/>
      <point x="278" y="572"/>
      <point x="292" y="593"/>
      <point x="321" y="593" type="curve" smooth="yes"/>
      <point x="340" y="593"/>
      <point x="353" y="580"/>
      <point x="349" y="556" type="curve" smooth="yes"/>
      <point x="344" y="513"/>
      <point x="294" y="498"/>
      <point x="217" y="498" type="curve" smooth="yes"/>
      <point x="133" y="498" type="line"/>
      <point x="102" y="286" type="line"/>
      <point x="298" y="286" type="line"/>
      <point x="316" y="357" type="line"/>
      <point x="444" y="360"/>
      <point x="545" y="436"/>
      <point x="566" y="555" type="curve" smooth="yes"/>
      <point x="592" y="702"/>
      <point x="501" y="773"/>
    </contour>
    <component base="period" xOffset="42"/>
  </outline>
</glyph>
<glyph name="A" format="2">
  <advance width="773"/>
  <unicode hex="0041"/>
  <anchor x="723" y="0" name="ogonek"/>
  <anchor x="463" y="711" name="top"/>
  <outline>
    <contour>
      <point x="590" y="708" type="line"/>
      <point x="334" y="708" type="line"/>
      <point x="-50" y="0" type="line"/>
      <point x="183" y="0" type="line"/>
      <point x="481" y="593" type="line"/>
      <point x="402" y="593" type="line"/>
      <point x="489" y="0" type="line"/>
      <point x="723" y="0" type="line"/>
    </contour>
    <contour>
      <point x="169" y="274" type="line"/>
      <point x="83" y="107" type="line"/>
      <point x="603" y="107" type="line"/>
      <point x="578" y="274" type="line"/>
    </contour>
  </outline>
</glyph>
<glyph name="B" format="2">
  <advance width="684"/>
  <unicode hex="0042"/>
  <outline>
    <contour>
      <point x="458" y="516"/>
      <point x="452" y="481" type="curve" smooth="yes"/>
      <point x="446" y="447"/>
      <point x="424" y="432"/>
      <point x="384" y="432" type="curve" smooth="yes"/>
      <point x="298" y="432" type="line"/>
      <point x="316" y="532" type="line"/>
      <point x="402" y="532" type="line" smooth="yes"/>
      <point x="442" y="532"/>
    </contour>
    <contour>
      <point x="622" y="70"/>
      <point x="643" y="194" type="curve" smooth="yes"/>
      <point x="660" y="285"/>
      <point x="609" y="364"/>
      <point x="496" y="369" type="curve"/>
      <point x="477" y="357" type="line"/>
      <point x="575" y="352"/>
      <point x="667" y="416"/>
      <point x="686" y="524" type="curve" smooth="yes"/>
      <point x="707" y="647"/>
      <point x="627" y="708"/>
      <point x="486" y="708" type="curve" smooth="yes"/>
      <point x="125" y="708" type="line"/>
      <point x="0" y="0" type="line"/>
      <point x="371" y="0" type="line" smooth="yes"/>
      <point x="525" y="0"/>
    </contour>
    <contour>
      <point x="428" y="261"/>
      <point x="422" y="227" type="curve" smooth="yes"/>
      <point x="416" y="192"/>
      <point x="395" y="178"/>
      <point x="355" y="178" type="curve" smooth="yes"/>
      <point x="254" y="178" type="line"/>
      <point x="271" y="278" type="line"/>
      <point x="372" y="278" type="line" smooth="yes"/>
      <point x="412" y="278"/>
    </contour>
  </outline>
</glyph>
<glyph name="C" format="2">
  <advance width="753"/>
  <unicode hex="0043"/>
  <anchor x="327" y="0" name="bottom"/>
  <anchor x="453" y="711" name="top"/>
  <outline>
    <contour>
      <point x="80" y="566"/>
      <point x="43" y="355" type="curve"/>
      <point x="6" y="144"/>
      <point x="112" y="-5"/>
      <point x="329" y="-5" type="curve"/>
      <point x="516" y="-5"/>
      <point x="663" y="107"/>
      <point x="722" y="274" type="curve"/>
      <point x="488" y="274" type="line"/>
      <point x="458" y="227"/>
      <point x="412" y="200"/>
      <point x="362" y="200" type="curve"/>
      <point x="287" y="200"/>
      <point x="251" y="261"/>
      <point x="268" y="355" type="curve"/>
      <point x="284" y="449"/>
      <point x="341" y="510"/>
      <point x="416" y="510" type="curve"/>
      <point x="466" y="510"/>
      <point x="503" y="483"/>
      <point x="516" y="436" type="curve"/>
      <point x="750" y="436" type="line"/>
      <point x="751" y="603"/>
      <point x="643" y="715"/>
      <point x="456" y="715" type="curve"/>
      <point x="239" y="715"/>
    </contour>
  </outline>
</glyph>
<glyph name="D" format="2">
  <advance width="743"/>
  <unicode hex="0044"/>
  <anchor x="435" y="711" name="top"/>
  <outline>
    <contour>
      <point x="646" y="708"/>
      <point x="420" y="708" type="curve" smooth="yes"/>
      <point x="125" y="708" type="line"/>
      <point x="0" y="0" type="line"/>
      <point x="295" y="0" type="line" smooth="yes"/>
      <point x="521" y="0"/>
      <point x="690" y="154"/>
      <point x="726" y="356" type="curve" smooth="yes"/>
      <point x="762" y="560"/>
    </contour>
    <contour>
      <point x="310" y="198" type="curve" smooth="yes"/>
      <point x="257" y="198" type="line"/>
      <point x="313" y="514" type="line"/>
      <point x="366" y="514" type="line" smooth="yes"/>
      <point x="464" y="514"/>
      <point x="519" y="459"/>
      <point x="501" y="356" type="curve" smooth="yes"/>
      <point x="483" y="253"/>
      <point x="408" y="198"/>
    </contour>
  </outline>
</glyph>
<glyph name="E" format="2">
  <advance width="556"/>
  <unicode hex="0045"/>
  <anchor x="232" y="0" name="bottom"/>
  <anchor x="472" y="0" name="ogonek"/>
  <anchor x="358" y="711" name="top"/>
  <outline>
    <contour>
      <point x="566" y="532" type="line"/>
      <point x="597" y="708" type="line"/>
      <point x="125" y="708" type="line"/>
      <point x="0" y="0" type="line"/>
      <point x="472" y="0" type="line"/>
      <point x="503" y="177" type="line"/>
      <point x="253" y="177" type="line"/>
      <point x="271" y="277" type="line"/>
      <point x="491" y="277" type="line"/>
      <point x="521" y="444" type="line"/>
      <point x="301" y="444" type="line"/>
      <point x="316" y="532" type="line"/>
    </contour>
  </outline>
</glyph>
<glyph name="H" format="2">
  <advance width="755"/>
  <unicode hex="0048"/>
  <outline>
    <contour>
      <point x="125" y="708" type="line"/>
      <point x="0" y="0" type="line"/>
      <point x="222" y="0" type="line"/>
      <point x="347" y="708" type="line"/>
    </contour>
    <contour>
      <point x="558" y="708" type="line"/>
      <point x="433" y="0" type="line"/>
      <point x="655" y="0" type="line"/>
      <point x="780" y="708" type="line"/>
    </contour>
    <contour>
      <point x="282" y="453" type="line"/>
      <point x="251" y="276" type="line"/>
      <point x="504" y="276" type="line"/>
      <point x="535" y="453" type="line"/>
    </contour>
  </outline>
</glyph>
<glyph name="I" format="2">
  <advance width="322"/>
  <unicode hex="0049"/>
  <anchor x="222" y="0" name="ogonek"/>
  <anchor x="238" y="711" name="top"/>
  <outline>
    <contour>
      <point x="125" y="708" type="line"/>
      <point x="0" y="0" type="line"/>
      <point x="222" y="0" type="line"/>
      <point x="347" y="708" type="line"/>
    </contour>
  </outline>
</glyph>
<glyph name="K" format="2">
  <advance width="755"/>
  <unicode hex="004B"/>
  <anchor x="324" y="0" name="bottom"/>
  <anchor x="450" y="711" name="top"/>
  <outline>
    <contour>
      <point x="125" y="708" type="line"/>
      <point x="0" y="0" type="line"/>
      <point x="222" y="0" type="line"/>
      <point x="347" y="708" type="line"/>
    </contour>
    <contour>
      <point x="550" y="708" type="line"/>
      <point x="251" y="359" type="line"/>
      <point x="428" y="0" type="line"/>
      <point x="692" y="0" type="line"/>
      <point x="493" y="375" type="line"/>
      <point x="461" y="329" type="line"/>
      <point x="801" y="708" type="line"/>
    </contour>
  </outline>
</glyph>
<glyph name="M" format="2">
  <advance width="951"/>
  <unicode hex="004D"/>
  <outline>
    <contour>
      <point x="125" y="708" type="line"/>
      <point x="0" y="0" type="line"/>
      <point x="222" y="0" type="line"/>
      <point x="324" y="579" type="line"/>
      <point x="257" y="564" type="line"/>
      <point x="331" y="0" type="line"/>
      <point x="521" y="0" type="line"/>
      <point x="795" y="564" type="line"/>
      <point x="732" y="579" type="line"/>
      <point x="630" y="0" type="line"/>
      <point x="851" y="0" type="line"/>
      <point x="976" y="708" type="line"/>
      <point x="705" y="708" type="line"/>
      <point x="402" y="139" type="line"/>
      <point x="502" y="159" type="line"/>
      <point x="397" y="708" type="line"/>
    </contour>
  </outline>
</glyph>
<glyph name="P" format="2">
  <advance width="649"/>
  <unicode hex="0050"/>
  <outline>
    <contour>
      <point x="356" y="400" type="curve"/>
      <point x="293" y="400" type="line"/>
      <point x="316" y="530" type="line"/>
      <point x="379" y="530" type="line" smooth="yes"/>
      <point x="429" y="530"/>
      <point x="443" y="504"/>
      <point x="436" y="465" type="curve"/>
      <point x="429" y="426"/>
      <point x="406" y="400"/>
    </contour>
    <contour>
      <point x="638" y="334"/>
      <point x="661" y="465" type="curve"/>
      <point x="686" y="608"/>
      <point x="613" y="708"/>
      <point x="435" y="708" type="curve" smooth="yes"/>
      <point x="125" y="708" type="line"/>
      <point x="0" y="0" type="line"/>
      <point x="222" y="0" type="line"/>
      <point x="262" y="225" type="line"/>
      <point x="350" y="225" type="line" smooth="yes"/>
      <point x="528" y="225"/>
    </contour>
  </outline>
</glyph>
<glyph name="Q" format="2">
  <advance width="788"/>
  <unicode hex="0051"/>
  <outline>
    <contour>
      <point x="571" y="127" type="line"/>
      <point x="355" y="98" type="line"/>
      <point x="446" y="-115" type="line"/>
      <point x="708" y="-115" type="line"/>
    </contour>
    <component base="O"/>
  </outline>
</glyph>
<glyph name="R" format="2">
  <advance width="670"/>
  <unicode hex="0052"/>
  <anchor x="275" y="0" name="bottom"/>
  <anchor x="401" y="711" name="top"/>
  <outline>
    <contour>
      <point x="462" y="498"/>
      <point x="456" y="462" type="curve" smooth="yes"/>
      <point x="448" y="420"/>
      <point x="423" y="402"/>
      <point x="381" y="402" type="curve" smooth="yes"/>
      <point x="293" y="402" type="line"/>
      <point x="314" y="522" type="line"/>
      <point x="402" y="522" type="line" smooth="yes"/>
      <point x="444" y="522"/>
    </contour>
    <contour>
      <point x="455" y="708" type="curve" smooth="yes"/>
      <point x="125" y="708" type="line"/>
      <point x="0" y="0" type="line"/>
      <point x="222" y="0" type="line"/>
      <point x="267" y="254" type="line"/>
      <point x="375" y="254" type="line"/>
      <point x="553" y="254"/>
      <point x="661" y="352"/>
      <point x="683" y="476" type="curve"/>
      <point x="706" y="606"/>
      <point x="633" y="708"/>
    </contour>
    <contour>
      <point x="484" y="295" type="line"/>
      <point x="253" y="295" type="line"/>
      <point x="356" y="0" type="line"/>
      <point x="600" y="0" type="line"/>
    </contour>
  </outline>
</glyph>
<glyph name="T" format="2">
  <advance width="616"/>
  <unicode hex="0054"/>
  <anchor x="253" y="0" name="bottom"/>
  <anchor x="379" y="711" name="top"/>
  <outline>
    <contour>
      <point x="85" y="708" type="line"/>
      <point x="54" y="532" type="line"/>
      <point x="240" y="532" type="line"/>
      <point x="146" y="0" type="line"/>
      <point x="368" y="0" type="line"/>
      <point x="462" y="532" type="line"/>
      <point x="650" y="532" type="line"/>
      <point x="681" y="708" type="line"/>
    </contour>
  </outline>
</glyph>
<glyph name="U" format="2">
  <advance width="719"/>
  <unicode hex="0055"/>
  <anchor x="400" y="3" name="ogonek"/>
  <anchor x="436" y="711" name="top"/>
  <outline>
    <contour>
      <point x="121" y="708" type="line"/>
      <point x="51" y="309" type="line" smooth="yes"/>
      <point x="14" y="100"/>
      <point x="128" y="-7"/>
      <point x="305" y="-7" type="curve" smooth="yes"/>
      <point x="487" y="-7"/>
      <point x="640" y="94"/>
      <point x="678" y="309" type="curve" smooth="yes"/>
      <point x="748" y="708" type="line"/>
      <point x="527" y="708" type="line"/>
      <point x="457" y="309" type="line" smooth="yes"/>
      <point x="446" y="248"/>
      <point x="411" y="203"/>
      <point x="344" y="203" type="curve" smooth="yes"/>
      <point x="277" y="203"/>
      <point x="261" y="248"/>
      <point x="272" y="309" type="curve" smooth="yes"/>
      <point x="342" y="708" type="line"/>
    </contour>
  </outline>
</glyph>
<glyph name="V" format="2">
  <advance width="763"/>
  <unicode hex="0056"/>
  <outline>
    <contour>
      <point x="75" y="708" type="line"/>
      <point x="188" y="0" type="line"/>
      <point x="475" y="0" type="line"/>
      <point x="838" y="708" type="line"/>
      <point x="602" y="708" type="line"/>
      <point x="371" y="221" type="line"/>
      <point x="311" y="708" type="line"/>
    </contour>
  </outline>
</glyph>
<glyph name="W" format="2">
  <advance width="1100"/>
  <unicode hex="0057"/>
  <outline>
    <contour>
      <point x="105" y="708" type="line"/>
      <point x="142" y="0" type="line"/>
      <point x="418" y="0" type="line"/>
      <point x="590" y="451" type="line"/>
      <point x="570" y="451" type="line"/>
      <point x="582" y="0" type="line"/>
      <point x="858" y="0" type="line"/>
      <point x="1145" y="708" type="line"/>
      <point x="906" y="708" type="line"/>
      <point x="715" y="112" type="line"/>
      <point x="769" y="112" type="line"/>
      <point x="746" y="708" type="line"/>
      <point x="504" y="708" type="line"/>
      <point x="271" y="112" type="line"/>
      <point x="325" y="112" type="line"/>
      <point x="344" y="708" type="line"/>
    </contour>
  </outline>
</glyph>
<glyph name="Y" format="2">
  <advance width="730"/>
  <unicode hex="0059"/>
  <anchor x="442" y="711" name="top"/>
  <outline>
    <contour>
      <point x="75" y="708" type="line"/>
      <point x="242" y="215" type="line"/>
      <point x="204" y="0" type="line"/>
      <point x="426" y="0" type="line"/>
      <point x="464" y="215" type="line"/>
      <point x="805" y="708" type="line"/>
      <point x="555" y="708" type="line"/>
      <point x="342" y="368" type="line"/>
      <point x="422" y="368" type="line"/>
      <point x="329" y="708" type="line"/>
    </contour>
  </outline>
</glyph>
<glyph name="Z" format="2">
  <advance width="630"/>
  <unicode hex="005A"/>
  <anchor x="391" y="711" name="top"/>
  <outline>
    <contour>
      <point x="626" y="541" type="line"/>
      <point x="655" y="708" type="line"/>
      <point x="125" y="708" type="line"/>
      <point x="94" y="532" type="line"/>
      <point x="374" y="532" type="line"/>
      <point x="30" y="167" type="line"/>
      <point x="0" y="0" type="line"/>
      <point x="530" y="0" type="line"/>
      <point x="561" y="177" type="line"/>
      <point x="277" y="177" type="line"/>
    </contour>
  </outline>
</glyph>
<glyph name="bracketleft" format="2">
  <advance width="533"/>
  <unicode hex="005B"/>
  <outline>
    <contour>
      <point x="203" y="895" type="line"/>
      <point x="5" y="-229" type="line"/>
      <point x="387" y="-229" type="line"/>
      <point x="418" y="-51" type="line"/>
      <point x="244" y="-51" type="line"/>
      <point x="380" y="717" type="line"/>
      <point x="554" y="717" type="line"/>
      <point x="585" y="895" type="line"/>
    </contour>
  </outline>
</glyph>
<glyph name="backslash" format="2">
  <advance width="592"/>
  <unicode hex="005C"/>
  <outline>
    <contour>
      <point x="437" y="-198" type="line"/>
      <point x="401" y="955" type="line"/>
      <point x="189" y="955" type="line"/>
      <point x="225" y="-198" type="line"/>
    </contour>
  </outline>
</glyph>
<glyph name="asciicircum" format="2">
  <advance width="758"/>
  <unicode hex="005E"/>
  <outline>
    <contour>
      <point x="411" y="460" type="line"/>
      <point x="492" y="162" type="line"/>
      <point x="712" y="162" type="line"/>
      <point x="565" y="711" type="line"/>
      <point x="347" y="711" type="line"/>
      <point x="4" y="162" type="line"/>
      <point x="224" y="162" type="line"/>
    </contour>
  </outline>
</glyph>
<glyph name="underscore" format="2">
  <advance width="764"/>
  <unicode hex="005F"/>
  <outline>
    <contour>
      <point x="-8" y="-42" type="line"/>
      <point x="-46" y="-258" type="line"/>
      <point x="629" y="-258" type="line"/>
      <point x="667" y="-42" type="line"/>
    </contour>
  </outline>
</glyph>
<glyph name="grave" format="2">
  <advance width="324"/>
  <unicode hex="0060"/>
  <anchor x="191" y="564" name="_top"/>
  <outline>
    <contour>
      <point x="112" y="860" type="line"/>
      <point x="83" y="696" type="line"/>
      <point x="325" y="602" type="line"/>
      <point x="352" y="750" type="line"/>
    </contour>
  </outline>
</glyph>
<glyph name="a" format="2">
  <advance width="680"/>
  <unicode hex="0061"/>
  <anchor x="580" y="0" name="ogonek"/>
  <anchor x="397" y="564" name="top"/>
  <outline>
    <contour>
      <point x="52" y="464"/>
      <point x="20" y="282" type="curve"/>
      <point x="-12" y="100"/>
      <point x="72" y="-7"/>
      <point x="202" y="-7" type="curve"/>
      <point x="277" y="-7"/>
      <point x="337" y="26"/>
      <point x="373" y="77" type="curve"/>
      <point x="359" y="0" type="line"/>
      <point x="580" y="0" type="line"/>
      <point x="680" y="564" type="line"/>
      <point x="459" y="564" type="line"/>
      <point x="445" y="487" type="line"/>
      <point x="427" y="538"/>
      <point x="379" y="571"/>
      <point x="304" y="571" type="curve"/>
      <point x="174" y="571"/>
    </contour>
    <contour>
      <point x="420" y="344"/>
      <point x="409" y="282" type="curve"/>
      <point x="398" y="220"/>
      <point x="356" y="187"/>
      <point x="310" y="187" type="curve"/>
      <point x="264" y="187"/>
      <point x="234" y="220"/>
      <point x="245" y="282" type="curve"/>
      <point x="256" y="344"/>
      <point x="298" y="377"/>
      <point x="344" y="377" type="curve"/>
      <point x="390" y="377"/>
    </contour>
  </outline>
</glyph>
<glyph name="d" format="2">
  <advance width="680"/>
  <unicode hex="0064"/>
  <anchor x="711" y="740" name="topright"/>
  <outline>
    <contour>
      <point x="52" y="464"/>
      <point x="20" y="282" type="curve"/>
      <point x="-12" y="100"/>
      <point x="72" y="-7"/>
      <point x="202" y="-7" type="curve"/>
      <point x="277" y="-7"/>
      <point x="336" y="26"/>
      <point x="372" y="77" type="curve"/>
      <point x="358" y="0" type="line"/>
      <point x="580" y="0" type="line"/>
      <point x="711" y="740" type="line"/>
      <point x="489" y="740" type="line"/>
      <point x="444" y="487" type="line"/>
      <point x="426" y="538"/>
      <point x="379" y="571"/>
      <point x="304" y="571" type="curve"/>
      <point x="174" y="571"/>
    </contour>
    <contour>
      <point x="420" y="344"/>
      <point x="409" y="282" type="curve"/>
      <point x="398" y="220"/>
      <point x="356" y="187"/>
      <point x="310" y="187" type="curve"/>
      <point x="264" y="187"/>
      <point x="234" y="220"/>
      <point x="245" y="282" type="curve"/>
      <point x="256" y="344"/>
      <point x="298" y="377"/>
      <point x="344" y="377" type="curve"/>
      <point x="390" y="377"/>
    </contour>
  </outline>
</glyph>
<glyph name="e" format="2">
  <advance width="616"/>
  <unicode hex="0065"/>
  <guideline x="612" y="-221" angle="0"/>
  <anchor x="257" y="-7" name="bottom"/>
  <anchor x="355" y="8" name="ogonek"/>
  <anchor x="372" y="564" name="top"/>
  <outline>
    <contour>
      <point x="225" y="334" type="line"/>
      <point x="209" y="243" type="line"/>
      <point x="586" y="243" type="line"/>
      <point x="591" y="257"/>
      <point x="594" y="273"/>
      <point x="597" y="287" type="curve"/>
      <point x="628" y="464"/>
      <point x="528" y="571"/>
      <point x="359" y="571" type="curve"/>
      <point x="190" y="571"/>
      <point x="52" y="462"/>
      <point x="20" y="282" type="curve"/>
      <point x="-12" y="102"/>
      <point x="88" y="-7"/>
      <point x="257" y="-7" type="curve" smooth="yes"/>
      <point x="399" y="-7"/>
      <point x="525" y="83"/>
      <point x="570" y="203" type="curve"/>
      <point x="335" y="203" type="line"/>
      <point x="324" y="186"/>
      <point x="306" y="170"/>
      <point x="277" y="170" type="curve" smooth="yes"/>
      <point x="244" y="170"/>
      <point x="220" y="189"/>
      <point x="232" y="258" type="curve" smooth="yes"/>
      <point x="241" y="311" type="line" smooth="yes"/>
      <point x="252" y="370"/>
      <point x="283" y="397"/>
      <point x="328" y="397" type="curve"/>
      <point x="361" y="397"/>
      <point x="388" y="379"/>
      <point x="380" y="334" type="curve"/>
    </contour>
  </outline>
</glyph>
<glyph name="f" format="2">
  <advance width="385"/>
  <unicode hex="0066"/>
  <outline>
    <contour>
      <point x="119" y="559" type="curve" smooth="yes"/>
      <point x="20" y="0" type="line"/>
      <point x="242" y="0" type="line"/>
      <point x="337" y="539" type="line" smooth="yes"/>
      <point x="347" y="595"/>
      <point x="372" y="611"/>
      <point x="432" y="604" type="curve"/>
      <point x="465" y="793" type="line"/>
      <point x="275" y="810"/>
      <point x="148" y="722"/>
    </contour>
    <contour>
      <point x="60" y="564" type="line"/>
      <point x="27" y="379" type="line"/>
      <point x="392" y="379" type="line"/>
      <point x="425" y="564" type="line"/>
    </contour>
  </outline>
</glyph>
<glyph name="g" format="2">
  <advance width="680"/>
  <unicode hex="0067"/>
  <anchor x="397" y="564" name="top"/>
  <outline>
    <contour>
      <point x="304" y="571" type="curve"/>
      <point x="174" y="571"/>
      <point x="52" y="464"/>
      <point x="20" y="282" type="curve"/>
      <point x="-12" y="100"/>
      <point x="72" y="-7"/>
      <point x="202" y="-7" type="curve"/>
      <point x="277" y="-7"/>
      <point x="337" y="26"/>
      <point x="373" y="77" type="curve"/>
      <point x="361" y="10" type="line"/>
      <point x="347" y="-69"/>
      <point x="306" y="-85"/>
      <point x="261" y="-85" type="curve" smooth="yes"/>
      <point x="220" y="-85"/>
      <point x="198" y="-70"/>
      <point x="197" y="-41" type="curve"/>
      <point x="-21" y="-41" type="line"/>
      <point x="-31" y="-184"/>
      <point x="59" y="-277"/>
      <point x="243" y="-277" type="curve" smooth="yes"/>
      <point x="454" y="-277"/>
      <point x="556" y="-139"/>
      <point x="582" y="10" type="curve"/>
      <point x="680" y="564" type="line"/>
      <point x="459" y="564" type="line"/>
      <point x="445" y="487" type="line"/>
      <point x="427" y="538"/>
      <point x="379" y="571"/>
    </contour>
    <contour>
      <point x="420" y="344"/>
      <point x="409" y="282" type="curve"/>
      <point x="398" y="220"/>
      <point x="356" y="187"/>
      <point x="310" y="187" type="curve"/>
      <point x="264" y="187"/>
      <point x="234" y="220"/>
      <point x="245" y="282" type="curve"/>
      <point x="256" y="344"/>
      <point x="298" y="377"/>
      <point x="344" y="377" type="curve"/>
      <point x="390" y="377"/>
    </contour>
  </outline>
</glyph>
<glyph name="h" format="2">
  <advance width="697"/>
  <unicode hex="0068"/>
  <outline>
    <contour>
      <point x="131" y="740" type="line"/>
      <point x="0" y="0" type="line"/>
      <point x="222" y="0" type="line"/>
      <point x="353" y="740" type="line"/>
    </contour>
    <contour>
      <point x="433" y="299" type="curve" smooth="yes"/>
      <point x="380" y="0" type="line"/>
      <point x="601" y="0" type="line"/>
      <point x="659" y="327" type="line" smooth="yes"/>
      <point x="685" y="473"/>
      <point x="625" y="568"/>
      <point x="495" y="568" type="curve" smooth="yes"/>
      <point x="395" y="568"/>
      <point x="324" y="511"/>
      <point x="287" y="451" type="curve"/>
      <point x="275" y="299" type="line"/>
      <point x="285" y="353"/>
      <point x="320" y="386"/>
      <point x="369" y="386" type="curve" smooth="yes"/>
      <point x="417" y="386"/>
      <point x="443" y="353"/>
    </contour>
  </outline>
</glyph>
<glyph name="i" format="2">
  <advance width="322"/>
  <unicode hex="0069"/>
  <anchor x="222" y="-1" name="ogonek"/>
  <outline>
    <contour>
      <point x="100" y="564" type="line"/>
      <point x="0" y="0" type="line"/>
      <point x="222" y="0" type="line"/>
      <point x="322" y="564" type="line"/>
    </contour>
    <contour>
      <point x="141" y="609"/>
      <point x="220" y="609" type="curve" smooth="yes"/>
      <point x="298" y="609"/>
      <point x="355" y="657"/>
      <point x="366" y="718" type="curve" smooth="yes"/>
      <point x="377" y="780"/>
      <point x="336" y="829"/>
      <point x="258" y="829" type="curve" smooth="yes"/>
      <point x="179" y="829"/>
      <point x="122" y="780"/>
      <point x="111" y="718" type="curve" smooth="yes"/>
      <point x="100" y="657"/>
    </contour>
  </outline>
</glyph>
<glyph name="j" format="2">
  <advance width="320"/>
  <unicode hex="006A"/>
  <outline>
    <contour>
      <point x="139" y="609"/>
      <point x="218" y="609" type="curve" smooth="yes"/>
      <point x="296" y="609"/>
      <point x="353" y="657"/>
      <point x="364" y="718" type="curve" smooth="yes"/>
      <point x="375" y="780"/>
      <point x="334" y="829"/>
      <point x="256" y="829" type="curve" smooth="yes"/>
      <point x="177" y="829"/>
      <point x="120" y="780"/>
      <point x="109" y="718" type="curve" smooth="yes"/>
      <point x="98" y="657"/>
    </contour>
    <contour>
      <point x="322" y="564" type="line"/>
      <point x="100" y="564" type="line"/>
      <point x="-7" y="-43" type="line" smooth="yes"/>
      <point x="-12" y="-69"/>
      <point x="-26" y="-81"/>
      <point x="-55" y="-81" type="curve" smooth="yes"/>
      <point x="-98" y="-81" type="line"/>
      <point x="-131" y="-270" type="line"/>
      <point x="-57" y="-270" type="line" smooth="yes"/>
      <point x="75" y="-270"/>
      <point x="185" y="-214"/>
      <point x="215" y="-39" type="curve" smooth="yes"/>
    </contour>
  </outline>
</glyph>
<glyph name="k" format="2">
  <advance width="676"/>
  <unicode hex="006B"/>
  <anchor x="297" y="0" name="bottom"/>
  <outline>
    <contour>
      <point x="131" y="740" type="line"/>
      <point x="0" y="0" type="line"/>
      <point x="222" y="0" type="line"/>
      <point x="353" y="740" type="line"/>
    </contour>
    <contour>
      <point x="463" y="564" type="line"/>
      <point x="233" y="291" type="line"/>
      <point x="361" y="0" type="line"/>
      <point x="626" y="0" type="line"/>
      <point x="449" y="298" type="line"/>
      <point x="451" y="271" type="line"/>
      <point x="721" y="564" type="line"/>
    </contour>
  </outline>
</glyph>
<glyph name="m" format="2">
  <advance width="1076"/>
  <unicode hex="006D"/>
  <outline>
    <contour>
      <point x="100" y="564" type="line"/>
      <point x="0" y="0" type="line"/>
      <point x="222" y="0" type="line"/>
      <point x="322" y="564" type="line"/>
    </contour>
    <contour>
      <point x="433" y="299" type="curve" smooth="yes"/>
      <point x="380" y="0" type="line"/>
      <point x="601" y="0" type="line"/>
      <point x="659" y="327" type="line" smooth="yes"/>
      <point x="685" y="473"/>
      <point x="616" y="568"/>
      <point x="485" y="568" type="curve" smooth="yes"/>
      <point x="390" y="568"/>
      <point x="323" y="516"/>
      <point x="289" y="461" type="curve"/>
      <point x="275" y="299" type="line"/>
      <point x="283" y="347"/>
      <point x="319" y="376"/>
      <point x="368" y="376" type="curve" smooth="yes"/>
      <point x="416" y="376"/>
      <point x="441" y="347"/>
    </contour>
    <contour>
      <point x="812" y="299" type="curve" smooth="yes"/>
      <point x="759" y="0" type="line"/>
      <point x="980" y="0" type="line"/>
      <point x="1038" y="327" type="line" smooth="yes"/>
      <point x="1064" y="473"/>
      <point x="999" y="568"/>
      <point x="853" y="568" type="curve" smooth="yes"/>
      <point x="751" y="568"/>
      <point x="665" y="497"/>
      <point x="621" y="427" type="curve"/>
      <point x="654" y="299" type="line"/>
      <point x="662" y="347"/>
      <point x="698" y="376"/>
      <point x="747" y="376" type="curve" smooth="yes"/>
      <point x="795" y="376"/>
      <point x="820" y="347"/>
    </contour>
  </outline>
</glyph>
<glyph name="o" format="2">
  <advance width="636"/>
  <unicode hex="006F"/>
  <anchor x="369" y="571" name="top"/>
  <outline>
    <contour>
      <point x="267" y="-7" type="curve" smooth="yes"/>
      <point x="470" y="-7"/>
      <point x="622" y="134"/>
      <point x="622" y="334" type="curve" smooth="yes"/>
      <point x="622" y="478"/>
      <point x="519" y="571"/>
      <point x="369" y="571" type="curve" smooth="yes"/>
      <point x="166" y="571"/>
      <point x="14" y="427"/>
      <point x="14" y="229" type="curve" smooth="yes"/>
      <point x="14" y="85"/>
      <point x="117" y="-7"/>
    </contour>
    <contour>
      <point x="301" y="185" type="curve"/>
      <point x="267" y="185"/>
      <point x="242" y="206"/>
      <point x="242" y="253" type="curve" smooth="yes"/>
      <point x="242" y="310"/>
      <point x="274" y="379"/>
      <point x="335" y="379" type="curve"/>
      <point x="368" y="379"/>
      <point x="394" y="358"/>
      <point x="394" y="311" type="curve" smooth="yes"/>
      <point x="394" y="254"/>
      <point x="362" y="185"/>
    </contour>
  </outline>
</glyph>
<glyph name="p" format="2">
  <advance width="680"/>
  <unicode hex="0070"/>
  <outline>
    <contour>
      <point x="344" y="538"/>
      <point x="308" y="487" type="curve"/>
      <point x="322" y="564" type="line"/>
      <point x="100" y="564" type="line"/>
      <point x="-47" y="-270" type="line"/>
      <point x="175" y="-270" type="line"/>
      <point x="236" y="77" type="line"/>
      <point x="254" y="26"/>
      <point x="301" y="-7"/>
      <point x="376" y="-7" type="curve"/>
      <point x="506" y="-7"/>
      <point x="628" y="100"/>
      <point x="660" y="282" type="curve"/>
      <point x="692" y="464"/>
      <point x="608" y="571"/>
      <point x="478" y="571" type="curve"/>
      <point x="403" y="571"/>
    </contour>
    <contour>
      <point x="446" y="344"/>
      <point x="435" y="282" type="curve"/>
      <point x="424" y="220"/>
      <point x="382" y="187"/>
      <point x="336" y="187" type="curve"/>
      <point x="290" y="187"/>
      <point x="260" y="220"/>
      <point x="271" y="282" type="curve"/>
      <point x="282" y="344"/>
      <point x="324" y="377"/>
      <point x="370" y="377" type="curve"/>
      <point x="416" y="377"/>
    </contour>
  </outline>
</glyph>
<glyph name="r" format="2">
  <advance width="467"/>
  <unicode hex="0072"/>
  <anchor x="105" y="0" name="bottom"/>
  <anchor x="325" y="564" name="top"/>
  <outline>
    <contour>
      <point x="219" y="291" type="curve"/>
      <point x="263" y="231" type="line"/>
      <point x="277" y="308"/>
      <point x="323" y="331"/>
      <point x="403" y="331" type="curve" smooth="yes"/>
      <point x="466" y="331" type="line"/>
      <point x="507" y="568" type="line"/>
      <point x="377" y="568"/>
      <point x="243" y="428"/>
    </contour>
    <contour>
      <point x="100" y="564" type="line"/>
      <point x="0" y="0" type="line"/>
      <point x="222" y="0" type="line"/>
      <point x="322" y="564" type="line"/>
    </contour>
  </outline>
</glyph>
<glyph name="s" format="2">
  <advance width="579"/>
  <unicode hex="0073"/>
  <anchor x="252" y="0" name="bottom"/>
  <anchor x="352" y="564" name="top"/>
  <outline>
    <contour>
      <point x="258" y="-7" type="curve" smooth="yes"/>
      <point x="412" y="-7"/>
      <point x="526" y="58"/>
      <point x="526" y="177" type="curve" smooth="yes"/>
      <point x="526" y="350"/>
      <point x="244" y="330"/>
      <point x="244" y="391" type="curve" smooth="yes"/>
      <point x="244" y="408"/>
      <point x="262" y="417"/>
      <point x="284" y="417" type="curve"/>
      <point x="320" y="417"/>
      <point x="339" y="399"/>
      <point x="339" y="369" type="curve"/>
      <point x="536" y="369" type="line"/>
      <point x="540" y="480"/>
      <point x="451" y="571"/>
      <point x="285" y="571" type="curve" smooth="yes"/>
      <point x="136" y="571"/>
      <point x="40" y="492"/>
      <point x="40" y="391" type="curve" smooth="yes"/>
      <point x="40" y="205"/>
      <point x="318" y="237"/>
      <point x="318" y="173" type="curve" smooth="yes"/>
      <point x="318" y="158"/>
      <point x="299" y="146"/>
      <point x="276" y="146" type="curve" smooth="yes"/>
      <point x="242" y="146"/>
      <point x="218" y="161"/>
      <point x="219" y="195" type="curve"/>
      <point x="6" y="195" type="line"/>
      <point x="-14" y="75"/>
      <point x="96" y="-7"/>
    </contour>
  </outline>
</glyph>
<glyph name="t" format="2">
  <advance width="436"/>
  <unicode hex="0074"/>
  <anchor x="177" y="0" name="bottom"/>
  <anchor x="399" y="942" name="topright"/>
  <outline>
    <contour>
      <point x="159" y="700" type="line"/>
      <point x="76" y="231" type="line" smooth="yes"/>
      <point x="45" y="56"/>
      <point x="135" y="0"/>
      <point x="267" y="0" type="curve" smooth="yes"/>
      <point x="351" y="0" type="line"/>
      <point x="385" y="189" type="line"/>
      <point x="332" y="189" type="line" smooth="yes"/>
      <point x="303" y="189"/>
      <point x="293" y="201"/>
      <point x="297" y="227" type="curve" smooth="yes"/>
      <point x="381" y="700" type="line"/>
    </contour>
    <contour>
      <point x="32" y="379" type="line"/>
      <point x="416" y="379" type="line"/>
      <point x="449" y="564" type="line"/>
      <point x="65" y="564" type="line"/>
    </contour>
  </outline>
</glyph>
<glyph name="u" format="2">
  <advance width="697"/>
  <unicode hex="0075"/>
  <anchor x="597" y="-3" name="ogonek"/>
  <anchor x="399" y="564" name="top"/>
  <outline>
    <contour>
      <point x="597" y="0" type="line"/>
      <point x="697" y="564" type="line"/>
      <point x="475" y="564" type="line"/>
      <point x="375" y="0" type="line"/>
    </contour>
    <contour>
      <point x="264" y="265" type="curve" smooth="yes"/>
      <point x="317" y="564" type="line"/>
      <point x="96" y="564" type="line"/>
      <point x="38" y="237" type="line" smooth="yes"/>
      <point x="12" y="91"/>
      <point x="72" y="-4"/>
      <point x="202" y="-4" type="curve" smooth="yes"/>
      <point x="302" y="-4"/>
      <point x="373" y="53"/>
      <point x="410" y="113" type="curve"/>
      <point x="422" y="265" type="line"/>
      <point x="412" y="211"/>
      <point x="377" y="178"/>
      <point x="328" y="178" type="curve" smooth="yes"/>
      <point x="280" y="178"/>
      <point x="254" y="211"/>
    </contour>
  </outline>
</glyph>
<glyph name="v" format="2">
  <advance width="671"/>
  <unicode hex="0076"/>
  <outline>
    <contour>
      <point x="295" y="564" type="line"/>
      <point x="59" y="564" type="line"/>
      <point x="147" y="0" type="line"/>
      <point x="424" y="0" type="line"/>
      <point x="712" y="564" type="line"/>
      <point x="476" y="564" type="line"/>
      <point x="323" y="211" type="line"/>
    </contour>
  </outline>
</glyph>
<glyph name="w" format="2">
  <advance width="903"/>
  <unicode hex="0077"/>
  <outline>
    <contour>
      <point x="49" y="564" type="line"/>
      <point x="82" y="0" type="line"/>
      <point x="332" y="0" type="line"/>
      <point x="496" y="409" type="line"/>
      <point x="456" y="409" type="line"/>
      <point x="472" y="0" type="line"/>
      <point x="722" y="0" type="line"/>
      <point x="956" y="564" type="line"/>
      <point x="751" y="564" type="line"/>
      <point x="596" y="72" type="line"/>
      <point x="648" y="72" type="line"/>
      <point x="626" y="564" type="line"/>
      <point x="389" y="564" type="line"/>
      <point x="198" y="72" type="line"/>
      <point x="250" y="72" type="line"/>
      <point x="269" y="564" type="line"/>
    </contour>
  </outline>
</glyph>
<glyph name="y" format="2">
  <advance width="677"/>
  <unicode hex="0079"/>
  <anchor x="389" y="564" name="top"/>
  <outline>
    <contour>
      <point x="40" y="564" type="line"/>
      <point x="180" y="28" type="line"/>
      <point x="-14" y="-270" type="line"/>
      <point x="229" y="-270" type="line"/>
      <point x="737" y="564" type="line"/>
      <point x="492" y="564" type="line"/>
      <point x="342" y="278" type="line"/>
      <point x="287" y="564" type="line"/>
    </contour>
  </outline>
</glyph>
<glyph name="z" format="2">
  <advance width="518"/>
  <unicode hex="007A"/>
  <anchor x="316" y="564" name="top"/>
  <outline>
    <contour>
      <point x="507" y="390" type="line"/>
      <point x="538" y="564" type="line"/>
      <point x="73" y="564" type="line"/>
      <point x="40" y="380" type="line"/>
      <point x="252" y="380" type="line"/>
      <point x="1" y="174" type="line"/>
      <point x="-30" y="0" type="line"/>
      <point x="448" y="0" type="line"/>
      <point x="481" y="184" type="line"/>
      <point x="246" y="184" type="line"/>
    </contour>
  </outline>
</glyph>
<glyph name="braceright" format="2">
  <advance width="484"/>
  <unicode hex="007D"/>
  <outline>
    <contour>
      <point x="417" y="242" type="curve"/>
      <point x="449" y="423" type="line"/>
      <point x="379" y="423"/>
      <point x="361" y="444"/>
      <point x="368" y="486" type="curve" smooth="yes"/>
      <point x="377" y="535"/>
      <point x="416" y="618"/>
      <point x="429" y="688" type="curve" smooth="yes"/>
      <point x="452" y="822"/>
      <point x="375" y="895"/>
      <point x="238" y="895" type="curve" smooth="yes"/>
      <point x="162" y="895" type="line"/>
      <point x="131" y="718" type="line"/>
      <point x="165" y="718" type="line" smooth="yes"/>
      <point x="209" y="718"/>
      <point x="220" y="697"/>
      <point x="214" y="664" type="curve" smooth="yes"/>
      <point x="207" y="623"/>
      <point x="173" y="533"/>
      <point x="163" y="477" type="curve" smooth="yes"/>
      <point x="150" y="401"/>
      <point x="174" y="347"/>
      <point x="246" y="333" type="curve"/>
      <point x="246" y="331" type="line"/>
      <point x="169" y="317"/>
      <point x="126" y="263"/>
      <point x="112" y="187" type="curve" smooth="yes"/>
      <point x="102" y="131"/>
      <point x="105" y="41"/>
      <point x="97" y="0" type="curve" smooth="yes"/>
      <point x="91" y="-33"/>
      <point x="73" y="-54"/>
      <point x="29" y="-54" type="curve" smooth="yes"/>
      <point x="-5" y="-54" type="line"/>
      <point x="-36" y="-231" type="line"/>
      <point x="40" y="-231" type="line" smooth="yes"/>
      <point x="177" y="-231"/>
      <point x="279" y="-158"/>
      <point x="303" y="-24" type="curve" smooth="yes"/>
      <point x="315" y="46"/>
      <point x="305" y="129"/>
      <point x="314" y="178" type="curve" smooth="yes"/>
      <point x="320" y="216"/>
      <point x="347" y="242"/>
    </contour>
  </outline>
</glyph>
<glyph name="asciitilde" format="2">
  <advance width="711"/>
  <unicode hex="007E"/>
  <outline>
    <contour>
      <point x="65" y="369"/>
      <point x="2" y="181" type="curve"/>
      <point x="166" y="181" type="line"/>
      <point x="183" y="230"/>
      <point x="202" y="250"/>
      <point x="238" y="250" type="curve" smooth="yes"/>
      <point x="297" y="250"/>
      <point x="342" y="183"/>
      <point x="438" y="183" type="curve" smooth="yes"/>
      <point x="554" y="183"/>
      <point x="658" y="259"/>
      <point x="720" y="447" type="curve"/>
      <point x="554" y="447" type="line"/>
      <point x="538" y="397"/>
      <point x="519" y="378"/>
      <point x="483" y="378" type="curve" smooth="yes"/>
      <point x="425" y="378"/>
      <point x="380" y="445"/>
      <point x="284" y="445" type="curve" smooth="yes"/>
      <point x="168" y="445"/>
    </contour>
  </outline>
</glyph>
<glyph name="cent" format="2">
  <advance width="579"/>
  <unicode hex="00A2"/>
  <outline>
    <contour>
      <point x="265" y="337"/>
      <point x="311" y="337" type="curve" smooth="yes"/>
      <point x="331" y="337"/>
      <point x="354" y="329"/>
      <point x="360" y="302" type="curve"/>
      <point x="563" y="302" type="line"/>
      <point x="578" y="443"/>
      <point x="470" y="514"/>
      <point x="341" y="514" type="curve" smooth="yes"/>
      <point x="172" y="514"/>
      <point x="45" y="423"/>
      <point x="15" y="254" type="curve"/>
      <point x="-15" y="83"/>
      <point x="80" y="-8"/>
      <point x="249" y="-8" type="curve" smooth="yes"/>
      <point x="378" y="-8"/>
      <point x="512" y="64"/>
      <point x="545" y="205" type="curve"/>
      <point x="342" y="205" type="line"/>
      <point x="332" y="180"/>
      <point x="301" y="170"/>
      <point x="281" y="170" type="curve" smooth="yes"/>
      <point x="235" y="170"/>
      <point x="218" y="201"/>
      <point x="227" y="253" type="curve"/>
      <point x="236" y="305"/>
    </contour>
    <contour>
      <point x="321" y="589" type="line"/>
      <point x="281" y="364" type="line"/>
      <point x="343" y="364" type="line"/>
      <point x="383" y="589" type="line"/>
    </contour>
    <contour>
      <point x="242" y="143" type="line"/>
      <point x="203" y="-83" type="line"/>
      <point x="265" y="-83" type="line"/>
      <point x="304" y="143" type="line"/>
    </contour>
  </outline>
</glyph>
<glyph name="sterling" format="2">
  <advance width="679"/>
  <unicode hex="00A3"/>
  <outline>
    <contour>
      <point x="432" y="771" type="curve" smooth="yes"/>
      <point x="283" y="771"/>
      <point x="163" y="690"/>
      <point x="138" y="548" type="curve"/>
      <point x="119" y="440"/>
      <point x="146" y="344"/>
      <point x="140" y="308" type="curve" smooth="yes"/>
      <point x="122" y="211"/>
      <point x="83" y="151"/>
      <point x="4" y="98" type="curve"/>
      <point x="12" y="-6" type="line"/>
      <point x="564" y="-6" type="line"/>
      <point x="594" y="165" type="line"/>
      <point x="259" y="165" type="line"/>
      <point x="321" y="208"/>
      <point x="344" y="277"/>
      <point x="349" y="307" type="curve"/>
      <point x="362" y="380"/>
      <point x="335" y="470"/>
      <point x="344" y="522" type="curve"/>
      <point x="352" y="564"/>
      <point x="370" y="591"/>
      <point x="408" y="591" type="curve" smooth="yes"/>
      <point x="444" y="591"/>
      <point x="455" y="566"/>
      <point x="453" y="531" type="curve"/>
      <point x="657" y="531" type="line"/>
      <point x="672" y="669"/>
      <point x="603" y="771"/>
    </contour>
    <contour>
      <point x="517" y="421" type="line"/>
      <point x="56" y="421" type="line"/>
      <point x="30" y="274" type="line"/>
      <point x="491" y="274" type="line"/>
    </contour>
  </outline>
</glyph>
<glyph name="currency" format="2">
  <advance width="603"/>
  <unicode hex="00A4"/>
  <outline>
    <contour>
      <point x="353" y="561" type="curve"/>
      <point x="218" y="561"/>
      <point x="113" y="494"/>
      <point x="93" y="379" type="curve" smooth="yes"/>
      <point x="73" y="265"/>
      <point x="153" y="193"/>
      <point x="288" y="193" type="curve"/>
      <point x="423" y="193"/>
      <point x="529" y="265"/>
      <point x="549" y="379" type="curve" smooth="yes"/>
      <point x="569" y="494"/>
      <point x="488" y="561"/>
    </contour>
    <contour>
      <point x="331" y="436" type="curve"/>
      <point x="361" y="436"/>
      <point x="387" y="421"/>
      <point x="379" y="377" type="curve" smooth="yes"/>
      <point x="371" y="335"/>
      <point x="341" y="320"/>
      <point x="311" y="320" type="curve"/>
      <point x="281" y="320"/>
      <point x="255" y="335"/>
      <point x="263" y="377" type="curve" smooth="yes"/>
      <point x="270" y="421"/>
      <point x="301" y="436"/>
    </contour>
    <contour>
      <point x="191" y="438" type="line"/>
      <point x="299" y="502" type="line"/>
      <point x="200" y="622" type="line"/>
      <point x="106" y="541" type="line"/>
    </contour>
    <contour>
      <point x="383" y="503" type="line"/>
      <point x="445" y="420" type="line"/>
      <point x="589" y="541" type="line"/>
      <point x="523" y="622" type="line"/>
    </contour>
    <contour>
      <point x="447" y="322" type="line"/>
      <point x="347" y="248" type="line"/>
      <point x="438" y="138" type="line"/>
      <point x="532" y="219" type="line"/>
    </contour>
    <contour>
      <point x="272" y="272" type="line"/>
      <point x="178" y="328" type="line"/>
      <point x="49" y="219" type="line"/>
      <point x="115" y="138" type="line"/>
    </contour>
  </outline>
</glyph>
<glyph name="section" format="2">
  <advance width="595"/>
  <unicode hex="00A7"/>
  <outline>
    <contour>
      <point x="123" y="644"/>
      <point x="103" y="532" type="curve"/>
      <point x="90" y="456"/>
      <point x="117" y="372"/>
      <point x="216" y="321" type="curve"/>
      <point x="262" y="412" type="line"/>
      <point x="84" y="403"/>
      <point x="29" y="325"/>
      <point x="14" y="244" type="curve" smooth="yes"/>
      <point x="1" y="168"/>
      <point x="45" y="107"/>
      <point x="124" y="62" type="curve" smooth="yes"/>
      <point x="225" y="5"/>
      <point x="259" y="-17"/>
      <point x="253" y="-55" type="curve"/>
      <point x="250" y="-72"/>
      <point x="241" y="-79"/>
      <point x="232" y="-79" type="curve"/>
      <point x="222" y="-79"/>
      <point x="212" y="-70"/>
      <point x="218" y="-25" type="curve"/>
      <point x="-1" y="-25" type="line"/>
      <point x="-12" y="-145"/>
      <point x="51" y="-235"/>
      <point x="200" y="-235" type="curve"/>
      <point x="358" y="-235"/>
      <point x="459" y="-156"/>
      <point x="479" y="-44" type="curve"/>
      <point x="492" y="32"/>
      <point x="465" y="116"/>
      <point x="366" y="167" type="curve"/>
      <point x="318" y="61" type="line"/>
      <point x="499" y="100"/>
      <point x="554" y="162"/>
      <point x="568" y="244" type="curve" smooth="yes"/>
      <point x="582" y="320"/>
      <point x="535" y="380"/>
      <point x="458" y="427" type="curve" smooth="yes"/>
      <point x="355" y="483"/>
      <point x="322" y="505"/>
      <point x="329" y="543" type="curve"/>
      <point x="332" y="560"/>
      <point x="340" y="567"/>
      <point x="349" y="567" type="curve"/>
      <point x="359" y="567"/>
      <point x="370" y="558"/>
      <point x="364" y="513" type="curve"/>
      <point x="583" y="513" type="line"/>
      <point x="594" y="633"/>
      <point x="531" y="723"/>
      <point x="382" y="723" type="curve"/>
      <point x="224" y="723"/>
    </contour>
    <contour>
      <point x="338" y="274"/>
      <point x="332" y="244" type="curve" smooth="yes"/>
      <point x="327" y="213"/>
      <point x="307" y="189"/>
      <point x="281" y="189" type="curve" smooth="yes"/>
      <point x="256" y="189"/>
      <point x="246" y="213"/>
      <point x="251" y="244" type="curve" smooth="yes"/>
      <point x="257" y="276"/>
      <point x="277" y="299"/>
      <point x="303" y="299" type="curve" smooth="yes"/>
      <point x="330" y="299"/>
    </contour>
  </outline>
</glyph>
<glyph name="copyright" format="2">
  <advance width="771"/>
  <unicode hex="00A9"/>
  <outline>
    <contour>
      <point x="792" y="571"/>
      <point x="674" y="720"/>
      <point x="463" y="720" type="curve" smooth="yes"/>
      <point x="252" y="720"/>
      <point x="81" y="571"/>
      <point x="43" y="358" type="curve" smooth="yes"/>
      <point x="6" y="145"/>
      <point x="124" y="-6"/>
      <point x="335" y="-6" type="curve" smooth="yes"/>
      <point x="546" y="-6"/>
      <point x="717" y="145"/>
      <point x="754" y="358" type="curve" smooth="yes"/>
    </contour>
    <contour>
      <point x="145" y="539"/>
      <point x="275" y="655"/>
      <point x="452" y="655" type="curve" smooth="yes"/>
      <point x="628" y="655"/>
      <point x="717" y="539"/>
      <point x="685" y="358" type="curve" smooth="yes"/>
      <point x="654" y="178"/>
      <point x="523" y="59"/>
      <point x="347" y="59" type="curve" smooth="yes"/>
      <point x="170" y="59"/>
      <point x="82" y="178"/>
      <point x="113" y="358" type="curve" smooth="yes"/>
    </contour>
    <contour>
      <point x="201" y="493"/>
      <point x="307" y="578"/>
      <point x="442" y="578" type="curve" smooth="yes"/>
      <point x="549" y="578"/>
      <point x="626" y="509"/>
      <point x="622" y="398" type="curve"/>
      <point x="438" y="398" type="line"/>
      <point x="436" y="415"/>
      <point x="430" y="433"/>
      <point x="407" y="433" type="curve" smooth="yes"/>
      <point x="379" y="433"/>
      <point x="357" y="409"/>
      <point x="348" y="357" type="curve" smooth="yes"/>
      <point x="339" y="305"/>
      <point x="352" y="281"/>
      <point x="380" y="281" type="curve" smooth="yes"/>
      <point x="403" y="281"/>
      <point x="416" y="299"/>
      <point x="424" y="316" type="curve"/>
      <point x="608" y="316" type="line"/>
      <point x="572" y="205"/>
      <point x="471" y="136"/>
      <point x="364" y="136" type="curve" smooth="yes"/>
      <point x="229" y="136"/>
      <point x="153" y="221"/>
      <point x="177" y="357" type="curve" smooth="yes"/>
    </contour>
  </outline>
</glyph>
<glyph name="logicalnot" format="2">
  <advance width="794"/>
  <unicode hex="00AC"/>
  <outline>
    <contour>
      <point x="50" y="448" type="line"/>
      <point x="21" y="282" type="line"/>
      <point x="507" y="282" type="line"/>
      <point x="485" y="155" type="line"/>
      <point x="707" y="155" type="line"/>
      <point x="758" y="448" type="line"/>
    </contour>
  </outline>
</glyph>
<glyph name="registered" format="2">
  <advance width="511"/>
  <unicode hex="00AE"/>
  <outline>
    <contour>
      <point x="68" y="498" type="curve" smooth="yes"/>
      <point x="45" y="368"/>
      <point x="123" y="275"/>
      <point x="255" y="275" type="curve" smooth="yes"/>
      <point x="387" y="275"/>
      <point x="496" y="368"/>
      <point x="519" y="498" type="curve" smooth="yes"/>
      <point x="542" y="629"/>
      <point x="465" y="721"/>
      <point x="333" y="721" type="curve" smooth="yes"/>
      <point x="201" y="721"/>
      <point x="91" y="629"/>
    </contour>
    <contour>
      <point x="139" y="498" type="curve" smooth="yes"/>
      <point x="156" y="593"/>
      <point x="228" y="656"/>
      <point x="322" y="656" type="curve" smooth="yes"/>
      <point x="415" y="656"/>
      <point x="465" y="593"/>
      <point x="448" y="498" type="curve" smooth="yes"/>
      <point x="432" y="405"/>
      <point x="359" y="340"/>
      <point x="266" y="340" type="curve" smooth="yes"/>
      <point x="172" y="340"/>
      <point x="123" y="405"/>
    </contour>
    <contour>
      <point x="337" y="606" type="line" smooth="yes"/>
      <point x="383" y="606"/>
      <point x="410" y="580"/>
      <point x="402" y="538" type="curve" smooth="yes"/>
      <point x="395" y="497"/>
      <point x="359" y="469"/>
      <point x="313" y="469" type="curve" smooth="yes"/>
      <point x="276" y="469" type="line"/>
      <point x="263" y="396" type="line"/>
      <point x="180" y="396" type="line"/>
      <point x="217" y="606" type="line"/>
    </contour>
    <contour>
      <point x="297" y="396" type="line"/>
      <point x="267" y="487" type="line"/>
      <point x="352" y="487" type="line"/>
      <point x="388" y="396" type="line"/>
    </contour>
    <contour>
      <point x="303" y="541" type="curve" smooth="yes"/>
      <point x="286" y="541" type="line"/>
      <point x="282" y="519" type="line"/>
      <point x="299" y="519" type="line" smooth="yes"/>
      <point x="307" y="519"/>
      <point x="312" y="523"/>
      <point x="314" y="530" type="curve" smooth="yes"/>
      <point x="315" y="537"/>
      <point x="311" y="541"/>
    </contour>
  </outline>
</glyph>
<glyph name="degree" format="2">
  <advance width="496"/>
  <unicode hex="00B0"/>
  <outline>
    <contour>
      <point x="88" y="648"/>
      <point x="67" y="533" type="curve" smooth="yes"/>
      <point x="47" y="419"/>
      <point x="129" y="347"/>
      <point x="264" y="347" type="curve" smooth="yes"/>
      <point x="399" y="347"/>
      <point x="497" y="419"/>
      <point x="517" y="533" type="curve" smooth="yes"/>
      <point x="538" y="648"/>
      <point x="460" y="715"/>
      <point x="325" y="715" type="curve" smooth="yes"/>
      <point x="189" y="715"/>
    </contour>
    <contour>
      <point x="357" y="582"/>
      <point x="348" y="531" type="curve" smooth="yes"/>
      <point x="339" y="482"/>
      <point x="309" y="464"/>
      <point x="285" y="464" type="curve" smooth="yes"/>
      <point x="259" y="464"/>
      <point x="227" y="482"/>
      <point x="236" y="531" type="curve" smooth="yes"/>
      <point x="245" y="582"/>
      <point x="280" y="600"/>
      <point x="306" y="600" type="curve" smooth="yes"/>
      <point x="330" y="600"/>
    </contour>
  </outline>
</glyph>
<glyph name="plusminus" format="2">
  <advance width="551"/>
  <unicode hex="00B1"/>
  <outline>
    <contour>
      <point x="443" y="630" type="line"/>
      <point x="230" y="630" type="line"/>
      <point x="145" y="146" type="line"/>
      <point x="358" y="146" type="line"/>
    </contour>
    <contour>
      <point x="66" y="545" type="line"/>
      <point x="31" y="344" type="line"/>
      <point x="542" y="344" type="line"/>
      <point x="577" y="545" type="line"/>
    </contour>
    <contour>
      <point x="23" y="297" type="line"/>
      <point x="-13" y="96" type="line"/>
      <point x="498" y="96" type="line"/>
      <point x="534" y="297" type="line"/>
    </contour>
  </outline>
</glyph>
<glyph name="twosuperior" format="2">
  <advance width="422"/>
  <unicode hex="00B2"/>
  <outline>
    <contour>
      <point x="112" y="655"/>
      <point x="91" y="569" type="curve"/>
      <point x="254" y="569" type="line"/>
      <point x="259" y="592"/>
      <point x="266" y="603"/>
      <point x="278" y="603" type="curve" smooth="yes"/>
      <point x="283" y="603"/>
      <point x="286" y="600"/>
      <point x="285" y="595" type="curve" smooth="yes"/>
      <point x="282" y="579"/>
      <point x="266" y="561"/>
      <point x="229" y="544" type="curve" smooth="yes"/>
      <point x="82" y="474" type="line"/>
      <point x="60" y="352" type="line"/>
      <point x="405" y="352" type="line"/>
      <point x="427" y="477" type="line"/>
      <point x="217" y="477" type="line"/>
      <point x="172" y="447" type="line"/>
      <point x="300" y="492" type="line" smooth="yes"/>
      <point x="405" y="529"/>
      <point x="452" y="561"/>
      <point x="461" y="609" type="curve" smooth="yes"/>
      <point x="469" y="658"/>
      <point x="439" y="717"/>
      <point x="320" y="717" type="curve" smooth="yes"/>
      <point x="197" y="717"/>
    </contour>
  </outline>
</glyph>
<glyph name="threesuperior" format="2">
  <advance width="403"/>
  <unicode hex="00B3"/>
  <outline>
    <contour>
      <point x="84" y="645"/>
      <point x="72" y="577" type="curve"/>
      <point x="228" y="577" type="line"/>
      <point x="232" y="597"/>
      <point x="237" y="605"/>
      <point x="247" y="605" type="curve" smooth="yes"/>
      <point x="256" y="605"/>
      <point x="258" y="598"/>
      <point x="256" y="588" type="curve" smooth="yes"/>
      <point x="253" y="569"/>
      <point x="244" y="562"/>
      <point x="225" y="562" type="curve"/>
      <point x="204" y="562" type="line"/>
      <point x="195" y="508" type="line"/>
      <point x="225" y="508" type="line"/>
      <point x="243" y="508"/>
      <point x="251" y="502"/>
      <point x="247" y="483" type="curve"/>
      <point x="244" y="466"/>
      <point x="238" y="462"/>
      <point x="231" y="462" type="curve"/>
      <point x="222" y="462"/>
      <point x="217" y="466"/>
      <point x="220" y="482" type="curve"/>
      <point x="48" y="482" type="line"/>
      <point x="41" y="403"/>
      <point x="76" y="349"/>
      <point x="225" y="349" type="curve"/>
      <point x="330" y="349"/>
      <point x="403" y="384"/>
      <point x="415" y="452" type="curve" smooth="yes"/>
      <point x="422" y="493"/>
      <point x="405" y="519"/>
      <point x="345" y="533" type="curve"/>
      <point x="346" y="537" type="line"/>
      <point x="397" y="545"/>
      <point x="427" y="569"/>
      <point x="434" y="611" type="curve" smooth="yes"/>
      <point x="445" y="674"/>
      <point x="393" y="717"/>
      <point x="286" y="717" type="curve" smooth="yes"/>
      <point x="141" y="717"/>
    </contour>
  </outline>
</glyph>
<glyph name="acute" format="2">
  <advance width="279"/>
  <unicode hex="00B4"/>
  <anchor x="191" y="564" name="_top"/>
  <outline>
    <contour>
      <point x="371" y="860" type="line"/>
      <point x="93" y="750" type="line"/>
      <point x="66" y="602" type="line"/>
      <point x="342" y="696" type="line"/>
    </contour>
  </outline>
</glyph>
<glyph name="micro" format="2">
  <advance width="751"/>
  <unicode hex="00B5"/>
  <outline>
    <contour>
      <point x="626" y="0" type="line"/>
      <point x="726" y="564" type="line"/>
      <point x="504" y="564" type="line"/>
      <point x="404" y="0" type="line"/>
    </contour>
    <contour>
      <point x="437" y="103" type="curve"/>
      <point x="451" y="266" type="line"/>
      <point x="443" y="218"/>
      <point x="407" y="188"/>
      <point x="358" y="188" type="curve" smooth="yes"/>
      <point x="310" y="188"/>
      <point x="285" y="218"/>
      <point x="293" y="266" type="curve"/>
      <point x="346" y="564" type="line"/>
      <point x="125" y="564" type="line"/>
      <point x="-22" y="-270" type="line"/>
      <point x="199" y="-270" type="line"/>
      <point x="250" y="20" type="line"/>
      <point x="207" y="3" type="line"/>
      <point x="214" y="0"/>
      <point x="228" y="-4"/>
      <point x="241" y="-4" type="curve"/>
      <point x="336" y="-4"/>
      <point x="403" y="49"/>
    </contour>
  </outline>
</glyph>
<glyph name="paragraph" format="2">
  <advance width="778"/>
  <unicode hex="00B6"/>
  <outline>
    <contour>
      <point x="778" y="708" type="line"/>
      <point x="336" y="708" type="line" smooth="yes"/>
      <point x="163" y="708"/>
      <point x="77" y="595"/>
      <point x="58" y="486" type="curve" smooth="yes"/>
      <point x="39" y="377"/>
      <point x="86" y="265"/>
      <point x="258" y="265" type="curve" smooth="yes"/>
      <point x="289" y="265" type="line"/>
      <point x="242" y="0" type="line"/>
      <point x="418" y="0" type="line"/>
      <point x="514" y="542" type="line"/>
      <point x="572" y="542" type="line"/>
      <point x="476" y="0" type="line"/>
      <point x="653" y="0" type="line"/>
    </contour>
  </outline>
</glyph>
<glyph name="cedillacomb" format="2">
  <advance width="343"/>
  <unicode hex="00B8"/>
  <anchor x="81" y="7" name="_bottom"/>
  <outline>
    <contour>
      <point x="149" y="-27" type="curve"/>
      <point x="155" y="7" type="line"/>
      <point x="27" y="7" type="line"/>
      <point x="3" y="-127" type="line"/>
      <point x="88" y="-127" type="line" smooth="yes"/>
      <point x="104" y="-127"/>
      <point x="113" y="-132"/>
      <point x="111" y="-142" type="curve" smooth="yes"/>
      <point x="109" y="-152"/>
      <point x="98" y="-158"/>
      <point x="82" y="-158" type="curve" smooth="yes"/>
      <point x="-68" y="-158" type="line"/>
      <point x="-88" y="-271" type="line"/>
      <point x="85" y="-271" type="line"/>
      <point x="152" y="-271"/>
      <point x="240" y="-244"/>
      <point x="257" y="-149" type="curve"/>
      <point x="274" y="-54"/>
      <point x="197" y="-27"/>
    </contour>
  </outline>
</glyph>
<glyph name="onesuperior" format="2">
  <advance width="285"/>
  <unicode hex="00B9"/>
  <outline>
    <contour>
      <point x="138" y="577" type="line"/>
      <point x="98" y="352" type="line"/>
      <point x="262" y="352" type="line"/>
      <point x="324" y="704" type="line"/>
      <point x="94" y="704" type="line"/>
      <point x="72" y="577" type="line"/>
    </contour>
  </outline>
</glyph>
<glyph name="ordmasculine" format="2">
  <advance width="470"/>
  <unicode hex="00BA"/>
  <outline>
    <contour>
      <point x="82" y="632"/>
      <point x="64" y="529" type="curve" smooth="yes"/>
      <point x="46" y="427"/>
      <point x="113" y="347"/>
      <point x="246" y="347" type="curve"/>
      <point x="380" y="347"/>
      <point x="476" y="427"/>
      <point x="494" y="529" type="curve" smooth="yes"/>
      <point x="512" y="632"/>
      <point x="444" y="709"/>
      <point x="310" y="709" type="curve"/>
      <point x="177" y="709"/>
    </contour>
    <contour>
      <point x="333" y="567"/>
      <point x="327" y="529" type="curve" smooth="yes"/>
      <point x="320" y="491"/>
      <point x="296" y="473"/>
      <point x="269" y="473" type="curve"/>
      <point x="242" y="473"/>
      <point x="224" y="491"/>
      <point x="231" y="529" type="curve" smooth="yes"/>
      <point x="237" y="567"/>
      <point x="261" y="584"/>
      <point x="288" y="584" type="curve"/>
      <point x="315" y="584"/>
    </contour>
  </outline>
</glyph>
<glyph name="guillemotright" format="2">
  <advance width="618"/>
  <unicode hex="00BB"/>
  <outline>
    <contour>
      <point x="276" y="120" type="line"/>
      <point x="478" y="120" type="line"/>
      <point x="585" y="295" type="line"/>
      <point x="540" y="470" type="line"/>
      <point x="338" y="470" type="line"/>
      <point x="387" y="295" type="line"/>
    </contour>
    <contour>
      <point x="21" y="120" type="line"/>
      <point x="223" y="120" type="line"/>
      <point x="330" y="295" type="line"/>
      <point x="285" y="470" type="line"/>
      <point x="83" y="470" type="line"/>
      <point x="132" y="295" type="line"/>
    </contour>
  </outline>
</glyph>
<glyph name="Eth" format="2">
  <advance width="743"/>
  <unicode hex="00D0"/>
  <outline>
    <contour>
      <point x="29" y="444" type="line"/>
      <point x="-2" y="268" type="line"/>
      <point x="400" y="268" type="line"/>
      <point x="431" y="444" type="line"/>
    </contour>
    <contour>
      <point x="646" y="708"/>
      <point x="420" y="708" type="curve" smooth="yes"/>
      <point x="125" y="708" type="line"/>
      <point x="0" y="0" type="line"/>
      <point x="295" y="0" type="line" smooth="yes"/>
      <point x="521" y="0"/>
      <point x="690" y="154"/>
      <point x="726" y="356" type="curve" smooth="yes"/>
      <point x="762" y="560"/>
    </contour>
    <contour>
      <point x="310" y="198" type="curve" smooth="yes"/>
      <point x="257" y="198" type="line"/>
      <point x="313" y="514" type="line"/>
      <point x="366" y="514" type="line" smooth="yes"/>
      <point x="464" y="514"/>
      <point x="519" y="459"/>
      <point x="501" y="356" type="curve" smooth="yes"/>
      <point x="483" y="253"/>
      <point x="408" y="198"/>
    </contour>
  </outline>
</glyph>
<glyph name="multiply" format="2">
  <advance width="581"/>
  <unicode hex="00D7"/>
  <outline>
    <contour>
      <point x="229" y="612" type="line"/>
      <point x="57" y="467" type="line"/>
      <point x="378" y="78" type="line"/>
      <point x="551" y="223" type="line"/>
    </contour>
    <contour>
      <point x="9" y="221" type="line"/>
      <point x="127" y="79" type="line"/>
      <point x="583" y="470" type="line"/>
      <point x="464" y="612" type="line"/>
    </contour>
  </outline>
</glyph>
<glyph name="Oslash" format="2">
  <advance width="788"/>
  <unicode hex="00D8"/>
  <outline>
    <contour>
      <point x="730" y="712" type="line"/>
      <point x="-32" y="1" type="line"/>
      <point x="84" y="1" type="line"/>
      <point x="845" y="712" type="line"/>
    </contour>
    <component base="O" xOffset="-1"/>
  </outline>
</glyph>
<glyph name="Thorn" format="2">
  <advance width="649"/>
  <unicode hex="00DE"/>
  <outline>
    <contour>
      <point x="336" y="290" type="curve"/>
      <point x="273" y="290" type="line"/>
      <point x="296" y="420" type="line"/>
      <point x="359" y="420" type="line" smooth="yes"/>
      <point x="409" y="420"/>
      <point x="424" y="394"/>
      <point x="417" y="355" type="curve"/>
      <point x="410" y="316"/>
      <point x="386" y="290"/>
    </contour>
    <contour>
      <point x="620" y="229"/>
      <point x="642" y="355" type="curve"/>
      <point x="666" y="492"/>
      <point x="592" y="588"/>
      <point x="414" y="588" type="curve" smooth="yes"/>
      <point x="324" y="588" type="line"/>
      <point x="345" y="708" type="line"/>
      <point x="125" y="708" type="line"/>
      <point x="0" y="0" type="line"/>
      <point x="222" y="0" type="line"/>
      <point x="244" y="125" type="line"/>
      <point x="332" y="125" type="line" smooth="yes"/>
      <point x="510" y="125"/>
    </contour>
  </outline>
</glyph>
<glyph name="germandbls" format="2">
  <advance width="773"/>
  <unicode hex="00DF"/>
  <outline>
    <contour>
      <point x="84" y="509" type="curve" smooth="yes"/>
      <point x="-5" y="0" type="line"/>
      <point x="215" y="0" type="line"/>
      <point x="303" y="499" type="line" smooth="yes"/>
      <point x="311" y="548"/>
      <point x="350" y="580"/>
      <point x="399" y="580" type="curve" smooth="yes"/>
      <point x="436" y="580"/>
      <point x="460" y="563"/>
      <point x="460" y="538" type="curve" smooth="yes"/>
      <point x="460" y="485"/>
      <point x="338" y="427"/>
      <point x="338" y="346" type="curve" smooth="yes"/>
      <point x="338" y="294"/>
      <point x="379" y="263"/>
      <point x="478" y="223" type="curve" smooth="yes"/>
      <point x="532" y="201"/>
      <point x="545" y="189"/>
      <point x="545" y="171" type="curve" smooth="yes"/>
      <point x="545" y="155"/>
      <point x="530" y="143"/>
      <point x="510" y="143" type="curve" smooth="yes"/>
      <point x="486" y="143"/>
      <point x="467" y="161"/>
      <point x="464" y="188" type="curve"/>
      <point x="270" y="188" type="line"/>
      <point x="271" y="60"/>
      <point x="350" y="-10"/>
      <point x="497" y="-10" type="curve" smooth="yes"/>
      <point x="651" y="-10"/>
      <point x="756" y="72"/>
      <point x="756" y="196" type="curve" smooth="yes"/>
      <point x="756" y="273"/>
      <point x="720" y="310"/>
      <point x="638" y="346" type="curve" smooth="yes"/>
      <point x="570" y="376"/>
      <point x="564" y="381"/>
      <point x="564" y="393" type="curve" smooth="yes"/>
      <point x="564" y="429"/>
      <point x="687" y="486"/>
      <point x="687" y="598" type="curve" smooth="yes"/>
      <point x="687" y="694"/>
      <point x="588" y="763"/>
      <point x="435" y="763" type="curve" smooth="yes"/>
      <point x="247" y="763"/>
      <point x="113" y="670"/>
    </contour>
  </outline>
</glyph>
<glyph name="ae" format="2">
  <advance width="1054"/>
  <unicode hex="00E6"/>
  <outline>
    <contour>
      <point x="617" y="334" type="line"/>
      <point x="597" y="243" type="line"/>
      <point x="1022" y="243" type="line"/>
      <point x="1028" y="257"/>
      <point x="1032" y="273"/>
      <point x="1035" y="287" type="curve"/>
      <point x="1066" y="464"/>
      <point x="986" y="571"/>
      <point x="847" y="571" type="curve"/>
      <point x="766" y="571"/>
      <point x="702" y="540"/>
      <point x="666" y="487" type="curve"/>
      <point x="680" y="564" type="line"/>
      <point x="459" y="564" type="line"/>
      <point x="445" y="487" type="line"/>
      <point x="427" y="538"/>
      <point x="379" y="571"/>
      <point x="304" y="571" type="curve"/>
      <point x="174" y="571"/>
      <point x="52" y="464"/>
      <point x="20" y="282" type="curve"/>
      <point x="-12" y="100"/>
      <point x="72" y="-7"/>
      <point x="202" y="-7" type="curve"/>
      <point x="277" y="-7"/>
      <point x="337" y="26"/>
      <point x="373" y="77" type="curve"/>
      <point x="359" y="0" type="line"/>
      <point x="580" y="0" type="line"/>
      <point x="594" y="77" type="line"/>
      <point x="613" y="25"/>
      <point x="664" y="-7"/>
      <point x="745" y="-7" type="curve"/>
      <point x="862" y="-7"/>
      <point x="963" y="83"/>
      <point x="1008" y="203" type="curve"/>
      <point x="773" y="203" type="line"/>
      <point x="759" y="181"/>
      <point x="736" y="167"/>
      <point x="697" y="167" type="curve"/>
      <point x="650" y="167"/>
      <point x="620" y="190"/>
      <point x="634" y="273" type="curve"/>
      <point x="640" y="304" type="line"/>
      <point x="653" y="378"/>
      <point x="698" y="397"/>
      <point x="744" y="397" type="curve"/>
      <point x="789" y="397"/>
      <point x="826" y="378"/>
      <point x="818" y="334" type="curve"/>
    </contour>
    <contour>
      <point x="234" y="220"/>
      <point x="245" y="282" type="curve"/>
      <point x="256" y="344"/>
      <point x="298" y="377"/>
      <point x="344" y="377" type="curve"/>
      <point x="390" y="377"/>
      <point x="420" y="344"/>
      <point x="409" y="282" type="curve"/>
      <point x="398" y="220"/>
      <point x="356" y="187"/>
      <point x="310" y="187" type="curve"/>
      <point x="264" y="187"/>
    </contour>
  </outline>
</glyph>
<glyph name="divide" format="2">
  <advance width="551"/>
  <unicode hex="00F7"/>
  <outline>
    <contour>
      <point x="48" y="441" type="line"/>
      <point x="13" y="240" type="line"/>
      <point x="524" y="240" type="line"/>
      <point x="559" y="441" type="line"/>
    </contour>
    <component base="period" xOffset="98"/>
    <component base="period" xOffset="208" yOffset="475"/>
  </outline>
</glyph>
<glyph name="Aogonek" format="2">
  <advance width="773"/>
  <unicode hex="0104"/>
  <anchor x="723" y="0" name="_ogonek"/>
  <outline>
    <contour>
      <point x="700" y="105" type="line"/>
      <point x="660" y="90" type="line" smooth="yes"/>
      <point x="493" y="27"/>
      <point x="445" y="-26"/>
      <point x="432" y="-97" type="curve" smooth="yes"/>
      <point x="418" y="-177"/>
      <point x="470" y="-223"/>
      <point x="570" y="-223" type="curve" smooth="yes"/>
      <point x="613" y="-223"/>
      <point x="652" y="-217"/>
      <point x="687" y="-207" type="curve"/>
      <point x="707" y="-91" type="line"/>
      <point x="672" y="-102"/>
      <point x="644" y="-107"/>
      <point x="622" y="-107" type="curve" smooth="yes"/>
      <point x="598" y="-107"/>
      <point x="587" y="-98"/>
      <point x="590" y="-82" type="curve" smooth="yes"/>
      <point x="593" y="-66"/>
      <point x="608" y="-46"/>
      <point x="676" y="-19" type="curve" smooth="yes"/>
      <point x="723" y="0" type="line"/>
    </contour>
    <component base="A"/>
  </outline>
</glyph>
<glyph name="dcaron" format="2">
  <advance width="882"/>
  <unicode hex="010F"/>
  <outline>
    <contour>
      <point x="927" y="740" type="curve"/>
      <point x="771" y="740" type="line"/>
      <point x="745" y="594" type="line"/>
      <point x="817" y="594" type="line"/>
      <point x="815" y="582" type="line" smooth="yes"/>
      <point x="806" y="531"/>
      <point x="782" y="508"/>
      <point x="747" y="508" type="curve"/>
      <point x="733" y="429" type="line"/>
      <point x="847" y="429"/>
      <point x="912" y="509"/>
      <point x="929" y="606" type="curve" smooth="yes"/>
      <point x="937" y="648"/>
      <point x="937" y="694"/>
    </contour>
    <component base="d"/>
  </outline>
</glyph>
<glyph name="Gcommaaccent" format="2">
  <advance width="752"/>
  <unicode hex="0122"/>
  <anchor x="328" y="0" name="_bottom"/>
  <outline>
    <contour>
      <point x="398" y="-35" type="curve"/>
      <point x="242" y="-35" type="line"/>
      <point x="216" y="-182" type="line"/>
      <point x="288" y="-182" type="line"/>
      <point x="286" y="-193" type="line" smooth="yes"/>
      <point x="277" y="-245"/>
      <point x="253" y="-268"/>
      <point x="218" y="-268" type="curve"/>
      <point x="204" y="-346" type="line"/>
      <point x="318" y="-346"/>
      <point x="383" y="-266"/>
      <point x="400" y="-170" type="curve" smooth="yes"/>
      <point x="408" y="-128"/>
      <point x="408" y="-82"/>
    </contour>
    <component base="G"/>
  </outline>
</glyph>
<glyph name="gcommaaccent" format="2">
  <advance width="680"/>
  <unicode hex="0123"/>
  <outline>
    <contour>
      <point x="338" y="599" type="curve"/>
      <point x="494" y="599" type="line"/>
      <point x="520" y="746" type="line"/>
      <point x="448" y="746" type="line"/>
      <point x="450" y="757" type="line" smooth="yes"/>
      <point x="459" y="809"/>
      <point x="484" y="832"/>
      <point x="518" y="832" type="curve"/>
      <point x="532" y="910" type="line"/>
      <point x="419" y="910"/>
      <point x="354" y="830"/>
      <point x="337" y="734" type="curve" smooth="yes"/>
      <point x="329" y="692"/>
      <point x="328" y="646"/>
    </contour>
    <component base="g"/>
  </outline>
</glyph>
<glyph name="dotlessi" format="2">
  <advance width="372"/>
  <unicode hex="0131"/>
  <anchor x="287" y="10" name="ogonek"/>
  <anchor x="237" y="564" name="top"/>
  <outline>
    <contour>
      <point x="125" y="564" type="line"/>
      <point x="25" y="0" type="line"/>
      <point x="247" y="0" type="line"/>
      <point x="347" y="564" type="line"/>
    </contour>
  </outline>
</glyph>
<glyph name="Lcommaaccent" format="2">
  <advance width="511"/>
  <unicode hex="013B"/>
  <anchor x="242" y="10" name="_commaaccent"/>
  <outline>
    <contour>
      <point x="310" y="-35" type="curve"/>
      <point x="154" y="-35" type="line"/>
      <point x="128" y="-182" type="line"/>
      <point x="200" y="-182" type="line"/>
      <point x="198" y="-193" type="line" smooth="yes"/>
      <point x="189" y="-245"/>
      <point x="165" y="-268"/>
      <point x="130" y="-268" type="curve"/>
      <point x="116" y="-346" type="line"/>
      <point x="230" y="-346"/>
      <point x="295" y="-266"/>
      <point x="312" y="-170" type="curve" smooth="yes"/>
      <point x="320" y="-128"/>
      <point x="320" y="-82"/>
    </contour>
    <component base="L"/>
  </outline>
</glyph>
<glyph name="lcommaaccent" format="2">
  <advance width="322"/>
  <unicode hex="013C"/>
  <outline>
    <contour>
      <point x="187" y="-35" type="curve"/>
      <point x="31" y="-35" type="line"/>
      <point x="5" y="-182" type="line"/>
      <point x="77" y="-182" type="line"/>
      <point x="75" y="-193" type="line" smooth="yes"/>
      <point x="66" y="-245"/>
      <point x="41" y="-268"/>
      <point x="7" y="-268" type="curve"/>
      <point x="-7" y="-346" type="line"/>
      <point x="106" y="-346"/>
      <point x="171" y="-266"/>
      <point x="188" y="-170" type="curve" smooth="yes"/>
      <point x="196" y="-128"/>
      <point x="197" y="-82"/>
    </contour>
    <component base="l"/>
  </outline>
</glyph>
<glyph name="Lcaron" format="2">
  <advance width="577"/>
  <unicode hex="013D"/>
  <outline>
    <contour>
      <point x="600" y="708" type="curve"/>
      <point x="444" y="708" type="line"/>
      <point x="418" y="562" type="line"/>
      <point x="490" y="562" type="line"/>
      <point x="488" y="550" type="line" smooth="yes"/>
      <point x="479" y="499"/>
      <point x="454" y="476"/>
      <point x="420" y="476" type="curve"/>
      <point x="406" y="397" type="line"/>
      <point x="519" y="397"/>
      <point x="584" y="477"/>
      <point x="601" y="574" type="curve" smooth="yes"/>
      <point x="609" y="616"/>
      <point x="610" y="662"/>
    </contour>
    <component base="L"/>
  </outline>
</glyph>
<glyph name="lcaron" format="2">
  <advance width="516"/>
  <unicode hex="013E"/>
  <outline>
    <contour>
      <point x="562" y="740" type="curve"/>
      <point x="406" y="740" type="line"/>
      <point x="380" y="594" type="line"/>
      <point x="452" y="594" type="line"/>
      <point x="450" y="582" type="line" smooth="yes"/>
      <point x="441" y="531"/>
      <point x="416" y="508"/>
      <point x="382" y="508" type="curve"/>
      <point x="368" y="429" type="line"/>
      <point x="481" y="429"/>
      <point x="546" y="509"/>
      <point x="563" y="606" type="curve" smooth="yes"/>
      <point x="571" y="648"/>
      <point x="572" y="694"/>
    </contour>
    <component base="l"/>
  </outline>
</glyph>
<glyph name="Ldot" format="2">
  <advance width="506"/>
  <unicode hex="013F"/>
  <outline>
    <contour>
      <point x="0" y="0" type="line"/>
      <point x="436" y="0" type="line"/>
      <point x="466" y="168" type="line"/>
      <point x="252" y="168" type="line"/>
      <point x="347" y="708" type="line"/>
      <point x="125" y="708" type="line"/>
    </contour>
    <contour>
      <point x="421" y="322" type="curve" smooth="yes"/>
      <point x="471" y="322"/>
      <point x="514" y="359"/>
      <point x="523" y="407" type="curve" smooth="yes"/>
      <point x="532" y="457"/>
      <point x="501" y="494"/>
      <point x="451" y="494" type="curve" smooth="yes"/>
      <point x="403" y="494"/>
      <point x="359" y="457"/>
      <point x="351" y="407" type="curve" smooth="yes"/>
      <point x="343" y="359"/>
      <point x="373" y="322"/>
    </contour>
  </outline>
</glyph>
<glyph name="Lslash" format="2">
  <advance width="521"/>
  <unicode hex="0141"/>
  <outline>
    <contour>
      <point x="37" y="437" type="line"/>
      <point x="-1" y="221" type="line"/>
      <point x="368" y="318" type="line"/>
      <point x="406" y="534" type="line"/>
    </contour>
    <contour>
      <point x="362" y="708" type="line"/>
      <point x="140" y="708" type="line"/>
      <point x="15" y="0" type="line"/>
      <point x="451" y="0" type="line"/>
      <point x="481" y="168" type="line"/>
      <point x="267" y="168" type="line"/>
    </contour>
  </outline>
</glyph>
<glyph name="Ncommaaccent" format="2">
  <advance width="829"/>
  <unicode hex="0145"/>
  <outline>
    <contour>
      <point x="434" y="-35" type="curve"/>
      <point x="278" y="-35" type="line"/>
      <point x="252" y="-182" type="line"/>
      <point x="324" y="-182" type="line"/>
      <point x="322" y="-193" type="line" smooth="yes"/>
      <point x="313" y="-245"/>
      <point x="289" y="-268"/>
      <point x="254" y="-268" type="curve"/>
      <point x="240" y="-346" type="line"/>
      <point x="354" y="-346"/>
      <point x="419" y="-266"/>
      <point x="436" y="-170" type="curve" smooth="yes"/>
      <point x="444" y="-128"/>
      <point x="444" y="-82"/>
    </contour>
    <component base="N"/>
  </outline>
</glyph>
<glyph name="ncommaaccent" format="2">
  <advance width="697"/>
  <unicode hex="0146"/>
  <outline>
    <contour>
      <point x="393" y="-35" type="curve"/>
      <point x="237" y="-35" type="line"/>
      <point x="211" y="-182" type="line"/>
      <point x="283" y="-182" type="line"/>
      <point x="281" y="-193" type="line" smooth="yes"/>
      <point x="272" y="-245"/>
      <point x="247" y="-268"/>
      <point x="213" y="-268" type="curve"/>
      <point x="199" y="-346" type="line"/>
      <point x="312" y="-346"/>
      <point x="377" y="-266"/>
      <point x="394" y="-170" type="curve" smooth="yes"/>
      <point x="402" y="-128"/>
      <point x="403" y="-82"/>
    </contour>
    <component base="n"/>
  </outline>
</glyph>
<glyph name="Rcommaaccent" format="2">
  <advance width="701"/>
  <unicode hex="0156"/>
  <outline>
    <contour>
      <point x="370" y="-35" type="curve"/>
      <point x="214" y="-35" type="line"/>
      <point x="188" y="-182" type="line"/>
      <point x="260" y="-182" type="line"/>
      <point x="258" y="-193" type="line" smooth="yes"/>
      <point x="249" y="-245"/>
      <point x="225" y="-268"/>
      <point x="190" y="-268" type="curve"/>
      <point x="176" y="-346" type="line"/>
      <point x="290" y="-346"/>
      <point x="355" y="-266"/>
      <point x="372" y="-170" type="curve" smooth="yes"/>
      <point x="380" y="-128"/>
      <point x="380" y="-82"/>
    </contour>
    <component base="R"/>
  </outline>
</glyph>
<glyph name="rcommaaccent" format="2">
  <advance width="467"/>
  <unicode hex="0157"/>
  <outline>
    <contour>
      <point x="180" y="-35" type="curve"/>
      <point x="24" y="-35" type="line"/>
      <point x="-2" y="-182" type="line"/>
      <point x="70" y="-182" type="line"/>
      <point x="68" y="-193" type="line" smooth="yes"/>
      <point x="59" y="-245"/>
      <point x="34" y="-268"/>
      <point x="0" y="-268" type="curve"/>
      <point x="-14" y="-346" type="line"/>
      <point x="99" y="-346"/>
      <point x="164" y="-266"/>
      <point x="181" y="-170" type="curve" smooth="yes"/>
      <point x="189" y="-128"/>
      <point x="190" y="-82"/>
    </contour>
    <component base="r"/>
  </outline>
</glyph>
<glyph name="tcedilla" format="2">
  <advance width="436"/>
  <unicode hex="0163"/>
  <outline>
    <contour>
      <point x="159" y="700" type="line"/>
      <point x="76" y="231" type="line" smooth="yes"/>
      <point x="45" y="56"/>
      <point x="135" y="0"/>
      <point x="267" y="0" type="curve" smooth="yes"/>
      <point x="351" y="0" type="line"/>
      <point x="385" y="189" type="line"/>
      <point x="332" y="189" type="line" smooth="yes"/>
      <point x="303" y="189"/>
      <point x="293" y="201"/>
      <point x="297" y="227" type="curve" smooth="yes"/>
      <point x="381" y="700" type="line"/>
    </contour>
    <contour>
      <point x="32" y="379" type="line"/>
      <point x="416" y="379" type="line"/>
      <point x="449" y="564" type="line"/>
      <point x="65" y="564" type="line"/>
    </contour>
    <contour>
      <point x="258" y="-27" type="curve"/>
      <point x="281" y="107" type="line"/>
      <point x="153" y="107" type="line"/>
      <point x="112" y="-127" type="line"/>
      <point x="197" y="-127" type="line" smooth="yes"/>
      <point x="213" y="-127"/>
      <point x="222" y="-132"/>
      <point x="220" y="-142" type="curve" smooth="yes"/>
      <point x="218" y="-152"/>
      <point x="207" y="-158"/>
      <point x="191" y="-158" type="curve" smooth="yes"/>
      <point x="41" y="-158" type="line"/>
      <point x="21" y="-271" type="line"/>
      <point x="194" y="-271" type="line"/>
      <point x="261" y="-271"/>
      <point x="349" y="-244"/>
      <point x="366" y="-149" type="curve"/>
      <point x="383" y="-54"/>
      <point x="306" y="-27"/>
    </contour>
  </outline>
</glyph>
<glyph name="tcaron" format="2">
  <advance width="436"/>
  <unicode hex="0165"/>
  <outline>
    <contour>
      <point x="601" y="890" type="curve"/>
      <point x="445" y="890" type="line"/>
      <point x="419" y="744" type="line"/>
      <point x="491" y="744" type="line"/>
      <point x="488" y="727" type="line" smooth="yes"/>
      <point x="484" y="701"/>
      <point x="462" y="688"/>
      <point x="427" y="688" type="curve"/>
      <point x="413" y="609" type="line"/>
      <point x="527" y="609"/>
      <point x="590" y="678"/>
      <point x="605" y="766" type="curve" smooth="yes"/>
      <point x="613" y="808"/>
      <point x="611" y="844"/>
    </contour>
    <component base="t"/>
  </outline>
</glyph>
<glyph name="Schwa" format="2">
  <advance width="788"/>
  <unicode hex="018F"/>
  <outline>
    <contour>
      <point x="545" y="399" type="curve" smooth="yes"/>
      <point x="530" y="314" type="line" smooth="yes"/>
      <point x="516" y="236"/>
      <point x="441" y="196"/>
      <point x="372" y="196" type="curve" smooth="yes"/>
      <point x="306" y="196"/>
      <point x="261" y="233"/>
      <point x="267" y="294" type="curve"/>
      <point x="551" y="294" type="line"/>
      <point x="572" y="409" type="line"/>
      <point x="63" y="409" type="line"/>
      <point x="49" y="370"/>
      <point x="43" y="325"/>
      <point x="43" y="285" type="curve" smooth="yes"/>
      <point x="43" y="119"/>
      <point x="161" y="-9"/>
      <point x="340" y="-9" type="curve" smooth="yes"/>
      <point x="592" y="-9"/>
      <point x="772" y="188"/>
      <point x="772" y="436" type="curve" smooth="yes"/>
      <point x="772" y="602"/>
      <point x="651" y="727"/>
      <point x="466" y="727" type="curve" smooth="yes"/>
      <point x="288" y="727"/>
      <point x="138" y="621"/>
      <point x="83" y="460" type="curve"/>
      <point x="316" y="460" type="line"/>
      <point x="336" y="503"/>
      <point x="388" y="529"/>
      <point x="440" y="529" type="curve" smooth="yes"/>
      <point x="515" y="529"/>
      <point x="560" y="480"/>
    </contour>
  </outline>
</glyph>
<glyph name="Scommaaccent" format="2">
  <advance width="685"/>
  <unicode hex="0218"/>
  <outline>
    <contour>
      <point x="363" y="-35" type="curve"/>
      <point x="207" y="-35" type="line"/>
      <point x="181" y="-182" type="line"/>
      <point x="253" y="-182" type="line"/>
      <point x="251" y="-193" type="line" smooth="yes"/>
      <point x="242" y="-245"/>
      <point x="218" y="-268"/>
      <point x="183" y="-268" type="curve"/>
      <point x="169" y="-346" type="line"/>
      <point x="283" y="-346"/>
      <point x="348" y="-266"/>
      <point x="365" y="-170" type="curve" smooth="yes"/>
      <point x="373" y="-128"/>
      <point x="373" y="-82"/>
    </contour>
    <component base="S"/>
  </outline>
</glyph>
<glyph name="scommaaccent" format="2">
  <advance width="579"/>
  <unicode hex="0219"/>
  <outline>
    <contour>
      <point x="308" y="-35" type="curve"/>
      <point x="152" y="-35" type="line"/>
      <point x="126" y="-182" type="line"/>
      <point x="198" y="-182" type="line"/>
      <point x="196" y="-193" type="line" smooth="yes"/>
      <point x="187" y="-245"/>
      <point x="162" y="-268"/>
      <point x="128" y="-268" type="curve"/>
      <point x="114" y="-346" type="line"/>
      <point x="227" y="-346"/>
      <point x="292" y="-266"/>
      <point x="309" y="-170" type="curve" smooth="yes"/>
      <point x="317" y="-128"/>
      <point x="318" y="-82"/>
    </contour>
    <component base="s"/>
  </outline>
</glyph>
<glyph name="Tcommaaccent" format="2">
  <advance width="616"/>
  <unicode hex="021A"/>
  <outline>
    <contour>
      <point x="329" y="-35" type="curve"/>
      <point x="173" y="-35" type="line"/>
      <point x="147" y="-182" type="line"/>
      <point x="219" y="-182" type="line"/>
      <point x="217" y="-193" type="line" smooth="yes"/>
      <point x="208" y="-245"/>
      <point x="183" y="-268"/>
      <point x="149" y="-268" type="curve"/>
      <point x="135" y="-346" type="line"/>
      <point x="248" y="-346"/>
      <point x="313" y="-266"/>
      <point x="330" y="-170" type="curve" smooth="yes"/>
      <point x="338" y="-128"/>
      <point x="339" y="-82"/>
    </contour>
    <component base="T"/>
  </outline>
</glyph>
<glyph name="tcommaaccent" format="2">
  <advance width="436"/>
  <unicode hex="021B"/>
  <outline>
    <contour>
      <point x="247" y="-35" type="curve"/>
      <point x="91" y="-35" type="line"/>
      <point x="65" y="-182" type="line"/>
      <point x="137" y="-182" type="line"/>
      <point x="135" y="-193" type="line" smooth="yes"/>
      <point x="126" y="-245"/>
      <point x="102" y="-268"/>
      <point x="67" y="-268" type="curve"/>
      <point x="53" y="-346" type="line"/>
      <point x="167" y="-346"/>
      <point x="232" y="-266"/>
      <point x="249" y="-170" type="curve" smooth="yes"/>
      <point x="257" y="-128"/>
      <point x="257" y="-82"/>
    </contour>
    <component base="t"/>
  </outline>
</glyph>
<glyph name="ogonek" format="2">
  <advance width="302"/>
  <unicode hex="02DB"/>
  <anchor x="242" y="0" name="_ogonek"/>
  <outline>
    <contour>
      <point x="217" y="94" type="line"/>
      <point x="177" y="79" type="line" smooth="yes"/>
      <point x="10" y="16"/>
      <point x="-38" y="-37"/>
      <point x="-50" y="-103" type="curve" smooth="yes"/>
      <point x="-63" y="-177"/>
      <point x="-11" y="-223"/>
      <point x="90" y="-223" type="curve" smooth="yes"/>
      <point x="132" y="-223"/>
      <point x="171" y="-217"/>
      <point x="206" y="-207" type="curve"/>
      <point x="226" y="-91" type="line"/>
      <point x="191" y="-102"/>
      <point x="161" y="-107"/>
      <point x="138" y="-107" type="curve" smooth="yes"/>
      <point x="116" y="-107"/>
      <point x="106" y="-98"/>
      <point x="108" y="-86" type="curve" smooth="yes"/>
      <point x="112" y="-66"/>
      <point x="136" y="-48"/>
      <point x="196" y="-21" type="curve" smooth="yes"/>
      <point x="242" y="0" type="line"/>
    </contour>
  </outline>
</glyph>
<glyph name="gravecomb" format="2">
  <advance width="324"/>
  <unicode hex="0300"/>
  <anchor x="191" y="564" name="_top"/>
  <outline>
    <contour>
      <point x="112" y="860" type="line"/>
      <point x="83" y="696" type="line"/>
      <point x="325" y="602" type="line"/>
      <point x="352" y="750" type="line"/>
    </contour>
  </outline>
</glyph>
<glyph name="acutecomb" format="2">
  <unicode hex="0301"/>
  <anchor x="191" y="564" name="_top"/>
  <outline>
    <contour>
      <point x="371" y="860" type="line"/>
      <point x="93" y="750" type="line"/>
      <point x="66" y="602" type="line"/>
      <point x="342" y="696" type="line"/>
    </contour>
  </outline>
</glyph>
<glyph name="circumflexcomb" format="2">
  <unicode hex="0302"/>
  <anchor x="226" y="564" name="_top"/>
  <outline>
    <contour>
      <point x="396" y="592" type="line"/>
      <point x="421" y="736" type="line"/>
      <point x="271" y="821" type="line"/>
      <point x="90" y="736" type="line"/>
      <point x="65" y="592" type="line"/>
      <point x="246" y="680" type="line"/>
    </contour>
  </outline>
</glyph>
<glyph name="macroncomb" format="2">
  <unicode hex="0304"/>
  <anchor x="275" y="564" name="_top"/>
  <outline>
    <contour>
      <point x="96" y="769" type="line"/>
      <point x="70" y="622" type="line"/>
      <point x="501" y="622" type="line"/>
      <point x="527" y="769" type="line"/>
    </contour>
  </outline>
</glyph>
<glyph name="brevecomb" format="2">
  <unicode hex="0306"/>
  <anchor x="248" y="564" name="_top"/>
  <outline>
    <contour>
      <point x="454" y="665"/>
      <point x="478" y="803" type="curve" smooth="yes"/>
      <point x="481" y="820" type="line"/>
      <point x="378" y="820" type="line"/>
      <point x="371" y="781"/>
      <point x="347" y="758"/>
      <point x="282" y="758" type="curve"/>
      <point x="217" y="758"/>
      <point x="201" y="781"/>
      <point x="208" y="820" type="curve"/>
      <point x="105" y="820" type="line"/>
      <point x="102" y="803" type="line" smooth="yes"/>
      <point x="78" y="665"/>
      <point x="149" y="600"/>
      <point x="254" y="600" type="curve"/>
      <point x="359" y="600"/>
    </contour>
  </outline>
</glyph>
<glyph name="dotaccentcomb" format="2">
  <advance width="192"/>
  <unicode hex="0307"/>
  <anchor x="147" y="564" name="_top"/>
  <outline>
    <contour>
      <point x="107" y="620"/>
      <point x="155" y="620" type="curve" smooth="yes"/>
      <point x="205" y="620"/>
      <point x="248" y="657"/>
      <point x="257" y="705" type="curve" smooth="yes"/>
      <point x="265" y="755"/>
      <point x="235" y="792"/>
      <point x="185" y="792" type="curve" smooth="yes"/>
      <point x="137" y="792"/>
      <point x="93" y="755"/>
      <point x="85" y="705" type="curve" smooth="yes"/>
      <point x="76" y="657"/>
    </contour>
  </outline>
</glyph>
<glyph name="dieresiscomb" format="2">
  <advance width="417"/>
  <unicode hex="0308"/>
  <anchor x="259" y="564" name="_top"/>
  <outline>
    <contour>
      <point x="113" y="620"/>
      <point x="155" y="620" type="curve" smooth="yes"/>
      <point x="210" y="620"/>
      <point x="258" y="665"/>
      <point x="258" y="721" type="curve" smooth="yes"/>
      <point x="258" y="763"/>
      <point x="230" y="792"/>
      <point x="185" y="792" type="curve" smooth="yes"/>
      <point x="132" y="792"/>
      <point x="83" y="747"/>
      <point x="83" y="689" type="curve" smooth="yes"/>
      <point x="83" y="649"/>
    </contour>
    <contour>
      <point x="338" y="620"/>
      <point x="380" y="620" type="curve" smooth="yes"/>
      <point x="435" y="620"/>
      <point x="483" y="665"/>
      <point x="483" y="721" type="curve" smooth="yes"/>
      <point x="483" y="763"/>
      <point x="455" y="792"/>
      <point x="410" y="792" type="curve" smooth="yes"/>
      <point x="357" y="792"/>
      <point x="308" y="747"/>
      <point x="308" y="689" type="curve" smooth="yes"/>
      <point x="308" y="649"/>
    </contour>
  </outline>
</glyph>
<glyph name="ringcomb" format="2">
  <unicode hex="030A"/>
  <anchor x="192" y="564" name="_top"/>
  <outline>
    <contour>
      <point x="103" y="807"/>
      <point x="88" y="725" type="curve"/>
      <point x="74" y="643"/>
      <point x="124" y="593"/>
      <point x="197" y="593" type="curve"/>
      <point x="270" y="593"/>
      <point x="338" y="643"/>
      <point x="352" y="725" type="curve"/>
      <point x="367" y="807"/>
      <point x="316" y="857"/>
      <point x="243" y="857" type="curve"/>
      <point x="170" y="857"/>
    </contour>
    <contour>
      <point x="271" y="754"/>
      <point x="266" y="725" type="curve"/>
      <point x="261" y="697"/>
      <point x="238" y="678"/>
      <point x="212" y="678" type="curve"/>
      <point x="186" y="678"/>
      <point x="169" y="697"/>
      <point x="174" y="725" type="curve"/>
      <point x="179" y="754"/>
      <point x="202" y="772"/>
      <point x="228" y="772" type="curve"/>
      <point x="254" y="772"/>
    </contour>
  </outline>
</glyph>
<glyph name="hungarumlautcomb" format="2">
  <unicode hex="030B"/>
  <anchor x="252" y="564" name="_top"/>
  <outline>
    <contour>
      <point x="602" y="845" type="line"/>
      <point x="434" y="845" type="line"/>
      <point x="286" y="601" type="line"/>
      <point x="419" y="601" type="line"/>
    </contour>
    <contour>
      <point x="357" y="845" type="line"/>
      <point x="189" y="845" type="line"/>
      <point x="66" y="601" type="line"/>
      <point x="199" y="601" type="line"/>
    </contour>
  </outline>
</glyph>
<glyph name="caroncomb" format="2">
  <unicode hex="030C"/>
  <anchor x="226" y="564" name="_top"/>
  <outline>
    <contour>
      <point x="436" y="821" type="line"/>
      <point x="256" y="733" type="line"/>
      <point x="105" y="821" type="line"/>
      <point x="80" y="677" type="line"/>
      <point x="231" y="592" type="line"/>
      <point x="411" y="677" type="line"/>
    </contour>
  </outline>
</glyph>
<glyph name="dvCandrabindu" format="2">
  <unicode hex="0901"/>
  <anchor x="9" y="740" name="_abvm.e"/>
  <outline>
    <contour>
      <point x="-83" y="807" type="curve" smooth="yes"/>
      <point x="85" y="807"/>
      <point x="186" y="887"/>
      <point x="212" y="1040" type="curve"/>
      <point x="49" y="1040" type="line"/>
      <point x="40" y="988"/>
      <point x="-4" y="950"/>
      <point x="-66" y="950" type="curve" smooth="yes"/>
      <point x="-129" y="950"/>
      <point x="-160" y="988"/>
      <point x="-151" y="1040" type="curve"/>
      <point x="-312" y="1040" type="line"/>
      <point x="-340" y="887"/>
      <point x="-234" y="807"/>
    </contour>
    <contour>
      <point x="-61" y="989" type="curve" smooth="yes"/>
      <point x="-18" y="989"/>
      <point x="19" y="1021"/>
      <point x="26" y="1062" type="curve" smooth="yes"/>
      <point x="33" y="1102"/>
      <point x="8" y="1135"/>
      <point x="-35" y="1135" type="curve" smooth="yes"/>
      <point x="-74" y="1135"/>
      <point x="-113" y="1102"/>
      <point x="-120" y="1062" type="curve" smooth="yes"/>
      <point x="-127" y="1021"/>
      <point x="-100" y="989"/>
    </contour>
  </outline>
</glyph>
<glyph name="dvVisarga" format="2">
  <advance width="310"/>
  <unicode hex="0903"/>
  <outline>
    <contour>
      <point x="160" y="340" type="curve" smooth="yes"/>
      <point x="223" y="340"/>
      <point x="283" y="391"/>
      <point x="294" y="453" type="curve" smooth="yes"/>
      <point x="305" y="516"/>
      <point x="263" y="567"/>
      <point x="200" y="567" type="curve" smooth="yes"/>
      <point x="137" y="567"/>
      <point x="77" y="516"/>
      <point x="66" y="453" type="curve" smooth="yes"/>
      <point x="55" y="391"/>
      <point x="97" y="340"/>
    </contour>
    <contour>
      <point x="110" y="59" type="curve" smooth="yes"/>
      <point x="173" y="59"/>
      <point x="233" y="109"/>
      <point x="244" y="171" type="curve" smooth="yes"/>
      <point x="255" y="235"/>
      <point x="213" y="285"/>
      <point x="150" y="285" type="curve" smooth="yes"/>
      <point x="87" y="285"/>
      <point x="27" y="235"/>
      <point x="16" y="171" type="curve" smooth="yes"/>
      <point x="5" y="109"/>
      <point x="47" y="59"/>
    </contour>
  </outline>
</glyph>
<glyph name="dvII" format="2">
  <advance width="577"/>
  <unicode hex="0908"/>
  <anchor x="452" y="740" name="abvm.e"/>
  <outline>
    <contour>
      <point x="-1" y="-89" type="line"/>
      <point x="192" y="-89" type="line"/>
      <point x="208" y="5" type="line"/>
      <point x="226" y="-8"/>
      <point x="259" y="-20"/>
      <point x="301" y="-21" type="curve" smooth="yes"/>
      <point x="406" y="-23"/>
      <point x="483" y="41"/>
      <point x="501" y="144" type="curve" smooth="yes"/>
      <point x="526" y="285"/>
      <point x="430" y="339"/>
      <point x="327" y="339" type="curve" smooth="yes"/>
      <point x="310" y="339"/>
      <point x="294" y="339"/>
      <point x="284" y="339" type="curve" smooth="yes"/>
      <point x="263" y="339"/>
      <point x="255" y="347"/>
      <point x="257" y="361" type="curve" smooth="yes"/>
      <point x="259" y="376"/>
      <point x="273" y="384"/>
      <point x="291" y="384" type="curve" smooth="yes"/>
      <point x="482" y="384" type="line"/>
      <point x="508" y="528" type="line"/>
      <point x="266" y="528" type="line" smooth="yes"/>
      <point x="162" y="528"/>
      <point x="74" y="482"/>
      <point x="55" y="370" type="curve" smooth="yes"/>
      <point x="35" y="254"/>
      <point x="120" y="204"/>
      <point x="194" y="199" type="curve" smooth="yes"/>
      <point x="221" y="197"/>
      <point x="241" y="197"/>
      <point x="262" y="197" type="curve" smooth="yes"/>
      <point x="300" y="197"/>
      <point x="313" y="184"/>
      <point x="310" y="161" type="curve" smooth="yes"/>
      <point x="307" y="141"/>
      <point x="290" y="128"/>
      <point x="265" y="128" type="curve" smooth="yes"/>
      <point x="240" y="128"/>
      <point x="223" y="140"/>
      <point x="227" y="169" type="curve"/>
      <point x="44" y="169" type="line"/>
    </contour>
    <contour>
      <point x="33" y="571" type="line"/>
      <point x="634" y="571" type="line"/>
      <point x="664" y="740" type="line"/>
      <point x="63" y="740" type="line"/>
    </contour>
    <contour>
      <point x="305" y="490" type="line"/>
      <point x="502" y="490" type="line"/>
      <point x="543" y="719" type="line"/>
      <point x="346" y="719" type="line"/>
    </contour>
    <contour>
      <point x="347" y="709" type="line"/>
      <point x="535" y="709" type="line"/>
      <point x="551" y="801" type="line" smooth="yes"/>
      <point x="558" y="842"/>
      <point x="570" y="862"/>
      <point x="597" y="862" type="curve" smooth="yes"/>
      <point x="619" y="862"/>
      <point x="629" y="843"/>
      <point x="618" y="802" type="curve"/>
      <point x="796" y="802" type="line"/>
      <point x="829" y="943"/>
      <point x="769" y="1030"/>
      <point x="623" y="1030" type="curve" smooth="yes"/>
      <point x="445" y="1030"/>
      <point x="382" y="901"/>
      <point x="363" y="798" type="curve" smooth="yes"/>
    </contour>
  </outline>
</glyph>
<glyph name="dvUU" format="2">
  <advance width="843"/>
  <unicode hex="090A"/>
  <anchor x="570" y="740" name="abvm.e"/>
  <outline>
    <contour>
      <point x="227" y="5" type="curve" smooth="yes"/>
      <point x="373" y="5"/>
      <point x="474" y="94"/>
      <point x="495" y="211" type="curve" smooth="yes"/>
      <point x="510" y="296"/>
      <point x="477" y="357"/>
      <point x="425" y="379" type="curve"/>
      <point x="428" y="393" type="line"/>
      <point x="476" y="406"/>
      <point x="519" y="456"/>
      <point x="533" y="538" type="curve" smooth="yes"/>
      <point x="562" y="700" type="line"/>
      <point x="366" y="700" type="line"/>
      <point x="339" y="547" type="line" smooth="yes"/>
      <point x="329" y="490"/>
      <point x="293" y="475"/>
      <point x="262" y="475" type="curve" smooth="yes"/>
      <point x="223" y="475" type="line"/>
      <point x="192" y="298" type="line"/>
      <point x="261" y="298" type="line" smooth="yes"/>
      <point x="302" y="298"/>
      <point x="316" y="272"/>
      <point x="311" y="240" type="curve" smooth="yes"/>
      <point x="305" y="207"/>
      <point x="281" y="186"/>
      <point x="249" y="186" type="curve" smooth="yes"/>
      <point x="215" y="186"/>
      <point x="198" y="210"/>
      <point x="205" y="245" type="curve"/>
      <point x="11" y="245" type="line"/>
      <point x="-17" y="91"/>
      <point x="74" y="5"/>
    </contour>
    <contour>
      <point x="567" y="14" type="curve" smooth="yes"/>
      <point x="694" y="14"/>
      <point x="770" y="95"/>
      <point x="788" y="194" type="curve" smooth="yes"/>
      <point x="811" y="326"/>
      <point x="731" y="390"/>
      <point x="587" y="390" type="curve" smooth="yes"/>
      <point x="421" y="390" type="line"/>
      <point x="422" y="230" type="line"/>
      <point x="562" y="230" type="line" smooth="yes"/>
      <point x="588" y="230"/>
      <point x="597" y="217"/>
      <point x="594" y="201" type="curve" smooth="yes"/>
      <point x="591" y="185"/>
      <point x="579" y="173"/>
      <point x="558" y="173" type="curve" smooth="yes"/>
      <point x="548" y="173"/>
      <point x="538" y="173"/>
      <point x="529" y="173" type="curve"/>
      <point x="502" y="21" type="line"/>
      <point x="525" y="16"/>
      <point x="546" y="14"/>
    </contour>
    <contour>
      <point x="24" y="571" type="line"/>
      <point x="889" y="571" type="line"/>
      <point x="919" y="740" type="line"/>
      <point x="54" y="740" type="line"/>
    </contour>
  </outline>
</glyph>
<glyph name="dvvR" format="2">
  <advance width="1071"/>
  <unicode hex="090B"/>
  <anchor x="720" y="740" name="abvm.e"/>
  <outline>
    <contour>
      <point x="398" y="0" type="line"/>
      <point x="585" y="0" type="line"/>
      <point x="686" y="571" type="line"/>
      <point x="1118" y="571" type="line"/>
      <point x="1147" y="740" type="line"/>
      <point x="54" y="740" type="line"/>
      <point x="25" y="571" type="line"/>
      <point x="499" y="571" type="line"/>
    </contour>
    <contour>
      <point x="5" y="0" type="line"/>
      <point x="266" y="0" type="line"/>
      <point x="546" y="204" type="line"/>
      <point x="491" y="327" type="line"/>
      <point x="6" y="8" type="line"/>
    </contour>
    <contour>
      <point x="513" y="172" type="line"/>
      <point x="547" y="356"/>
      <point x="519" y="510"/>
      <point x="333" y="510" type="curve" smooth="yes"/>
      <point x="170" y="510"/>
      <point x="61" y="391"/>
      <point x="32" y="227" type="curve"/>
      <point x="236" y="227" type="line"/>
      <point x="247" y="291"/>
      <point x="292" y="339"/>
      <point x="365" y="339" type="curve" smooth="yes"/>
      <point x="428" y="339"/>
      <point x="458" y="295"/>
      <point x="448" y="238" type="curve"/>
    </contour>
    <contour>
      <point x="871" y="-81" type="curve" smooth="yes"/>
      <point x="897" y="-81"/>
      <point x="931" y="-78"/>
      <point x="957" y="-74" type="curve"/>
      <point x="985" y="87" type="line"/>
      <point x="967" y="83"/>
      <point x="945" y="80"/>
      <point x="927" y="80" type="curve" smooth="yes"/>
      <point x="885" y="80"/>
      <point x="855" y="93"/>
      <point x="861" y="127" type="curve" smooth="yes"/>
      <point x="866" y="155"/>
      <point x="888" y="176"/>
      <point x="933" y="176" type="curve" smooth="yes"/>
      <point x="954" y="176" type="line"/>
      <point x="975" y="298" type="line"/>
      <point x="931" y="298" type="line" smooth="yes"/>
      <point x="799" y="298"/>
      <point x="686" y="236"/>
      <point x="663" y="108" type="curve" smooth="yes"/>
      <point x="642" y="-11"/>
      <point x="729" y="-81"/>
    </contour>
    <contour>
      <point x="598" y="299" type="line"/>
      <point x="731" y="299" type="line" smooth="yes"/>
      <point x="835" y="299"/>
      <point x="967" y="352"/>
      <point x="994" y="505" type="curve" smooth="yes"/>
      <point x="997" y="522" type="line"/>
      <point x="851" y="522" type="line"/>
      <point x="847" y="500" type="line" smooth="yes"/>
      <point x="842" y="471"/>
      <point x="819" y="459"/>
      <point x="790" y="459" type="curve" smooth="yes"/>
      <point x="626" y="459" type="line"/>
    </contour>
    <contour>
      <point x="790" y="176" type="line"/>
      <point x="964" y="176" type="line"/>
      <point x="1025" y="523" type="line"/>
      <point x="851" y="523" type="line"/>
    </contour>
  </outline>
</glyph>
<glyph name="dvvL" format="2">
  <advance width="909"/>
  <unicode hex="090C"/>
  <anchor x="791" y="740" name="abvm.e"/>
  <outline>
    <contour>
      <point x="719" y="-85" type="curve" smooth="yes"/>
      <point x="746" y="-85"/>
      <point x="774" y="-83"/>
      <point x="805" y="-79" type="curve"/>
      <point x="834" y="82" type="line"/>
      <point x="813" y="77"/>
      <point x="793" y="76"/>
      <point x="775" y="76" type="curve" smooth="yes"/>
      <point x="730" y="76"/>
      <point x="698" y="91"/>
      <point x="703" y="120" type="curve" smooth="yes"/>
      <point x="708" y="151"/>
      <point x="730" y="171"/>
      <point x="802" y="171" type="curve" smooth="yes"/>
      <point x="804" y="171"/>
      <point x="806" y="171"/>
      <point x="808" y="171" type="curve"/>
      <point x="824" y="201"/>
      <point x="836" y="234"/>
      <point x="842" y="271" type="curve" smooth="yes"/>
      <point x="871" y="447"/>
      <point x="770" y="519"/>
      <point x="657" y="519" type="curve" smooth="yes"/>
      <point x="568" y="519"/>
      <point x="500" y="481"/>
      <point x="460" y="424" type="curve"/>
      <point x="456" y="424" type="line"/>
      <point x="436" y="481"/>
      <point x="388" y="519"/>
      <point x="300" y="519" type="curve" smooth="yes"/>
      <point x="181" y="519"/>
      <point x="47" y="447"/>
      <point x="16" y="271" type="curve" smooth="yes"/>
      <point x="-12" y="112"/>
      <point x="67" y="12"/>
      <point x="242" y="12" type="curve" smooth="yes"/>
      <point x="249" y="12"/>
      <point x="261" y="12"/>
      <point x="278" y="13" type="curve"/>
      <point x="309" y="189" type="line"/>
      <point x="298" y="188"/>
      <point x="287" y="188"/>
      <point x="282" y="188" type="curve" smooth="yes"/>
      <point x="242" y="188"/>
      <point x="212" y="205"/>
      <point x="223" y="268" type="curve" smooth="yes"/>
      <point x="231" y="312"/>
      <point x="258" y="340"/>
      <point x="299" y="340" type="curve" smooth="yes"/>
      <point x="348" y="340"/>
      <point x="356" y="297"/>
      <point x="349" y="263" type="curve" smooth="yes"/>
      <point x="342" y="227" type="line"/>
      <point x="510" y="227" type="line"/>
      <point x="517" y="263" type="line" smooth="yes"/>
      <point x="524" y="297"/>
      <point x="544" y="340"/>
      <point x="593" y="340" type="curve" smooth="yes"/>
      <point x="629" y="340"/>
      <point x="647" y="314"/>
      <point x="639" y="272" type="curve" smooth="yes"/>
      <point x="636" y="256"/>
      <point x="634" y="241"/>
      <point x="624" y="226" type="curve"/>
      <point x="697" y="281" type="line"/>
      <point x="618" y="271"/>
      <point x="525" y="207"/>
      <point x="508" y="110" type="curve" smooth="yes"/>
      <point x="486" y="-16"/>
      <point x="573" y="-85"/>
    </contour>
    <contour>
      <point x="549" y="431" type="line"/>
      <point x="753" y="467" type="line"/>
      <point x="777" y="605" type="line"/>
      <point x="580" y="605" type="line"/>
    </contour>
    <contour>
      <point x="16" y="571" type="line"/>
      <point x="947" y="571" type="line"/>
      <point x="977" y="740" type="line"/>
      <point x="46" y="740" type="line"/>
    </contour>
  </outline>
</glyph>
<glyph name="dvEcandra" format="2">
  <advance width="653"/>
  <unicode hex="090D"/>
  <anchor x="510" y="977" name="abvm.e"/>
  <outline>
    <contour>
      <point x="376" y="808" type="curve" smooth="yes"/>
      <point x="557" y="808"/>
      <point x="654" y="899"/>
      <point x="679" y="1041" type="curve"/>
      <point x="505" y="1041" type="line"/>
      <point x="496" y="991"/>
      <point x="464" y="957"/>
      <point x="402" y="957" type="curve" smooth="yes"/>
      <point x="339" y="957"/>
      <point x="320" y="991"/>
      <point x="329" y="1041" type="curve"/>
      <point x="155" y="1041" type="line"/>
      <point x="130" y="899"/>
      <point x="194" y="808"/>
    </contour>
    <component base="dvE" xOffset="-27"/>
  </outline>
</glyph>
<glyph name="dvE" format="2">
  <advance width="652"/>
  <unicode hex="090F"/>
  <anchor x="507" y="740" name="abvm.e"/>
  <outline>
    <contour>
      <point x="281" y="19" type="curve" smooth="yes"/>
      <point x="428" y="19"/>
      <point x="533" y="99"/>
      <point x="557" y="243" type="curve"/>
      <point x="358" y="243" type="line"/>
      <point x="352" y="211"/>
      <point x="326" y="192"/>
      <point x="296" y="192" type="curve" smooth="yes"/>
      <point x="269" y="192"/>
      <point x="244" y="210"/>
      <point x="252" y="258" type="curve" smooth="yes"/>
      <point x="324" y="668" type="line"/>
      <point x="120" y="668" type="line"/>
      <point x="50" y="266" type="line" smooth="yes"/>
      <point x="25" y="121"/>
      <point x="108" y="19"/>
    </contour>
    <contour>
      <point x="323" y="298" type="line"/>
      <point x="509" y="270"/>
      <point x="590" y="362"/>
      <point x="617" y="515" type="curve" smooth="yes"/>
      <point x="644" y="668" type="line"/>
      <point x="446" y="668" type="line"/>
      <point x="420" y="520" type="line" smooth="yes"/>
      <point x="415" y="489"/>
      <point x="392" y="472"/>
      <point x="355" y="480" type="curve"/>
    </contour>
    <contour>
      <point x="23" y="571" type="line"/>
      <point x="698" y="571" type="line"/>
      <point x="728" y="740" type="line"/>
      <point x="53" y="740" type="line"/>
    </contour>
  </outline>
</glyph>
<glyph name="dvAI" format="2">
  <advance width="653"/>
  <unicode hex="0910"/>
  <anchor x="834" y="740" name="abvm.e"/>
  <outline>
    <contour>
      <point x="458" y="735" type="curve"/>
      <point x="648" y="735" type="line"/>
      <point x="561" y="978"/>
      <point x="509" y="1011"/>
      <point x="340" y="1012" type="curve"/>
      <point x="284" y="1012" type="line"/>
      <point x="255" y="849" type="line"/>
      <point x="314" y="849" type="line"/>
      <point x="397" y="849"/>
      <point x="412" y="830"/>
    </contour>
    <component base="dvE" xOffset="1"/>
  </outline>
</glyph>
<glyph name="dvKA" format="2">
  <advance width="946"/>
  <unicode hex="0915"/>
  <anchor x="645" y="740" name="abvm.e"/>
  <anchor x="515" y="0" name="blwm.u"/>
  <anchor x="515" y="0" name="blwm.virama"/>
  <outline>
    <contour>
      <point x="319" y="0" type="line"/>
      <point x="515" y="0" type="line"/>
      <point x="615" y="571" type="line"/>
      <point x="992" y="571" type="line"/>
      <point x="1022" y="740" type="line"/>
      <point x="54" y="740" type="line"/>
      <point x="24" y="571" type="line"/>
      <point x="419" y="571" type="line"/>
    </contour>
    <contour>
      <point x="196" y="43" type="curve" smooth="yes"/>
      <point x="305" y="43"/>
      <point x="376" y="111"/>
      <point x="394" y="217" type="curve"/>
      <point x="367" y="274" type="line"/>
      <point x="361" y="242"/>
      <point x="331" y="215"/>
      <point x="291" y="214" type="curve" smooth="yes"/>
      <point x="251" y="213"/>
      <point x="226" y="241"/>
      <point x="233" y="277" type="curve" smooth="yes"/>
      <point x="239" y="314"/>
      <point x="271" y="341"/>
      <point x="312" y="341" type="curve" smooth="yes"/>
      <point x="351" y="341"/>
      <point x="375" y="314"/>
      <point x="367" y="274" type="curve"/>
      <point x="418" y="343" type="line"/>
      <point x="436" y="443"/>
      <point x="391" y="513"/>
      <point x="277" y="513" type="curve" smooth="yes"/>
      <point x="141" y="513"/>
      <point x="51" y="420"/>
      <point x="27" y="283" type="curve" smooth="yes"/>
      <point x="2" y="146"/>
      <point x="77" y="43"/>
    </contour>
    <contour>
      <point x="644" y="56" type="curve" smooth="yes"/>
      <point x="762" y="56"/>
      <point x="860" y="129"/>
      <point x="887" y="273" type="curve" smooth="yes"/>
      <point x="911" y="401"/>
      <point x="853" y="513"/>
      <point x="723" y="513" type="curve" smooth="yes"/>
      <point x="626" y="513"/>
      <point x="557" y="449"/>
      <point x="541" y="353" type="curve"/>
      <point x="561" y="263" type="line"/>
      <point x="570" y="312"/>
      <point x="595" y="340"/>
      <point x="634" y="340" type="curve" smooth="yes"/>
      <point x="675" y="340"/>
      <point x="687" y="306"/>
      <point x="682" y="278" type="curve" smooth="yes"/>
      <point x="676" y="243"/>
      <point x="649" y="221"/>
      <point x="617" y="221" type="curve" smooth="yes"/>
      <point x="611" y="221"/>
      <point x="605" y="222"/>
      <point x="602" y="223" type="curve"/>
      <point x="574" y="65" type="line"/>
      <point x="600" y="58"/>
      <point x="620" y="56"/>
    </contour>
  </outline>
</glyph>
<glyph name="dvGHA" format="2">
  <advance width="691"/>
  <unicode hex="0918"/>
  <outline>
    <contour>
      <point x="216" y="87" type="curve" smooth="yes"/>
      <point x="318" y="87"/>
      <point x="406" y="136"/>
      <point x="455" y="237" type="curve"/>
      <point x="419" y="354" type="line"/>
      <point x="408" y="290"/>
      <point x="355" y="252"/>
      <point x="296" y="252" type="curve" smooth="yes"/>
      <point x="264" y="252"/>
      <point x="243" y="265"/>
      <point x="248" y="291" type="curve" smooth="yes"/>
      <point x="252" y="315"/>
      <point x="272" y="331"/>
      <point x="305" y="331" type="curve" smooth="yes"/>
      <point x="356" y="331" type="line"/>
      <point x="385" y="494" type="line"/>
      <point x="350" y="494" type="line" smooth="yes"/>
      <point x="304" y="494"/>
      <point x="294" y="518"/>
      <point x="300" y="552" type="curve" smooth="yes"/>
      <point x="317" y="647" type="line"/>
      <point x="113" y="647" type="line"/>
      <point x="94" y="542" type="line" smooth="yes"/>
      <point x="81" y="467"/>
      <point x="109" y="428"/>
      <point x="153" y="412" type="curve"/>
      <point x="153" y="408" type="line"/>
      <point x="104" y="390"/>
      <point x="50" y="342"/>
      <point x="37" y="269" type="curve" smooth="yes"/>
      <point x="17" y="154"/>
      <point x="107" y="87"/>
    </contour>
    <contour>
      <point x="357" y="0" type="line"/>
      <point x="562" y="0" type="line"/>
      <point x="666" y="594" type="line"/>
      <point x="461" y="594" type="line"/>
    </contour>
    <contour>
      <point x="24" y="571" type="line"/>
      <point x="737" y="571" type="line"/>
      <point x="767" y="740" type="line"/>
      <point x="54" y="740" type="line"/>
    </contour>
  </outline>
</glyph>
<glyph name="dvNGA" format="2">
  <advance width="730"/>
  <unicode hex="0919"/>
  <anchor x="544" y="740" name="abvm.e"/>
  <anchor x="324" y="-123" name="blwm.u"/>
  <anchor x="327" y="-23" name="blwm.virama"/>
  <outline>
    <contour>
      <point x="603" y="253" type="curve" smooth="yes"/>
      <point x="660" y="253"/>
      <point x="713" y="298"/>
      <point x="723" y="353" type="curve" smooth="yes"/>
      <point x="733" y="410"/>
      <point x="696" y="455"/>
      <point x="639" y="455" type="curve" smooth="yes"/>
      <point x="583" y="455"/>
      <point x="530" y="410"/>
      <point x="520" y="353" type="curve" smooth="yes"/>
      <point x="510" y="298"/>
      <point x="547" y="253"/>
    </contour>
    <contour>
      <point x="245" y="-24" type="curve" smooth="yes"/>
      <point x="395" y="-24"/>
      <point x="483" y="41"/>
      <point x="503" y="154" type="curve" smooth="yes"/>
      <point x="526" y="281"/>
      <point x="439" y="339"/>
      <point x="327" y="339" type="curve" smooth="yes"/>
      <point x="310" y="339"/>
      <point x="294" y="339"/>
      <point x="283" y="339" type="curve" smooth="yes"/>
      <point x="265" y="339"/>
      <point x="254" y="346"/>
      <point x="257" y="362" type="curve" smooth="yes"/>
      <point x="259" y="376"/>
      <point x="274" y="384"/>
      <point x="292" y="384" type="curve" smooth="yes"/>
      <point x="482" y="384" type="line"/>
      <point x="507" y="526" type="line"/>
      <point x="266" y="526" type="line" smooth="yes"/>
      <point x="161" y="526"/>
      <point x="72" y="473"/>
      <point x="54" y="369" type="curve" smooth="yes"/>
      <point x="29" y="227"/>
      <point x="161" y="197"/>
      <point x="232" y="197" type="curve" smooth="yes"/>
      <point x="244" y="197"/>
      <point x="255" y="197"/>
      <point x="264" y="197" type="curve" smooth="yes"/>
      <point x="303" y="197"/>
      <point x="314" y="182"/>
      <point x="310" y="162" type="curve" smooth="yes"/>
      <point x="306" y="139"/>
      <point x="283" y="128"/>
      <point x="256" y="128" type="curve" smooth="yes"/>
      <point x="236" y="128"/>
      <point x="205" y="135"/>
      <point x="208" y="169" type="curve"/>
      <point x="5" y="169" type="line"/>
      <point x="-11" y="40"/>
      <point x="104" y="-24"/>
    </contour>
    <contour>
      <point x="27" y="571" type="line"/>
      <point x="777" y="571" type="line"/>
      <point x="806" y="740" type="line"/>
      <point x="56" y="740" type="line"/>
    </contour>
    <contour>
      <point x="303" y="490" type="line"/>
      <point x="500" y="490" type="line"/>
      <point x="541" y="719" type="line"/>
      <point x="344" y="719" type="line"/>
    </contour>
  </outline>
</glyph>
<glyph name="dvJA" format="2">
  <advance width="872"/>
  <unicode hex="091C"/>
  <outline>
    <contour>
      <point x="245" y="80" type="curve" smooth="yes"/>
      <point x="397" y="80"/>
      <point x="502" y="179"/>
      <point x="526" y="319" type="curve" smooth="yes"/>
      <point x="555" y="481" type="line"/>
      <point x="356" y="481" type="line"/>
      <point x="328" y="325" type="line" smooth="yes"/>
      <point x="320" y="281"/>
      <point x="301" y="258"/>
      <point x="270" y="258" type="curve" smooth="yes"/>
      <point x="238" y="258"/>
      <point x="226" y="281"/>
      <point x="234" y="325" type="curve" smooth="yes"/>
      <point x="262" y="481" type="line"/>
      <point x="57" y="481" type="line"/>
      <point x="29" y="326" type="line" smooth="yes"/>
      <point x="2" y="178"/>
      <point x="92" y="80"/>
    </contour>
    <contour>
      <point x="419" y="308" type="line"/>
      <point x="608" y="308" type="line"/>
      <point x="639" y="481" type="line"/>
      <point x="450" y="481" type="line"/>
    </contour>
    <contour>
      <point x="538" y="0" type="line"/>
      <point x="742" y="0" type="line"/>
      <point x="849" y="611" type="line"/>
      <point x="645" y="611" type="line"/>
    </contour>
    <contour>
      <point x="24" y="571" type="line"/>
      <point x="918" y="571" type="line"/>
      <point x="948" y="740" type="line"/>
      <point x="54" y="740" type="line"/>
    </contour>
  </outline>
</glyph>
<glyph name="dvTTA" format="2">
  <advance width="643"/>
  <unicode hex="091F"/>
  <anchor x="570" y="740" name="abvm.e"/>
  <anchor x="371" y="-94" name="blwm.u"/>
  <anchor x="374" y="5" name="blwm.virama"/>
  <outline>
    <contour>
      <point x="281" y="5" type="curve" smooth="yes"/>
      <point x="455" y="5"/>
      <point x="578" y="109"/>
      <point x="606" y="270" type="curve"/>
      <point x="412" y="270" type="line"/>
      <point x="403" y="217"/>
      <point x="361" y="181"/>
      <point x="302" y="181" type="curve" smooth="yes"/>
      <point x="245" y="181"/>
      <point x="218" y="215"/>
      <point x="227" y="263" type="curve" smooth="yes"/>
      <point x="237" y="319"/>
      <point x="288" y="349"/>
      <point x="342" y="349" type="curve" smooth="yes"/>
      <point x="502" y="349" type="line"/>
      <point x="546" y="600" type="line"/>
      <point x="346" y="600" type="line"/>
      <point x="315" y="423" type="line"/>
      <point x="449" y="519" type="line"/>
      <point x="359" y="519" type="line" smooth="yes"/>
      <point x="173" y="519"/>
      <point x="49" y="426"/>
      <point x="23" y="270" type="curve" smooth="yes"/>
      <point x="-3" y="109"/>
      <point x="107" y="5"/>
    </contour>
    <contour>
      <point x="24" y="571" type="line"/>
      <point x="689" y="571" type="line"/>
      <point x="719" y="740" type="line"/>
      <point x="54" y="740" type="line"/>
    </contour>
  </outline>
</glyph>
<glyph name="dvTTHA" format="2">
  <advance width="667"/>
  <unicode hex="0920"/>
  <anchor x="501" y="740" name="abvm.e"/>
  <anchor x="364" y="-81" name="blwm.u"/>
  <anchor x="367" y="19" name="blwm.virama"/>
  <outline>
    <contour>
      <point x="279" y="19" type="curve" smooth="yes"/>
      <point x="441" y="19"/>
      <point x="580" y="105"/>
      <point x="608" y="268" type="curve" smooth="yes"/>
      <point x="640" y="445"/>
      <point x="503" y="534"/>
      <point x="353" y="534" type="curve" smooth="yes"/>
      <point x="206" y="534"/>
      <point x="55" y="461"/>
      <point x="25" y="284" type="curve" smooth="yes"/>
      <point x="-5" y="116"/>
      <point x="121" y="19"/>
    </contour>
    <contour>
      <point x="300" y="188" type="curve" smooth="yes"/>
      <point x="244" y="188"/>
      <point x="218" y="225"/>
      <point x="227" y="276" type="curve" smooth="yes"/>
      <point x="236" y="327"/>
      <point x="275" y="363"/>
      <point x="331" y="363" type="curve" smooth="yes"/>
      <point x="389" y="363"/>
      <point x="415" y="327"/>
      <point x="406" y="276" type="curve" smooth="yes"/>
      <point x="397" y="225"/>
      <point x="358" y="188"/>
    </contour>
    <contour>
      <point x="254" y="506" type="line"/>
      <point x="455" y="506" type="line"/>
      <point x="467" y="571" type="line"/>
      <point x="713" y="571" type="line"/>
      <point x="743" y="740" type="line"/>
      <point x="53" y="740" type="line"/>
      <point x="23" y="571" type="line"/>
      <point x="266" y="571" type="line"/>
    </contour>
  </outline>
</glyph>
<glyph name="dvDDA" format="2">
  <advance width="562"/>
  <unicode hex="0921"/>
  <anchor x="544" y="740" name="abvm.e"/>
  <anchor x="329" y="-124" name="blwm.u"/>
  <anchor x="333" y="-24" name="blwm.virama"/>
  <outline>
    <contour>
      <point x="245" y="-24" type="curve" smooth="yes"/>
      <point x="395" y="-24"/>
      <point x="483" y="41"/>
      <point x="503" y="154" type="curve" smooth="yes"/>
      <point x="526" y="281"/>
      <point x="439" y="339"/>
      <point x="327" y="339" type="curve" smooth="yes"/>
      <point x="310" y="339"/>
      <point x="294" y="339"/>
      <point x="283" y="339" type="curve" smooth="yes"/>
      <point x="265" y="339"/>
      <point x="254" y="346"/>
      <point x="257" y="362" type="curve" smooth="yes"/>
      <point x="259" y="376"/>
      <point x="274" y="384"/>
      <point x="292" y="384" type="curve" smooth="yes"/>
      <point x="481" y="384" type="line"/>
      <point x="496" y="526" type="line"/>
      <point x="266" y="526" type="line" smooth="yes"/>
      <point x="161" y="526"/>
      <point x="72" y="473"/>
      <point x="54" y="369" type="curve" smooth="yes"/>
      <point x="29" y="227"/>
      <point x="161" y="197"/>
      <point x="232" y="197" type="curve" smooth="yes"/>
      <point x="244" y="197"/>
      <point x="255" y="197"/>
      <point x="264" y="197" type="curve" smooth="yes"/>
      <point x="303" y="197"/>
      <point x="314" y="182"/>
      <point x="310" y="162" type="curve" smooth="yes"/>
      <point x="306" y="139"/>
      <point x="283" y="128"/>
      <point x="256" y="128" type="curve" smooth="yes"/>
      <point x="236" y="128"/>
      <point x="205" y="135"/>
      <point x="208" y="169" type="curve"/>
      <point x="5" y="169" type="line"/>
      <point x="-11" y="40"/>
      <point x="104" y="-24"/>
    </contour>
    <contour>
      <point x="27" y="571" type="line"/>
      <point x="609" y="571" type="line"/>
      <point x="638" y="740" type="line"/>
      <point x="56" y="740" type="line"/>
    </contour>
    <contour>
      <point x="303" y="490" type="line"/>
      <point x="481" y="384" type="line"/>
      <point x="541" y="719" type="line"/>
      <point x="344" y="719" type="line"/>
    </contour>
  </outline>
</glyph>
<glyph name="dvTA" format="2">
  <advance width="717"/>
  <unicode hex="0924"/>
  <outline>
    <contour>
      <point x="465" y="314" type="line"/>
      <point x="496" y="488" type="line"/>
      <point x="347" y="488" type="line" smooth="yes"/>
      <point x="195" y="488"/>
      <point x="48" y="422"/>
      <point x="20" y="248" type="curve" smooth="yes"/>
      <point x="-8" y="73"/>
      <point x="128" y="1"/>
      <point x="257" y="1" type="curve" smooth="yes"/>
      <point x="286" y="1" type="line"/>
      <point x="314" y="160" type="line"/>
      <point x="298" y="160" type="line"/>
      <point x="237" y="160"/>
      <point x="217" y="194"/>
      <point x="225" y="238" type="curve" smooth="yes"/>
      <point x="233" y="284"/>
      <point x="274" y="314"/>
      <point x="326" y="314" type="curve" smooth="yes"/>
    </contour>
    <contour>
      <point x="24" y="571" type="line"/>
      <point x="763" y="571" type="line"/>
      <point x="793" y="740" type="line"/>
      <point x="54" y="740" type="line"/>
    </contour>
    <contour>
      <point x="693" y="611" type="line"/>
      <point x="489" y="611" type="line"/>
      <point x="382" y="0" type="line"/>
      <point x="586" y="0" type="line"/>
    </contour>
  </outline>
</glyph>
<glyph name="dvDHA" format="2">
  <advance width="753"/>
  <unicode hex="0927"/>
  <outline>
    <contour>
      <point x="237" y="65" type="curve" smooth="yes"/>
      <point x="373" y="65"/>
      <point x="465" y="124"/>
      <point x="512" y="227" type="curve"/>
      <point x="491" y="384" type="line"/>
      <point x="475" y="292"/>
      <point x="411" y="231"/>
      <point x="320" y="231" type="curve" smooth="yes"/>
      <point x="270" y="231"/>
      <point x="245" y="246"/>
      <point x="250" y="274" type="curve" smooth="yes"/>
      <point x="256" y="308"/>
      <point x="291" y="318"/>
      <point x="333" y="318" type="curve" smooth="yes"/>
      <point x="385" y="318" type="line"/>
      <point x="414" y="481" type="line"/>
      <point x="322" y="481" type="line" smooth="yes"/>
      <point x="285" y="481"/>
      <point x="243" y="490"/>
      <point x="254" y="543" type="curve" smooth="yes"/>
      <point x="259" y="565"/>
      <point x="272" y="579"/>
      <point x="290" y="579" type="curve" smooth="yes"/>
      <point x="320" y="579"/>
      <point x="319" y="549"/>
      <point x="314" y="528" type="curve"/>
      <point x="463" y="528" type="line"/>
      <point x="504" y="664"/>
      <point x="439" y="749"/>
      <point x="302" y="749" type="curve" smooth="yes"/>
      <point x="191" y="749"/>
      <point x="105" y="688"/>
      <point x="86" y="572" type="curve" smooth="yes"/>
      <point x="69" y="477"/>
      <point x="120" y="419"/>
      <point x="176" y="398" type="curve"/>
      <point x="175" y="394" type="line"/>
      <point x="125" y="380"/>
      <point x="54" y="337"/>
      <point x="39" y="251" type="curve" smooth="yes"/>
      <point x="18" y="128"/>
      <point x="112" y="65"/>
    </contour>
    <contour>
      <point x="423" y="0" type="line"/>
      <point x="627" y="0" type="line"/>
      <point x="733" y="599" type="line"/>
      <point x="529" y="599" type="line"/>
    </contour>
    <contour>
      <point x="524" y="571" type="line"/>
      <point x="800" y="571" type="line"/>
      <point x="829" y="740" type="line"/>
      <point x="553" y="740" type="line"/>
    </contour>
  </outline>
</glyph>
<glyph name="dvPA" format="2">
  <advance width="691"/>
  <unicode hex="092A"/>
  <outline>
    <contour>
      <point x="258" y="136" type="curve" smooth="yes"/>
      <point x="383" y="136"/>
      <point x="451" y="218"/>
      <point x="476" y="327" type="curve"/>
      <point x="427" y="399" type="line"/>
      <point x="418" y="345"/>
      <point x="388" y="307"/>
      <point x="336" y="307" type="curve" smooth="yes"/>
      <point x="275" y="307"/>
      <point x="256" y="349"/>
      <point x="266" y="401" type="curve" smooth="yes"/>
      <point x="300" y="592" type="line"/>
      <point x="96" y="592" type="line"/>
      <point x="62" y="401" type="line" smooth="yes"/>
      <point x="34" y="253"/>
      <point x="107" y="136"/>
    </contour>
    <contour>
      <point x="357" y="0" type="line"/>
      <point x="561" y="0" type="line"/>
      <point x="663" y="582" type="line"/>
      <point x="459" y="582" type="line"/>
    </contour>
    <contour>
      <point x="24" y="571" type="line"/>
      <point x="737" y="571" type="line"/>
      <point x="767" y="740" type="line"/>
      <point x="54" y="740" type="line"/>
    </contour>
  </outline>
</glyph>
<glyph name="dvYA" format="2">
  <advance width="769"/>
  <unicode hex="092F"/>
  <outline>
    <contour>
      <point x="280" y="63" type="curve" smooth="yes"/>
      <point x="433" y="63"/>
      <point x="531" y="163"/>
      <point x="552" y="287" type="curve"/>
      <point x="500" y="375" type="line"/>
      <point x="486" y="295"/>
      <point x="432" y="232"/>
      <point x="342" y="232" type="curve" smooth="yes"/>
      <point x="265" y="232"/>
      <point x="232" y="276"/>
      <point x="241" y="324" type="curve" smooth="yes"/>
      <point x="243" y="338"/>
      <point x="248" y="351"/>
      <point x="253" y="365" type="curve"/>
      <point x="142" y="309" type="line"/>
      <point x="184" y="309" type="line" smooth="yes"/>
      <point x="336" y="309"/>
      <point x="394" y="402"/>
      <point x="411" y="502" type="curve" smooth="yes"/>
      <point x="429" y="601" type="line"/>
      <point x="228" y="601" type="line"/>
      <point x="217" y="540" type="line" smooth="yes"/>
      <point x="205" y="474"/>
      <point x="181" y="414"/>
      <point x="67" y="414" type="curve" smooth="yes"/>
      <point x="59" y="414" type="line"/>
      <point x="52" y="390"/>
      <point x="46" y="368"/>
      <point x="42" y="345" type="curve" smooth="yes"/>
      <point x="12" y="177"/>
      <point x="109" y="63"/>
    </contour>
    <contour>
      <point x="434" y="0" type="line"/>
      <point x="638" y="0" type="line"/>
      <point x="744" y="601" type="line"/>
      <point x="540" y="601" type="line"/>
    </contour>
    <contour>
      <point x="24" y="571" type="line"/>
      <point x="815" y="571" type="line"/>
      <point x="845" y="740" type="line"/>
      <point x="54" y="740" type="line"/>
    </contour>
  </outline>
</glyph>
<glyph name="dvRA" format="2">
  <advance width="529"/>
  <unicode hex="0930"/>
  <anchor x="542" y="740" name="abvm.e"/>
  <outline>
    <contour>
      <point x="227" y="-9" type="curve" smooth="yes"/>
      <point x="366" y="-9"/>
      <point x="451" y="76"/>
      <point x="473" y="206" type="curve" smooth="yes"/>
      <point x="474" y="211"/>
      <point x="475" y="220"/>
      <point x="476" y="232" type="curve"/>
      <point x="281" y="232" type="line"/>
      <point x="276" y="199" type="line" smooth="yes"/>
      <point x="272" y="180"/>
      <point x="261" y="164"/>
      <point x="243" y="164" type="curve" smooth="yes"/>
      <point x="223" y="164"/>
      <point x="219" y="180"/>
      <point x="223" y="199" type="curve" smooth="yes"/>
      <point x="253" y="372" type="line"/>
      <point x="137" y="275" type="line"/>
      <point x="211" y="275" type="line" smooth="yes"/>
      <point x="412" y="275"/>
      <point x="482" y="400"/>
      <point x="508" y="545" type="curve" smooth="yes"/>
      <point x="517" y="598" type="line"/>
      <point x="313" y="598" type="line"/>
      <point x="304" y="545" type="line" smooth="yes"/>
      <point x="293" y="484"/>
      <point x="264" y="438"/>
      <point x="161" y="438" type="curve" smooth="yes"/>
      <point x="63" y="438" type="line"/>
      <point x="22" y="209" type="line" smooth="yes"/>
      <point x="0" y="88"/>
      <point x="74" y="-9"/>
    </contour>
    <contour>
      <point x="25" y="571" type="line"/>
      <point x="575" y="571" type="line"/>
      <point x="605" y="740" type="line"/>
      <point x="55" y="740" type="line"/>
    </contour>
  </outline>
</glyph>
<glyph name="dvLLA" format="2">
  <advance width="936"/>
  <unicode hex="0933"/>
  <anchor x="848" y="740" name="abvm.e"/>
  <anchor x="699" y="-67" name="blwm.u"/>
  <anchor x="697" y="26" name="blwm.virama"/>
  <outline>
    <contour>
      <point x="215" y="26" type="curve" smooth="yes"/>
      <point x="293" y="26"/>
      <point x="370" y="57"/>
      <point x="421" y="127" type="curve"/>
      <point x="427" y="127" type="line"/>
      <point x="458" y="57"/>
      <point x="527" y="26"/>
      <point x="605" y="26" type="curve" smooth="yes"/>
      <point x="731" y="26"/>
      <point x="849" y="114"/>
      <point x="875" y="263" type="curve" smooth="yes"/>
      <point x="901" y="409"/>
      <point x="807" y="499"/>
      <point x="680" y="499" type="curve" smooth="yes"/>
      <point x="615" y="499"/>
      <point x="540" y="482"/>
      <point x="474" y="399" type="curve"/>
      <point x="470" y="399" type="line"/>
      <point x="429" y="482"/>
      <point x="357" y="499"/>
      <point x="292" y="499" type="curve" smooth="yes"/>
      <point x="165" y="499"/>
      <point x="47" y="409"/>
      <point x="21" y="263" type="curve" smooth="yes"/>
      <point x="-5" y="114"/>
      <point x="89" y="26"/>
    </contour>
    <contour>
      <point x="274" y="199" type="curve" smooth="yes"/>
      <point x="236" y="199"/>
      <point x="213" y="223"/>
      <point x="220" y="262" type="curve" smooth="yes"/>
      <point x="226" y="300"/>
      <point x="257" y="327"/>
      <point x="296" y="327" type="curve" smooth="yes"/>
      <point x="332" y="327"/>
      <point x="355" y="300"/>
      <point x="349" y="263" type="curve" smooth="yes"/>
      <point x="342" y="224"/>
      <point x="310" y="199"/>
    </contour>
    <contour>
      <point x="600" y="199" type="curve" smooth="yes"/>
      <point x="563" y="199"/>
      <point x="540" y="224"/>
      <point x="547" y="263" type="curve" smooth="yes"/>
      <point x="553" y="300"/>
      <point x="585" y="327"/>
      <point x="622" y="327" type="curve" smooth="yes"/>
      <point x="661" y="327"/>
      <point x="682" y="300"/>
      <point x="676" y="262" type="curve" smooth="yes"/>
      <point x="669" y="223"/>
      <point x="638" y="199"/>
    </contour>
    <contour>
      <point x="586" y="374" type="line"/>
      <point x="783" y="374" type="line"/>
      <point x="818" y="571" type="line"/>
      <point x="982" y="571" type="line"/>
      <point x="1012" y="740" type="line"/>
      <point x="52" y="740" type="line"/>
      <point x="22" y="571" type="line"/>
      <point x="621" y="571" type="line"/>
    </contour>
  </outline>
</glyph>
<glyph name="dvHA" format="2">
  <advance width="594"/>
  <unicode hex="0939"/>
  <anchor x="550" y="740" name="abvm.e"/>
  <anchor x="331" y="-210" name="blwm.u"/>
  <anchor x="330" y="-117" name="blwm.virama"/>
  <outline>
    <contour>
      <point x="194" y="260" type="curve"/>
      <point x="306" y="333" type="line"/>
      <point x="286" y="335"/>
      <point x="280" y="348"/>
      <point x="283" y="360" type="curve" smooth="yes"/>
      <point x="286" y="380"/>
      <point x="302" y="388"/>
      <point x="321" y="388" type="curve" smooth="yes"/>
      <point x="488" y="388" type="line"/>
      <point x="514" y="531" type="line"/>
      <point x="272" y="531" type="line" smooth="yes"/>
      <point x="167" y="531"/>
      <point x="101" y="475"/>
      <point x="88" y="402" type="curve" smooth="yes"/>
      <point x="76" y="334"/>
      <point x="110" y="282"/>
    </contour>
    <contour>
      <point x="318" y="522" type="line"/>
      <point x="514" y="531" type="line"/>
      <point x="521" y="571" type="line"/>
      <point x="641" y="571" type="line"/>
      <point x="671" y="740" type="line"/>
      <point x="65" y="740" type="line"/>
      <point x="35" y="571" type="line"/>
      <point x="327" y="571" type="line"/>
    </contour>
    <contour>
      <point x="310" y="344" type="curve" smooth="yes"/>
      <point x="172" y="344"/>
      <point x="44" y="278"/>
      <point x="18" y="132" type="curve" smooth="yes"/>
      <point x="-9" y="-17"/>
      <point x="90" y="-117"/>
      <point x="240" y="-117" type="curve" smooth="yes"/>
      <point x="376" y="-117"/>
      <point x="484" y="-39"/>
      <point x="511" y="86" type="curve"/>
      <point x="316" y="86" type="line"/>
      <point x="306" y="64"/>
      <point x="283" y="50"/>
      <point x="258" y="50" type="curve" smooth="yes"/>
      <point x="232" y="50"/>
      <point x="205" y="68"/>
      <point x="214" y="118" type="curve" smooth="yes"/>
      <point x="222" y="165"/>
      <point x="255" y="184"/>
      <point x="280" y="184" type="curve" smooth="yes"/>
      <point x="308" y="184"/>
      <point x="327" y="167"/>
      <point x="326" y="144" type="curve"/>
      <point x="521" y="144" type="line"/>
      <point x="536" y="243"/>
      <point x="464" y="344"/>
    </contour>
  </outline>
</glyph>
<glyph name="dvNukta" format="2">
  <unicode hex="093C"/>
  <outline>
    <contour>
      <point x="-255" y="-335" type="curve" smooth="yes"/>
      <point x="-191" y="-335"/>
      <point x="-132" y="-285"/>
      <point x="-121" y="-223" type="curve" smooth="yes"/>
      <point x="-110" y="-159"/>
      <point x="-151" y="-108"/>
      <point x="-215" y="-108" type="curve" smooth="yes"/>
      <point x="-278" y="-108"/>
      <point x="-337" y="-159"/>
      <point x="-348" y="-223" type="curve" smooth="yes"/>
      <point x="-359" y="-285"/>
      <point x="-318" y="-335"/>
    </contour>
  </outline>
</glyph>
<glyph name="dvAvagraha" format="2">
  <advance width="610"/>
  <unicode hex="093D"/>
  <outline>
    <contour>
      <point x="-11" y="37" type="line"/>
      <point x="280" y="37" type="line" smooth="yes"/>
      <point x="385" y="37"/>
      <point x="478" y="93"/>
      <point x="497" y="199" type="curve" smooth="yes"/>
      <point x="529" y="383"/>
      <point x="332" y="427"/>
      <point x="342" y="483" type="curve" smooth="yes"/>
      <point x="344" y="499"/>
      <point x="359" y="501"/>
      <point x="369" y="501" type="curve" smooth="yes"/>
      <point x="560" y="501" type="line"/>
      <point x="590" y="672" type="line"/>
      <point x="347" y="672" type="line" smooth="yes"/>
      <point x="240" y="672"/>
      <point x="157" y="617"/>
      <point x="139" y="515" type="curve" smooth="yes"/>
      <point x="107" y="334"/>
      <point x="304" y="288"/>
      <point x="294" y="230" type="curve" smooth="yes"/>
      <point x="291" y="213"/>
      <point x="278" y="207"/>
      <point x="256" y="207" type="curve" smooth="yes"/>
      <point x="19" y="207" type="line"/>
    </contour>
  </outline>
</glyph>
<glyph name="dvmAA" format="2">
  <advance width="335"/>
  <unicode hex="093E"/>
  <outline>
    <contour>
      <point x="1" y="0" type="line"/>
      <point x="205" y="0" type="line"/>
      <point x="305" y="571" type="line"/>
      <point x="381" y="571" type="line"/>
      <point x="411" y="740" type="line"/>
      <point x="54" y="740" type="line"/>
      <point x="24" y="571" type="line"/>
      <point x="101" y="571" type="line"/>
    </contour>
  </outline>
</glyph>
<glyph name="dvmU" format="2">
  <unicode hex="0941"/>
  <anchor x="-130" y="0" name="_blwm.u"/>
  <outline>
    <contour>
      <point x="-339" y="-365" type="curve" smooth="yes"/>
      <point x="-196" y="-365"/>
      <point x="-91" y="-286"/>
      <point x="-76" y="-159" type="curve" smooth="yes"/>
      <point x="-59" y="-25"/>
      <point x="-139" y="52"/>
      <point x="-282" y="52" type="curve" smooth="yes"/>
      <point x="-325" y="52" type="line"/>
      <point x="-353" y="-105" type="line"/>
      <point x="-310" y="-105" type="line" smooth="yes"/>
      <point x="-263" y="-105"/>
      <point x="-245" y="-126"/>
      <point x="-250" y="-157" type="curve" smooth="yes"/>
      <point x="-255" y="-188"/>
      <point x="-282" y="-207"/>
      <point x="-326" y="-207" type="curve" smooth="yes"/>
      <point x="-380" y="-207"/>
      <point x="-415" y="-183"/>
      <point x="-402" y="-118" type="curve"/>
      <point x="-582" y="-118" type="line"/>
      <point x="-617" y="-304"/>
      <point x="-473" y="-365"/>
    </contour>
  </outline>
</glyph>
<glyph name="dvmvR" format="2">
  <unicode hex="0943"/>
  <anchor x="-130" y="0" name="_blwm.u"/>
  <outline>
    <contour>
      <point x="-262" y="-352" type="curve" smooth="yes"/>
      <point x="-222" y="-352"/>
      <point x="-180" y="-347"/>
      <point x="-136" y="-334" type="curve"/>
      <point x="-108" y="-177" type="line"/>
      <point x="-127" y="-182"/>
      <point x="-163" y="-191"/>
      <point x="-200" y="-191" type="curve" smooth="yes"/>
      <point x="-241" y="-191"/>
      <point x="-276" y="-173"/>
      <point x="-268" y="-135" type="curve" smooth="yes"/>
      <point x="-262" y="-105"/>
      <point x="-240" y="-90"/>
      <point x="-201" y="-90" type="curve" smooth="yes"/>
      <point x="-189" y="-90"/>
      <point x="-170" y="-90"/>
      <point x="-146" y="-90" type="curve"/>
      <point x="-122" y="46" type="line"/>
      <point x="-133" y="47"/>
      <point x="-183" y="48"/>
      <point x="-195" y="48" type="curve" smooth="yes"/>
      <point x="-345" y="48"/>
      <point x="-444" y="-19"/>
      <point x="-465" y="-138" type="curve" smooth="yes"/>
      <point x="-492" y="-290"/>
      <point x="-366" y="-352"/>
    </contour>
  </outline>
</glyph>
<glyph name="dvmvRR" format="2">
  <unicode hex="0944"/>
  <anchor x="-131" y="0" name="_blwm.u"/>
  <outline>
    <contour>
      <point x="-251" y="-503" type="curve" smooth="yes"/>
      <point x="-207" y="-503"/>
      <point x="-148" y="-496"/>
      <point x="-111" y="-482" type="curve"/>
      <point x="-84" y="-332" type="line"/>
      <point x="-99" y="-336"/>
      <point x="-146" y="-347"/>
      <point x="-191" y="-347" type="curve" smooth="yes"/>
      <point x="-222" y="-347"/>
      <point x="-262" y="-344"/>
      <point x="-256" y="-312" type="curve" smooth="yes"/>
      <point x="-250" y="-279"/>
      <point x="-215" y="-275"/>
      <point x="-178" y="-275" type="curve" smooth="yes"/>
      <point x="-127" y="-275" type="line"/>
      <point x="-101" y="-126" type="line"/>
      <point x="-165" y="-126" type="line" smooth="yes"/>
      <point x="-194" y="-126"/>
      <point x="-221" y="-119"/>
      <point x="-216" y="-93" type="curve" smooth="yes"/>
      <point x="-211" y="-66"/>
      <point x="-185" y="-60"/>
      <point x="-153" y="-60" type="curve" smooth="yes"/>
      <point x="-141" y="-60" type="line"/>
      <point x="-122" y="48" type="line"/>
      <point x="-216" y="48" type="line" smooth="yes"/>
      <point x="-285" y="48"/>
      <point x="-392" y="18"/>
      <point x="-410" y="-83" type="curve" smooth="yes"/>
      <point x="-423" y="-157"/>
      <point x="-379" y="-189"/>
      <point x="-326" y="-202" type="curve"/>
      <point x="-326" y="-206" type="line"/>
      <point x="-392" y="-221"/>
      <point x="-443" y="-270"/>
      <point x="-455" y="-334" type="curve" smooth="yes"/>
      <point x="-479" y="-460"/>
      <point x="-365" y="-503"/>
    </contour>
  </outline>
</glyph>
<glyph name="dvmEcandra" format="2">
  <unicode hex="0945"/>
  <anchor x="0" y="740" name="_abvm.e"/>
  <outline>
    <contour>
      <point x="-83" y="807" type="curve" smooth="yes"/>
      <point x="98" y="807"/>
      <point x="188" y="898"/>
      <point x="212" y="1040" type="curve"/>
      <point x="38" y="1040" type="line"/>
      <point x="29" y="990"/>
      <point x="-3" y="956"/>
      <point x="-65" y="956" type="curve" smooth="yes"/>
      <point x="-128" y="956"/>
      <point x="-147" y="990"/>
      <point x="-138" y="1040" type="curve"/>
      <point x="-312" y="1040" type="line"/>
      <point x="-338" y="898"/>
      <point x="-265" y="807"/>
    </contour>
  </outline>
</glyph>
<glyph name="dvmE" format="2">
  <unicode hex="0947"/>
  <anchor x="-1" y="740" name="_abvm.e"/>
  <outline>
    <contour>
      <point x="-193" y="735" type="curve"/>
      <point x="-3" y="735" type="line"/>
      <point x="-91" y="978"/>
      <point x="-142" y="1011"/>
      <point x="-312" y="1012" type="curve"/>
      <point x="-368" y="1012" type="line"/>
      <point x="-396" y="849" type="line"/>
      <point x="-337" y="849" type="line"/>
      <point x="-254" y="849"/>
      <point x="-239" y="830"/>
    </contour>
  </outline>
</glyph>
<glyph name="dvmAI" format="2">
  <unicode hex="0948"/>
  <anchor x="-7" y="740" name="_abvm.e"/>
  <outline>
    <contour>
      <point x="-141" y="737" type="curve"/>
      <point x="-10" y="737" type="line"/>
      <point x="-127" y="1075"/>
      <point x="-149" y="1091"/>
      <point x="-316" y="1091" type="curve" smooth="yes"/>
      <point x="-376" y="1091" type="line"/>
      <point x="-398" y="965" type="line"/>
      <point x="-333" y="965" type="line" smooth="yes"/>
      <point x="-253" y="965"/>
      <point x="-206" y="965"/>
    </contour>
    <contour>
      <point x="-184" y="737" type="curve"/>
      <point x="-45" y="737" type="line"/>
      <point x="-231" y="916"/>
      <point x="-207" y="916"/>
      <point x="-351" y="916" type="curve" smooth="yes"/>
      <point x="-407" y="916" type="line"/>
      <point x="-429" y="791" type="line"/>
      <point x="-368" y="791" type="line" smooth="yes"/>
      <point x="-260" y="791"/>
      <point x="-280" y="791"/>
    </contour>
  </outline>
</glyph>
<glyph name="dvVirama" format="2">
  <unicode hex="094D"/>
  <anchor x="-130" y="0" name="_blwm.virama"/>
  <outline>
    <contour>
      <point x="-247" y="-289" type="line"/>
      <point x="-40" y="-289" type="line"/>
      <point x="-137" y="-51" type="line"/>
      <point x="-339" y="-51" type="line"/>
    </contour>
  </outline>
</glyph>
<glyph name="dvOm" format="2">
  <advance width="1082"/>
  <unicode hex="0950"/>
  <outline>
    <contour>
      <point x="649" y="10" type="curve" smooth="yes"/>
      <point x="823" y="10"/>
      <point x="949" y="118"/>
      <point x="985" y="321" type="curve" smooth="yes"/>
      <point x="1005" y="433" type="line" smooth="yes"/>
      <point x="1032" y="591"/>
      <point x="979" y="680"/>
      <point x="814" y="680" type="curve" smooth="yes"/>
      <point x="646" y="680"/>
      <point x="573" y="598"/>
      <point x="547" y="451" type="curve" smooth="yes"/>
      <point x="534" y="381"/>
      <point x="510" y="366"/>
      <point x="445" y="366" type="curve" smooth="yes"/>
      <point x="346" y="366" type="line"/>
      <point x="319" y="208" type="line"/>
      <point x="449" y="208" type="line" smooth="yes"/>
      <point x="643" y="208"/>
      <point x="706" y="276"/>
      <point x="736" y="449" type="curve" smooth="yes"/>
      <point x="742" y="483"/>
      <point x="755" y="508"/>
      <point x="784" y="508" type="curve" smooth="yes"/>
      <point x="811" y="508"/>
      <point x="816" y="488"/>
      <point x="812" y="461" type="curve" smooth="yes"/>
      <point x="788" y="328" type="line" smooth="yes"/>
      <point x="773" y="242"/>
      <point x="738" y="182"/>
      <point x="641" y="182" type="curve" smooth="yes"/>
      <point x="622" y="182"/>
      <point x="601" y="185"/>
      <point x="576" y="188" type="curve"/>
      <point x="547" y="20" type="line"/>
      <point x="584" y="13"/>
      <point x="615" y="10"/>
    </contour>
    <contour>
      <point x="212" y="9" type="curve" smooth="yes"/>
      <point x="338" y="9"/>
      <point x="441" y="84"/>
      <point x="462" y="205" type="curve" smooth="yes"/>
      <point x="474" y="268"/>
      <point x="462" y="342"/>
      <point x="387" y="367" type="curve"/>
      <point x="388" y="371" type="line"/>
      <point x="452" y="396"/>
      <point x="497" y="449"/>
      <point x="510" y="519" type="curve" smooth="yes"/>
      <point x="530" y="632"/>
      <point x="461" y="705"/>
      <point x="327" y="705" type="curve" smooth="yes"/>
      <point x="186" y="705"/>
      <point x="82" y="618"/>
      <point x="60" y="494" type="curve"/>
      <point x="248" y="494" type="line"/>
      <point x="252" y="516"/>
      <point x="269" y="532"/>
      <point x="292" y="532" type="curve" smooth="yes"/>
      <point x="314" y="532"/>
      <point x="325" y="516"/>
      <point x="321" y="493" type="curve" smooth="yes"/>
      <point x="316" y="461"/>
      <point x="286" y="448"/>
      <point x="255" y="448" type="curve" smooth="yes"/>
      <point x="206" y="448" type="line"/>
      <point x="176" y="277" type="line"/>
      <point x="225" y="277" type="line" smooth="yes"/>
      <point x="267" y="277"/>
      <point x="284" y="256"/>
      <point x="279" y="226" type="curve" smooth="yes"/>
      <point x="275" y="201"/>
      <point x="258" y="183"/>
      <point x="231" y="183" type="curve" smooth="yes"/>
      <point x="204" y="183"/>
      <point x="194" y="204"/>
      <point x="198" y="224" type="curve"/>
      <point x="8" y="224" type="line"/>
      <point x="-15" y="96"/>
      <point x="61" y="9"/>
    </contour>
    <contour>
      <point x="596" y="714" type="curve" smooth="yes"/>
      <point x="764" y="714"/>
      <point x="867" y="794"/>
      <point x="890" y="947" type="curve"/>
      <point x="727" y="947" type="line"/>
      <point x="718" y="895"/>
      <point x="674" y="858"/>
      <point x="612" y="858" type="curve" smooth="yes"/>
      <point x="550" y="858"/>
      <point x="517" y="895"/>
      <point x="526" y="947" type="curve"/>
      <point x="365" y="947" type="line"/>
      <point x="339" y="804"/>
      <point x="428" y="714"/>
    </contour>
    <contour>
      <point x="617" y="896" type="curve" smooth="yes"/>
      <point x="659" y="896"/>
      <point x="696" y="928"/>
      <point x="703" y="969" type="curve" smooth="yes"/>
      <point x="710" y="1010"/>
      <point x="685" y="1043"/>
      <point x="643" y="1043" type="curve" smooth="yes"/>
      <point x="604" y="1043"/>
      <point x="565" y="1010"/>
      <point x="558" y="969" type="curve" smooth="yes"/>
      <point x="551" y="928"/>
      <point x="578" y="896"/>
    </contour>
  </outline>
</glyph>
<glyph name="dvvRR" format="2">
  <advance width="1074"/>
  <unicode hex="0960"/>
  <anchor x="712" y="740" name="abvm.e"/>
  <outline>
    <contour>
      <point x="398" y="0" type="line"/>
      <point x="585" y="0" type="line"/>
      <point x="685" y="571" type="line"/>
      <point x="1120" y="571" type="line"/>
      <point x="1150" y="740" type="line"/>
      <point x="54" y="740" type="line"/>
      <point x="24" y="571" type="line"/>
      <point x="498" y="571" type="line"/>
    </contour>
    <contour>
      <point x="5" y="0" type="line"/>
      <point x="266" y="0" type="line"/>
      <point x="546" y="204" type="line"/>
      <point x="490" y="327" type="line"/>
      <point x="6" y="8" type="line"/>
    </contour>
    <contour>
      <point x="513" y="172" type="line"/>
      <point x="547" y="356"/>
      <point x="519" y="510"/>
      <point x="333" y="510" type="curve" smooth="yes"/>
      <point x="170" y="510"/>
      <point x="61" y="391"/>
      <point x="32" y="227" type="curve"/>
      <point x="236" y="227" type="line"/>
      <point x="247" y="291"/>
      <point x="292" y="339"/>
      <point x="365" y="339" type="curve" smooth="yes"/>
      <point x="428" y="339"/>
      <point x="458" y="295"/>
      <point x="448" y="238" type="curve"/>
    </contour>
    <contour>
      <point x="833" y="-272" type="curve" smooth="yes"/>
      <point x="877" y="-272"/>
      <point x="935" y="-265"/>
      <point x="973" y="-250" type="curve"/>
      <point x="999" y="-101" type="line"/>
      <point x="984" y="-105"/>
      <point x="937" y="-116"/>
      <point x="892" y="-116" type="curve" smooth="yes"/>
      <point x="861" y="-116"/>
      <point x="822" y="-113"/>
      <point x="828" y="-80" type="curve" smooth="yes"/>
      <point x="834" y="-48"/>
      <point x="868" y="-44"/>
      <point x="904" y="-44" type="curve" smooth="yes"/>
      <point x="956" y="-44" type="line"/>
      <point x="982" y="106" type="line"/>
      <point x="918" y="106" type="line" smooth="yes"/>
      <point x="889" y="106"/>
      <point x="862" y="112"/>
      <point x="867" y="138" type="curve" smooth="yes"/>
      <point x="872" y="165"/>
      <point x="898" y="171"/>
      <point x="930" y="171" type="curve" smooth="yes"/>
      <point x="942" y="171" type="line"/>
      <point x="961" y="279" type="line"/>
      <point x="866" y="279" type="line" smooth="yes"/>
      <point x="797" y="279"/>
      <point x="692" y="249"/>
      <point x="674" y="149" type="curve" smooth="yes"/>
      <point x="661" y="75"/>
      <point x="704" y="42"/>
      <point x="758" y="30" type="curve"/>
      <point x="757" y="26" type="line"/>
      <point x="692" y="11"/>
      <point x="640" y="-39"/>
      <point x="629" y="-102" type="curve" smooth="yes"/>
      <point x="607" y="-228"/>
      <point x="719" y="-272"/>
    </contour>
    <contour>
      <point x="597" y="299" type="line"/>
      <point x="730" y="299" type="line" smooth="yes"/>
      <point x="834" y="299"/>
      <point x="967" y="352"/>
      <point x="994" y="505" type="curve" smooth="yes"/>
      <point x="997" y="522" type="line"/>
      <point x="851" y="522" type="line"/>
      <point x="847" y="500" type="line" smooth="yes"/>
      <point x="842" y="471"/>
      <point x="819" y="459"/>
      <point x="790" y="459" type="curve" smooth="yes"/>
      <point x="626" y="459" type="line"/>
    </contour>
    <contour>
      <point x="789" y="171" type="line"/>
      <point x="963" y="171" type="line"/>
      <point x="1025" y="523" type="line"/>
      <point x="851" y="523" type="line"/>
    </contour>
  </outline>
</glyph>
<glyph name="dvvLL" format="2">
  <advance width="921"/>
  <unicode hex="0961"/>
  <anchor x="791" y="740" name="abvm.e"/>
  <outline>
    <contour>
      <point x="242" y="12" type="curve" smooth="yes"/>
      <point x="249" y="12"/>
      <point x="261" y="12"/>
      <point x="277" y="13" type="curve"/>
      <point x="308" y="189" type="line"/>
      <point x="298" y="188"/>
      <point x="287" y="188"/>
      <point x="282" y="188" type="curve" smooth="yes"/>
      <point x="242" y="188"/>
      <point x="211" y="205"/>
      <point x="222" y="268" type="curve" smooth="yes"/>
      <point x="230" y="312"/>
      <point x="258" y="340"/>
      <point x="299" y="340" type="curve" smooth="yes"/>
      <point x="348" y="340"/>
      <point x="354" y="297"/>
      <point x="348" y="263" type="curve" smooth="yes"/>
      <point x="342" y="227" type="line"/>
      <point x="510" y="227" type="line"/>
      <point x="516" y="263" type="line" smooth="yes"/>
      <point x="522" y="297"/>
      <point x="544" y="340"/>
      <point x="593" y="340" type="curve" smooth="yes"/>
      <point x="629" y="340"/>
      <point x="647" y="314"/>
      <point x="639" y="272" type="curve" smooth="yes"/>
      <point x="636" y="256"/>
      <point x="630" y="241"/>
      <point x="624" y="226" type="curve"/>
      <point x="808" y="171" type="line"/>
      <point x="823" y="201"/>
      <point x="835" y="234"/>
      <point x="842" y="271" type="curve" smooth="yes"/>
      <point x="875" y="447"/>
      <point x="769" y="519"/>
      <point x="656" y="519" type="curve" smooth="yes"/>
      <point x="567" y="519"/>
      <point x="500" y="481"/>
      <point x="460" y="424" type="curve"/>
      <point x="456" y="424" type="line"/>
      <point x="436" y="481"/>
      <point x="387" y="519"/>
      <point x="299" y="519" type="curve" smooth="yes"/>
      <point x="180" y="519"/>
      <point x="47" y="447"/>
      <point x="16" y="271" type="curve" smooth="yes"/>
      <point x="-12" y="112"/>
      <point x="67" y="12"/>
    </contour>
    <contour>
      <point x="686" y="-272" type="curve" smooth="yes"/>
      <point x="730" y="-272"/>
      <point x="788" y="-265"/>
      <point x="826" y="-250" type="curve"/>
      <point x="852" y="-101" type="line"/>
      <point x="837" y="-105"/>
      <point x="790" y="-116"/>
      <point x="745" y="-116" type="curve" smooth="yes"/>
      <point x="714" y="-116"/>
      <point x="674" y="-113"/>
      <point x="680" y="-80" type="curve" smooth="yes"/>
      <point x="686" y="-48"/>
      <point x="720" y="-44"/>
      <point x="757" y="-44" type="curve" smooth="yes"/>
      <point x="809" y="-44" type="line"/>
      <point x="835" y="106" type="line"/>
      <point x="771" y="106" type="line" smooth="yes"/>
      <point x="742" y="106"/>
      <point x="714" y="112"/>
      <point x="719" y="138" type="curve" smooth="yes"/>
      <point x="724" y="165"/>
      <point x="751" y="171"/>
      <point x="783" y="171" type="curve"/>
      <point x="808" y="171" type="line"/>
      <point x="767" y="279" type="line"/>
      <point x="719" y="279" type="line" smooth="yes"/>
      <point x="650" y="279"/>
      <point x="545" y="249"/>
      <point x="527" y="149" type="curve" smooth="yes"/>
      <point x="514" y="75"/>
      <point x="557" y="42"/>
      <point x="611" y="30" type="curve"/>
      <point x="610" y="26" type="line"/>
      <point x="545" y="11"/>
      <point x="493" y="-39"/>
      <point x="482" y="-102" type="curve" smooth="yes"/>
      <point x="460" y="-228"/>
      <point x="572" y="-272"/>
    </contour>
    <contour>
      <point x="15" y="571" type="line"/>
      <point x="958" y="571" type="line"/>
      <point x="988" y="740" type="line"/>
      <point x="45" y="740" type="line"/>
    </contour>
    <contour>
      <point x="549" y="431" type="line"/>
      <point x="752" y="467" type="line"/>
      <point x="776" y="605" type="line"/>
      <point x="579" y="605" type="line"/>
    </contour>
  </outline>
</glyph>
<glyph name="dvmvL" format="2">
  <unicode hex="0962"/>
  <anchor x="-130" y="0" name="_blwm.u"/>
  <outline>
    <contour>
      <point x="-49" y="-486" type="curve" smooth="yes"/>
      <point x="-28" y="-486"/>
      <point x="-5" y="-484"/>
      <point x="18" y="-481" type="curve"/>
      <point x="40" y="-357" type="line"/>
      <point x="24" y="-361"/>
      <point x="8" y="-362"/>
      <point x="-6" y="-362" type="curve" smooth="yes"/>
      <point x="-39" y="-362"/>
      <point x="-63" y="-350"/>
      <point x="-59" y="-328" type="curve" smooth="yes"/>
      <point x="-55" y="-304"/>
      <point x="-38" y="-289"/>
      <point x="19" y="-289" type="curve" smooth="yes"/>
      <point x="21" y="-289"/>
      <point x="23" y="-289"/>
      <point x="25" y="-289" type="curve"/>
      <point x="36" y="-266"/>
      <point x="45" y="-241"/>
      <point x="50" y="-213" type="curve" smooth="yes"/>
      <point x="74" y="-78"/>
      <point x="-8" y="-23"/>
      <point x="-96" y="-23" type="curve" smooth="yes"/>
      <point x="-163" y="-23"/>
      <point x="-216" y="-52"/>
      <point x="-247" y="-95" type="curve"/>
      <point x="-250" y="-95" type="line"/>
      <point x="-265" y="-52"/>
      <point x="-302" y="-23"/>
      <point x="-369" y="-23" type="curve" smooth="yes"/>
      <point x="-460" y="-23"/>
      <point x="-564" y="-78"/>
      <point x="-587" y="-213" type="curve" smooth="yes"/>
      <point x="-608" y="-334"/>
      <point x="-547" y="-411"/>
      <point x="-413" y="-411" type="curve" smooth="yes"/>
      <point x="-408" y="-411"/>
      <point x="-399" y="-411"/>
      <point x="-387" y="-411" type="curve"/>
      <point x="-362" y="-274" type="line"/>
      <point x="-370" y="-276"/>
      <point x="-379" y="-276"/>
      <point x="-382" y="-276" type="curve" smooth="yes"/>
      <point x="-412" y="-276"/>
      <point x="-436" y="-263"/>
      <point x="-428" y="-215" type="curve" smooth="yes"/>
      <point x="-422" y="-181"/>
      <point x="-400" y="-160"/>
      <point x="-368" y="-160" type="curve" smooth="yes"/>
      <point x="-332" y="-160"/>
      <point x="-327" y="-192"/>
      <point x="-332" y="-219" type="curve" smooth="yes"/>
      <point x="-337" y="-246" type="line"/>
      <point x="-207" y="-246" type="line"/>
      <point x="-202" y="-219" type="line" smooth="yes"/>
      <point x="-197" y="-192"/>
      <point x="-181" y="-160"/>
      <point x="-144" y="-160" type="curve" smooth="yes"/>
      <point x="-117" y="-160"/>
      <point x="-104" y="-181"/>
      <point x="-110" y="-213" type="curve" smooth="yes"/>
      <point x="-112" y="-224"/>
      <point x="-113" y="-234"/>
      <point x="-121" y="-248" type="curve"/>
      <point x="-66" y="-205" type="line"/>
      <point x="-126" y="-212"/>
      <point x="-197" y="-261"/>
      <point x="-210" y="-335" type="curve" smooth="yes"/>
      <point x="-227" y="-432"/>
      <point x="-160" y="-486"/>
    </contour>
  </outline>
</glyph>
<glyph name="dvmvLL" format="2">
  <unicode hex="0963"/>
  <anchor x="-130" y="0" name="_blwm.u"/>
  <outline>
    <contour>
      <point x="-120" y="-248" type="curve"/>
      <point x="25" y="-289" type="line"/>
      <point x="36" y="-266"/>
      <point x="46" y="-241"/>
      <point x="51" y="-213" type="curve" smooth="yes"/>
      <point x="75" y="-78"/>
      <point x="-8" y="-23"/>
      <point x="-96" y="-23" type="curve" smooth="yes"/>
      <point x="-163" y="-23"/>
      <point x="-216" y="-52"/>
      <point x="-246" y="-95" type="curve"/>
      <point x="-249" y="-95" type="line"/>
      <point x="-265" y="-52"/>
      <point x="-302" y="-23"/>
      <point x="-369" y="-23" type="curve" smooth="yes"/>
      <point x="-460" y="-23"/>
      <point x="-561" y="-78"/>
      <point x="-586" y="-213" type="curve" smooth="yes"/>
      <point x="-608" y="-334"/>
      <point x="-546" y="-411"/>
      <point x="-412" y="-411" type="curve" smooth="yes"/>
      <point x="-407" y="-411"/>
      <point x="-398" y="-411"/>
      <point x="-386" y="-411" type="curve"/>
      <point x="-362" y="-274" type="line"/>
      <point x="-369" y="-276"/>
      <point x="-378" y="-276"/>
      <point x="-381" y="-276" type="curve" smooth="yes"/>
      <point x="-411" y="-276"/>
      <point x="-436" y="-263"/>
      <point x="-428" y="-215" type="curve" smooth="yes"/>
      <point x="-422" y="-181"/>
      <point x="-400" y="-160"/>
      <point x="-368" y="-160" type="curve" smooth="yes"/>
      <point x="-332" y="-160"/>
      <point x="-326" y="-192"/>
      <point x="-331" y="-219" type="curve" smooth="yes"/>
      <point x="-336" y="-246" type="line"/>
      <point x="-206" y="-246" type="line"/>
      <point x="-201" y="-219" type="line" smooth="yes"/>
      <point x="-196" y="-192"/>
      <point x="-181" y="-160"/>
      <point x="-144" y="-160" type="curve" smooth="yes"/>
      <point x="-117" y="-160"/>
      <point x="-103" y="-181"/>
      <point x="-109" y="-213" type="curve" smooth="yes"/>
      <point x="-111" y="-224"/>
      <point x="-113" y="-234"/>
    </contour>
    <contour>
      <point x="-74" y="-627" type="curve" smooth="yes"/>
      <point x="-38" y="-627"/>
      <point x="5" y="-622"/>
      <point x="33" y="-612" type="curve"/>
      <point x="54" y="-497" type="line"/>
      <point x="42" y="-500"/>
      <point x="7" y="-508"/>
      <point x="-27" y="-508" type="curve" smooth="yes"/>
      <point x="-52" y="-508"/>
      <point x="-82" y="-506"/>
      <point x="-78" y="-482" type="curve" smooth="yes"/>
      <point x="-73" y="-455"/>
      <point x="-48" y="-453"/>
      <point x="-18" y="-453" type="curve" smooth="yes"/>
      <point x="21" y="-453" type="line"/>
      <point x="42" y="-338" type="line"/>
      <point x="-5" y="-338" type="line" smooth="yes"/>
      <point x="-30" y="-338"/>
      <point x="-50" y="-332"/>
      <point x="-47" y="-314" type="curve" smooth="yes"/>
      <point x="-44" y="-294"/>
      <point x="-24" y="-289"/>
      <point x="2" y="-289" type="curve"/>
      <point x="25" y="-289" type="line"/>
      <point x="-12" y="-205" type="line"/>
      <point x="-48" y="-205" type="line" smooth="yes"/>
      <point x="-103" y="-205"/>
      <point x="-182" y="-228"/>
      <point x="-194" y="-305" type="curve" smooth="yes"/>
      <point x="-203" y="-361"/>
      <point x="-172" y="-388"/>
      <point x="-131" y="-398" type="curve"/>
      <point x="-131" y="-400" type="line"/>
      <point x="-181" y="-411"/>
      <point x="-220" y="-448"/>
      <point x="-229" y="-499" type="curve" smooth="yes"/>
      <point x="-246" y="-596"/>
      <point x="-161" y="-627"/>
    </contour>
  </outline>
</glyph>
<glyph name="doubledanda" format="2">
  <advance width="695"/>
  <unicode hex="0965"/>
  <outline>
    <contour>
      <point x="408" y="740" type="line"/>
      <point x="206" y="740" type="line"/>
      <point x="76" y="0" type="line"/>
      <point x="278" y="0" type="line"/>
    </contour>
    <contour>
      <point x="720" y="740" type="line"/>
      <point x="517" y="740" type="line"/>
      <point x="387" y="0" type="line"/>
      <point x="590" y="0" type="line"/>
    </contour>
  </outline>
</glyph>
<glyph name="dvAbbreviationsign" format="2">
  <advance width="465"/>
  <unicode hex="0970"/>
  <outline>
    <contour>
      <point x="367" y="500"/>
      <point x="264" y="500" type="curve"/>
      <point x="160" y="500"/>
      <point x="75" y="429"/>
      <point x="57" y="328" type="curve" smooth="yes"/>
      <point x="39" y="228"/>
      <point x="100" y="157"/>
      <point x="204" y="157" type="curve"/>
      <point x="307" y="157"/>
      <point x="390" y="228"/>
      <point x="408" y="328" type="curve" smooth="yes"/>
      <point x="426" y="429"/>
    </contour>
    <contour>
      <point x="211" y="381"/>
      <point x="243" y="381" type="curve" smooth="yes"/>
      <point x="273" y="381"/>
      <point x="291" y="359"/>
      <point x="286" y="328" type="curve" smooth="yes"/>
      <point x="280" y="297"/>
      <point x="255" y="276"/>
      <point x="225" y="276" type="curve" smooth="yes"/>
      <point x="193" y="276"/>
      <point x="172" y="297"/>
      <point x="178" y="328" type="curve" smooth="yes"/>
      <point x="183" y="359"/>
    </contour>
  </outline>
</glyph>
<glyph name="emdash" format="2">
  <advance width="936"/>
  <unicode hex="2014"/>
  <outline>
    <contour>
      <point x="82" y="433" type="line"/>
      <point x="49" y="250" type="line"/>
      <point x="875" y="250" type="line"/>
      <point x="908" y="433" type="line"/>
    </contour>
  </outline>
</glyph>
<glyph name="quoteleft" format="2">
  <advance width="378"/>
  <unicode hex="2018"/>
  <outline>
    <contour>
      <point x="389" y="708" type="line"/>
      <point x="243" y="708" type="line"/>
      <point x="73" y="413" type="line"/>
      <point x="293" y="413" type="line"/>
    </contour>
  </outline>
</glyph>
<glyph name="quoteright" format="2">
  <advance width="378"/>
  <unicode hex="2019"/>
  <guideline x="429" y="708" angle="0"/>
  <outline>
    <contour>
      <point x="87" y="413" type="line"/>
      <point x="233" y="413" type="line"/>
      <point x="403" y="708" type="line"/>
      <point x="183" y="708" type="line"/>
    </contour>
  </outline>
</glyph>
<glyph name="quotesinglbase" format="2">
  <advance width="362"/>
  <unicode hex="201A"/>
  <outline>
    <contour>
      <point x="-11" y="-107" type="line"/>
      <point x="135" y="-107" type="line"/>
      <point x="305" y="188" type="line"/>
      <point x="85" y="188" type="line"/>
    </contour>
  </outline>
</glyph>
<glyph name="quotedblright" format="2">
  <advance width="660"/>
  <unicode hex="201D"/>
  <outline>
    <contour>
      <point x="369" y="413" type="line"/>
      <point x="515" y="413" type="line"/>
      <point x="685" y="708" type="line"/>
      <point x="465" y="708" type="line"/>
    </contour>
    <contour>
      <point x="87" y="413" type="line"/>
      <point x="233" y="413" type="line"/>
      <point x="403" y="708" type="line"/>
      <point x="183" y="708" type="line"/>
    </contour>
  </outline>
</glyph>
<glyph name="quotedblbase" format="2">
  <advance width="631"/>
  <unicode hex="201E"/>
  <outline>
    <contour>
      <point x="-11" y="-107" type="line"/>
      <point x="135" y="-107" type="line"/>
      <point x="305" y="188" type="line"/>
      <point x="85" y="188" type="line"/>
    </contour>
    <contour>
      <point x="257" y="-107" type="line"/>
      <point x="403" y="-107" type="line"/>
      <point x="573" y="188" type="line"/>
      <point x="353" y="188" type="line"/>
    </contour>
  </outline>
</glyph>
<glyph name="daggerdbl" format="2">
  <advance width="716"/>
  <unicode hex="2021"/>
  <outline>
    <contour>
      <point x="686" y="398" type="line"/>
      <point x="716" y="564" type="line"/>
      <point x="494" y="549" type="line"/>
      <point x="558" y="794" type="line"/>
      <point x="336" y="794" type="line"/>
      <point x="315" y="549" type="line"/>
      <point x="100" y="564" type="line"/>
      <point x="70" y="398" type="line"/>
      <point x="291" y="413" type="line"/>
      <point x="238" y="111" type="line"/>
      <point x="23" y="127" type="line"/>
      <point x="-7" y="-40" type="line"/>
      <point x="214" y="-25" type="line"/>
      <point x="149" y="-270" type="line"/>
      <point x="371" y="-270" type="line"/>
      <point x="393" y="-25" type="line"/>
      <point x="609" y="-40" type="line"/>
      <point x="639" y="127" type="line"/>
      <point x="417" y="111" type="line"/>
      <point x="470" y="413" type="line"/>
    </contour>
  </outline>
</glyph>
<glyph name="bullet" format="2">
  <advance width="536"/>
  <unicode hex="2022"/>
  <outline>
    <contour>
      <point x="154" y="166"/>
      <point x="248" y="166" type="curve" smooth="yes"/>
      <point x="343" y="166"/>
      <point x="428" y="239"/>
      <point x="445" y="333" type="curve" smooth="yes"/>
      <point x="462" y="428"/>
      <point x="402" y="502"/>
      <point x="307" y="502" type="curve" smooth="yes"/>
      <point x="213" y="502"/>
      <point x="126" y="428"/>
      <point x="109" y="333" type="curve" smooth="yes"/>
      <point x="92" y="239"/>
    </contour>
  </outline>
</glyph>
<glyph name="perthousand" format="2">
  <advance width="1284"/>
  <unicode hex="2030"/>
  <outline>
    <contour>
      <point x="87" y="662"/>
      <point x="65" y="540" type="curve" smooth="yes"/>
      <point x="44" y="419"/>
      <point x="112" y="360"/>
      <point x="215" y="360" type="curve" smooth="yes"/>
      <point x="317" y="360"/>
      <point x="404" y="419"/>
      <point x="425" y="540" type="curve" smooth="yes"/>
      <point x="447" y="662"/>
      <point x="380" y="721"/>
      <point x="278" y="721" type="curve" smooth="yes"/>
      <point x="175" y="721"/>
    </contour>
    <contour>
      <point x="232" y="592"/>
      <point x="254" y="592" type="curve" smooth="yes"/>
      <point x="277" y="592"/>
      <point x="288" y="575"/>
      <point x="281" y="540" type="curve" smooth="yes"/>
      <point x="275" y="506"/>
      <point x="258" y="489"/>
      <point x="235" y="489" type="curve" smooth="yes"/>
      <point x="213" y="489"/>
      <point x="204" y="506"/>
      <point x="210" y="540" type="curve" smooth="yes"/>
      <point x="217" y="575"/>
    </contour>
    <contour>
      <point x="605" y="711" type="line"/>
      <point x="106" y="0" type="line"/>
      <point x="318" y="0" type="line"/>
      <point x="817" y="711" type="line"/>
    </contour>
    <contour>
      <point x="519" y="293"/>
      <point x="497" y="171" type="curve" smooth="yes"/>
      <point x="476" y="49"/>
      <point x="544" y="-10"/>
      <point x="646" y="-10" type="curve" smooth="yes"/>
      <point x="749" y="-10"/>
      <point x="835" y="49"/>
      <point x="856" y="171" type="curve" smooth="yes"/>
      <point x="878" y="293"/>
      <point x="812" y="352"/>
      <point x="709" y="352" type="curve" smooth="yes"/>
      <point x="607" y="352"/>
    </contour>
    <contour>
      <point x="663" y="223"/>
      <point x="686" y="223" type="curve" smooth="yes"/>
      <point x="708" y="223"/>
      <point x="718" y="205"/>
      <point x="712" y="171" type="curve" smooth="yes"/>
      <point x="706" y="136"/>
      <point x="689" y="119"/>
      <point x="667" y="119" type="curve" smooth="yes"/>
      <point x="644" y="119"/>
      <point x="635" y="136"/>
      <point x="641" y="171" type="curve" smooth="yes"/>
      <point x="647" y="205"/>
    </contour>
    <contour>
      <point x="906" y="293"/>
      <point x="884" y="171" type="curve" smooth="yes"/>
      <point x="863" y="49"/>
      <point x="931" y="-10"/>
      <point x="1034" y="-10" type="curve" smooth="yes"/>
      <point x="1136" y="-10"/>
      <point x="1223" y="49"/>
      <point x="1244" y="171" type="curve" smooth="yes"/>
      <point x="1266" y="293"/>
      <point x="1199" y="352"/>
      <point x="1097" y="352" type="curve" smooth="yes"/>
      <point x="994" y="352"/>
    </contour>
    <contour>
      <point x="1051" y="223"/>
      <point x="1073" y="223" type="curve" smooth="yes"/>
      <point x="1096" y="223"/>
      <point x="1106" y="205"/>
      <point x="1100" y="171" type="curve" smooth="yes"/>
      <point x="1094" y="136"/>
      <point x="1077" y="119"/>
      <point x="1054" y="119" type="curve" smooth="yes"/>
      <point x="1032" y="119"/>
      <point x="1023" y="136"/>
      <point x="1029" y="171" type="curve" smooth="yes"/>
      <point x="1035" y="205"/>
    </contour>
  </outline>
</glyph>
<glyph name="guilsinglright" format="2">
  <advance width="373"/>
  <unicode hex="203A"/>
  <outline>
    <contour>
      <point x="21" y="120" type="line"/>
      <point x="223" y="120" type="line"/>
      <point x="330" y="295" type="line"/>
      <point x="285" y="470" type="line"/>
      <point x="83" y="470" type="line"/>
      <point x="132" y="295" type="line"/>
    </contour>
  </outline>
</glyph>
<glyph name="fraction" format="2">
  <advance width="554"/>
  <unicode hex="2044"/>
  <outline>
    <contour>
      <point x="444" y="711" type="line"/>
      <point x="-80" y="0" type="line"/>
      <point x="137" y="0" type="line"/>
      <point x="660" y="711" type="line"/>
    </contour>
  </outline>
</glyph>
<glyph name="rupee" format="2">
  <advance width="1229"/>
  <unicode hex="20A8"/>
  <outline>
    <contour>
      <point x="462" y="498"/>
      <point x="456" y="462" type="curve" smooth="yes"/>
      <point x="448" y="420"/>
      <point x="423" y="402"/>
      <point x="381" y="402" type="curve" smooth="yes"/>
      <point x="293" y="402" type="line"/>
      <point x="314" y="522" type="line"/>
      <point x="402" y="522" type="line" smooth="yes"/>
      <point x="444" y="522"/>
    </contour>
    <contour>
      <point x="455" y="708" type="curve" smooth="yes"/>
      <point x="125" y="708" type="line"/>
      <point x="0" y="0" type="line"/>
      <point x="222" y="0" type="line"/>
      <point x="267" y="254" type="line"/>
      <point x="375" y="254" type="line"/>
      <point x="553" y="254"/>
      <point x="661" y="352"/>
      <point x="683" y="476" type="curve"/>
      <point x="706" y="606"/>
      <point x="633" y="708"/>
    </contour>
    <contour>
      <point x="480" y="305" type="line"/>
      <point x="249" y="305" type="line"/>
      <point x="356" y="0" type="line"/>
      <point x="600" y="0" type="line"/>
    </contour>
    <contour>
      <point x="710" y="489"/>
      <point x="694" y="393" type="curve"/>
      <point x="656" y="182"/>
      <point x="1001" y="245"/>
      <point x="990" y="178" type="curve"/>
      <point x="987" y="165"/>
      <point x="977" y="156"/>
      <point x="947" y="156" type="curve" smooth="yes"/>
      <point x="914" y="156"/>
      <point x="880" y="164"/>
      <point x="882" y="195" type="curve"/>
      <point x="665" y="195" type="line"/>
      <point x="664" y="64"/>
      <point x="756" y="-7"/>
      <point x="921" y="-7" type="curve"/>
      <point x="1074" y="-7"/>
      <point x="1171" y="73"/>
      <point x="1189" y="173" type="curve"/>
      <point x="1225" y="376"/>
      <point x="877" y="324"/>
      <point x="888" y="385" type="curve"/>
      <point x="891" y="401"/>
      <point x="910" y="407"/>
      <point x="936" y="407" type="curve" smooth="yes"/>
      <point x="968" y="407"/>
      <point x="997" y="398"/>
      <point x="1000" y="369" type="curve"/>
      <point x="1217" y="369" type="line"/>
      <point x="1214" y="483"/>
      <point x="1140" y="571"/>
      <point x="968" y="571" type="curve" smooth="yes"/>
      <point x="808" y="571"/>
    </contour>
  </outline>
</glyph>
